<svg xmlns="http://www.w3.org/2000/svg" width="96" height="96.004" viewBox="0 0 96 96.004">
  <g id="Group_133" data-name="Group 133" transform="translate(0 0.004)">
    <path id="Path_74" data-name="Path 74" d="M69.962,0H26.038a2.752,2.752,0,0,0-1.446.526L.526,24.592A2.752,2.752,0,0,0,0,26.038V86a2.022,2.022,0,0,0,1.973,1.973H48.658a2.245,2.245,0,0,0,1.709-.92,2.082,2.082,0,0,0,.133-1.968A25.244,25.244,0,0,1,48,73.907,25.928,25.928,0,0,1,70.225,48.263a1.992,1.992,0,0,0,1.709-1.973V1.973A1.861,1.861,0,0,0,70.192,0,1.765,1.765,0,0,0,69.962,0Zm-48,23.934H6.838l17.1-17.1V21.962a1.863,1.863,0,0,1-1.747,1.972A1.75,1.75,0,0,1,21.962,23.934Z" fill="#073d83"/>
    <ellipse id="Ellipse_90" data-name="Ellipse 90" cx="21.96" cy="22.03" rx="21.96" ry="22.03" transform="translate(52.08 51.94)" fill="#007de4"/>
    <path id="Path_117" data-name="Path 117" d="M8.3-6.889A5.029,5.029,0,0,0,3.47-3.3a.758.758,0,0,1-.725.5C2.193-2.8.486-4.176,0-4.508,0-.416,1.885,3.18,6.36,3.18c3.769,0,6.36-2.175,6.36-5.972a4.315,4.315,0,0,0-.048-.454ZM22.75-22.259a3.034,3.034,0,0,0-2,.817C10.6-12.369,9.54-12.156,9.54-9.485a4.6,4.6,0,0,0,.434,1.923L13.144-4.92a4.572,4.572,0,0,0,1.112.151c3.086,0,4.875-2.259,10.491-12.742a5.112,5.112,0,0,0,.691-2.285A2.587,2.587,0,0,0,22.75-22.259Z" transform="translate(61.321 83.945)" fill="#fff" stroke="#007de4" stroke-width="2"/>
  </g>
</svg>
