<svg xmlns="http://www.w3.org/2000/svg" width="982.055" height="617.99" viewBox="0 0 982.055 617.99">
  <g id="Group_783" data-name="Group 783" transform="translate(-122.825 -144.293)" opacity="0.05">
    <g id="Group_361" data-name="Group 361" transform="translate(733.212 728.495)">
      <g id="Group_342" data-name="Group 342" transform="translate(9.745 0)">
        <g id="Group_340" data-name="Group 340" transform="translate(1.25 1.269)">
          <path id="Path_439" data-name="Path 439" d="M411.78,393.223c-1.322-4.323-4.353-8.372-8.656-9.758s-9.767.714-11.109,5.032c-3.96-3.306-10.03-.682-13.21,3.382-5.147,6.565-1.17,17.323-.311,18.019.929.755,3.443.623,3.443.623l38.513-.216s7.065-.515,10.326-1.815c6.56-2.617,11.023-13.907,6.8-19.569-2.876-3.86-8.558-4.679-13.144-3.215a36.93,36.93,0,0,0-12.651,7.516" transform="translate(-376.218 -383.042)" fill="#f5f6f8"/>
        </g>
        <g id="Group_341" data-name="Group 341">
          <path id="Path_440" data-name="Path 440" d="M382.127,412.558a6.413,6.413,0,0,1-3.7-.922c-1.511-1.226-5.348-12.825.113-19.792a13.891,13.891,0,0,1,8.995-5.312,8.008,8.008,0,0,1,4.657.821,9.078,9.078,0,0,1,3.8-3.595,10.978,10.978,0,0,1,8.259-.75c3.828,1.231,7.04,4.466,8.843,8.816a37.241,37.241,0,0,1,11.685-6.577c4.6-1.469,11.114-.944,14.554,3.666,1.979,2.658,2.44,6.584,1.256,10.775-1.415,5-4.792,9.216-8.6,10.736-3.4,1.359-10.407,1.881-10.706,1.9l-38.6.216C382.556,412.551,382.365,412.558,382.127,412.558Zm6.4-23.537a6.6,6.6,0,0,0-.721.039,11.436,11.436,0,0,0-7.259,4.353c-4.517,5.765-1.143,15.385-.4,16.354a7.383,7.383,0,0,0,2.467.235l38.574-.216c-.017,0,6.822-.512,9.863-1.726,3.058-1.216,5.91-4.86,7.1-9.063.969-3.421.66-6.543-.844-8.563-2.693-3.615-7.977-3.965-11.741-2.761a35.714,35.714,0,0,0-12.2,7.256,1.265,1.265,0,0,1-1.184.272,1.281,1.281,0,0,1-.873-.853c-1.359-4.446-4.286-7.779-7.83-8.921a8.4,8.4,0,0,0-6.307.589,6.234,6.234,0,0,0-3.2,3.612,1.274,1.274,0,0,1-2.03.6A5.176,5.176,0,0,0,388.525,389.021Z" transform="translate(-375.708 -382.525)" fill="#dadce0"/>
        </g>
      </g>
      <g id="Group_345" data-name="Group 345" transform="translate(4.673 9.512)">
        <g id="Group_344" data-name="Group 344">
          <g id="Group_343" data-name="Group 343">
            <path id="Path_441" data-name="Path 441" d="M375.023,386.883a12.036,12.036,0,0,0-1.312,6.876c.13,1.209,2.04,1.221,1.908,0a10.214,10.214,0,0,1,1.052-5.912c.559-1.089-1.086-2.055-1.648-.964Z" transform="translate(-373.64 -386.404)" fill="#dadce0"/>
          </g>
        </g>
      </g>
      <g id="Group_348" data-name="Group 348" transform="translate(0 10.848)">
        <g id="Group_347" data-name="Group 347">
          <g id="Group_346" data-name="Group 346">
            <path id="Path_442" data-name="Path 442" d="M372.226,387.622a13.223,13.223,0,0,0-.164,6.5c.262,1.2,2.1.689,1.839-.508a11.133,11.133,0,0,1,.164-5.483.955.955,0,0,0-1.839-.508Z" transform="translate(-371.735 -386.949)" fill="#dadce0"/>
          </g>
        </g>
      </g>
      <g id="Group_351" data-name="Group 351" transform="translate(10.268 5.744)">
        <g id="Group_350" data-name="Group 350">
          <g id="Group_349" data-name="Group 349">
            <path id="Path_443" data-name="Path 443" d="M376.844,386.775a.954.954,0,0,0,0-1.908.954.954,0,0,0,0,1.908Z" transform="translate(-375.922 -384.867)" fill="#dadce0"/>
          </g>
        </g>
      </g>
      <g id="Group_354" data-name="Group 354" transform="translate(16.595 15.949)">
        <g id="Group_353" data-name="Group 353">
          <g id="Group_352" data-name="Group 352">
            <path id="Path_444" data-name="Path 444" d="M378.5,389.949v1.7a.953.953,0,0,0,1.905,0v-1.7a.953.953,0,0,0-1.905,0Z" transform="translate(-378.502 -389.029)" fill="#dadce0"/>
          </g>
        </g>
      </g>
      <g id="Group_357" data-name="Group 357" transform="translate(48.808 18.917)">
        <g id="Group_356" data-name="Group 356">
          <g id="Group_355" data-name="Group 355">
            <path id="Path_445" data-name="Path 445" d="M391.638,391.159v.848a.954.954,0,0,0,1.908,0v-.848a.954.954,0,0,0-1.908,0Z" transform="translate(-391.638 -390.239)" fill="#dadce0"/>
          </g>
        </g>
      </g>
      <g id="Group_360" data-name="Group 360" transform="translate(44.992 15.915)">
        <g id="Group_359" data-name="Group 359">
          <g id="Group_358" data-name="Group 358">
            <path id="Path_446" data-name="Path 446" d="M390.362,390.643l.424.424a.954.954,0,0,0,1.349-1.349l-.424-.424a.954.954,0,0,0-1.349,1.349Z" transform="translate(-390.082 -389.015)" fill="#dadce0"/>
          </g>
        </g>
      </g>
    </g>
    <g id="Group_362" data-name="Group 362" transform="translate(169.386 698.91)">
      <path id="Path_447" data-name="Path 447" d="M208.92,375.546H144.355a2.543,2.543,0,1,1,0-5.086H208.92a2.543,2.543,0,1,1,0,5.086Z" transform="translate(-141.812 -370.46)" fill="#dadce0"/>
    </g>
    <g id="Group_364" data-name="Group 364" transform="translate(795.811 475.464)">
      <g id="Group_363" data-name="Group 363">
        <path id="Path_448" data-name="Path 448" d="M406.48,283.951h-1.844a2.765,2.765,0,1,0-5.53,0h-1.844a4.609,4.609,0,1,1,9.218,0Z" transform="translate(-397.262 -279.341)" fill="#fff"/>
      </g>
    </g>
    <g id="Group_366" data-name="Group 366" transform="translate(802.405 368.092)">
      <g id="Group_365" data-name="Group 365">
        <path id="Path_449" data-name="Path 449" d="M409.171,240.166h-1.844a2.766,2.766,0,1,0-5.532,0h-1.844a4.61,4.61,0,1,1,9.22,0Z" transform="translate(-399.951 -235.556)" fill="#fff"/>
      </g>
    </g>
    <g id="Group_369" data-name="Group 369" transform="translate(494.325 700.668)">
      <g id="Group_368" data-name="Group 368">
        <g id="Group_367" data-name="Group 367">
          <path id="Path_450" data-name="Path 450" d="M362.073,416.325H274.319l1.488-3.531c5.755-13.649,6.349-25.337,5.473-38.689l-.177-2.7,73.987-.226.017,2.531c.064,8.632,2.4,28.23,5.912,39.3Zm-80.181-5.086h73.325a193.055,193.055,0,0,1-5.125-34.962l-63.577.2C287.117,388.313,286.391,399.086,281.892,411.239Z" transform="translate(-274.319 -371.177)" fill="#073d83"/>
        </g>
      </g>
    </g>
    <g id="Group_372" data-name="Group 372" transform="translate(328.885 446.515)">
      <g id="Group_371" data-name="Group 371">
        <g id="Group_370" data-name="Group 370">
          <path id="Path_451" data-name="Path 451" d="M347.063,526.743c-66.623,0-120.592-.363-122.96-1.209-5.7-2.033-13.156-9.937-13.257-15.542-.216-12.139-.738-28.669-1.341-47.816-1.824-57.718-4.323-136.769-1.081-180.512a15.176,15.176,0,0,1,15.042-14.127h.255l384.1.571a15.141,15.141,0,0,1,14.826,14.924c.294,12.779.711,25.834,1.13,39.072,1.758,55.416,3.575,112.72-2.563,166.909-.24,2.136-.348,4.495-.459,6.94-.517,11.369-1.16,25.521-15.815,28.409C597.776,525.777,455.624,526.743,347.063,526.743ZM223.5,271.624a11.1,11.1,0,0,0-11,10.341c-3.225,43.53-.731,122.455,1.089,180.083.608,19.159,1.13,35.7,1.346,47.873.064,3.539,5.976,10.135,10.542,11.763,8.178,1.67,369.283.434,378.671-1.329,11.506-2.273,12.023-13.617,12.524-24.589.115-2.54.228-4.993.478-7.217,6.106-53.89,4.291-111.045,2.538-166.319-.419-13.245-.834-26.313-1.13-39.1A11.065,11.065,0,0,0,607.761,272.2l-384.08-.571Z" transform="translate(-206.854 -267.536)" fill="#e8f0fe"/>
        </g>
      </g>
    </g>
    <g id="Group_374" data-name="Group 374" transform="translate(343.279 459.829)">
      <g id="Group_373" data-name="Group 373">
        <path id="Path_452" data-name="Path 452" d="M588.548,273.443l-361.89-.476c-6.511-.1-11.974,4.365-12.462,10.2-4.056,48.437,1.471,149.5,2.29,190.171.078,3.963,6.55,9.91,11.212,11.381,5.486,1.731,349.4.424,357.8-1.045,15.094-2.636,12.524-18.093,13.791-27.988,7.161-55.941,2.761-116.749,1.336-171.466C600.473,278.3,595.144,273.543,588.548,273.443Z" transform="translate(-212.724 -272.965)" fill="#e8f0fe" fill-rule="evenodd"/>
      </g>
    </g>
    <g id="Group_377" data-name="Group 377" transform="translate(453.794 741.042)">
      <g id="Group_376" data-name="Group 376" transform="translate(0 0)">
        <g id="Group_375" data-name="Group 375">
          <path id="Path_453" data-name="Path 453" d="M417.469,406.339H266.891c-5.974,0-9.1-4.7-9.1-9.343s3.127-9.355,9.1-9.355H417.469c5.976,0,9.1,4.7,9.1,9.343S423.445,406.339,417.469,406.339Zm-150.578-14.61c-3.955,0-5.012,3.31-5.012,5.267s1.057,5.255,5.012,5.255H417.469c3.958,0,5.015-3.311,5.015-5.267s-1.057-5.255-5.015-5.255Z" transform="translate(-257.791 -387.641)" fill="#073d83"/>
        </g>
      </g>
    </g>
    <g id="Group_402" data-name="Group 402" transform="translate(352.954 680.964)">
      <g id="Group_385" data-name="Group 385" transform="translate(0 0)">
        <g id="Group_380" data-name="Group 380" transform="translate(4.409 5.255)">
          <g id="Group_379" data-name="Group 379">
            <g id="Group_378" data-name="Group 378">
              <path id="Path_454" data-name="Path 454" d="M219.133,365.285h0" transform="translate(-218.467 -365.285)" fill="#415b91" fill-rule="evenodd"/>
            </g>
          </g>
        </g>
        <g id="Group_384" data-name="Group 384">
          <g id="Group_383" data-name="Group 383">
            <g id="Group_382" data-name="Group 382">
              <g id="Group_381" data-name="Group 381">
                <path id="Path_455" data-name="Path 455" d="M221.745,373.652c6.763,0,6.776-10.51,0-10.51s-6.773,10.51,0,10.51Z" transform="translate(-216.669 -363.142)" fill="#073d83"/>
              </g>
            </g>
          </g>
        </g>
      </g>
      <g id="Group_393" data-name="Group 393" transform="translate(21.187 0)">
        <g id="Group_388" data-name="Group 388" transform="translate(4.409 5.255)">
          <g id="Group_387" data-name="Group 387">
            <g id="Group_386" data-name="Group 386">
              <path id="Path_456" data-name="Path 456" d="M227.773,365.285h0" transform="translate(-227.108 -365.285)" fill="#415b91" fill-rule="evenodd"/>
            </g>
          </g>
        </g>
        <g id="Group_392" data-name="Group 392">
          <g id="Group_391" data-name="Group 391">
            <g id="Group_390" data-name="Group 390">
              <g id="Group_389" data-name="Group 389">
                <path id="Path_457" data-name="Path 457" d="M230.385,373.652c6.763,0,6.776-10.51,0-10.51s-6.773,10.51,0,10.51Z" transform="translate(-225.309 -363.142)" fill="#073d83"/>
              </g>
            </g>
          </g>
        </g>
      </g>
      <g id="Group_401" data-name="Group 401" transform="translate(42.375 0)">
        <g id="Group_396" data-name="Group 396" transform="translate(4.408 5.255)">
          <g id="Group_395" data-name="Group 395">
            <g id="Group_394" data-name="Group 394">
              <path id="Path_458" data-name="Path 458" d="M236.414,365.285h0" transform="translate(-235.747 -365.285)" fill="#415b91" fill-rule="evenodd"/>
            </g>
          </g>
        </g>
        <g id="Group_400" data-name="Group 400">
          <g id="Group_399" data-name="Group 399">
            <g id="Group_398" data-name="Group 398">
              <g id="Group_397" data-name="Group 397">
                <path id="Path_459" data-name="Path 459" d="M239.025,373.652c6.763,0,6.776-10.51,0-10.51s-6.773,10.51,0,10.51Z" transform="translate(-233.949 -363.142)" fill="#073d83"/>
              </g>
            </g>
          </g>
        </g>
      </g>
    </g>
    <g id="Group_410" data-name="Group 410" transform="translate(535.804 452.253)">
      <g id="Group_405" data-name="Group 405" transform="translate(2.067 2.465)">
        <g id="Group_404" data-name="Group 404">
          <g id="Group_403" data-name="Group 403">
            <path id="Path_460" data-name="Path 460" d="M292.389,270.881h0" transform="translate(-292.076 -270.881)" fill="#dadce0" fill-rule="evenodd"/>
          </g>
        </g>
      </g>
      <g id="Group_409" data-name="Group 409" transform="translate(0)">
        <g id="Group_408" data-name="Group 408">
          <g id="Group_407" data-name="Group 407">
            <g id="Group_406" data-name="Group 406">
              <path id="Path_461" data-name="Path 461" d="M293.613,274.8c3.173,0,3.178-4.929,0-4.929s-3.176,4.929,0,4.929Z" transform="translate(-291.234 -269.876)" fill="#dadce0"/>
            </g>
          </g>
        </g>
      </g>
    </g>
    <g id="Group_415" data-name="Group 415" transform="translate(906.675 684.209)">
      <g id="Group_411" data-name="Group 411" transform="translate(4.287 0)">
        <path id="Path_462" data-name="Path 462" d="M496.1,430.009H444.219l19.956-65.544h11.974Z" transform="translate(-444.219 -364.465)" fill="#f5f6f8"/>
      </g>
      <g id="Group_412" data-name="Group 412" transform="translate(0 65.544)">
        <rect id="Rectangle_304" data-name="Rectangle 304" width="60.46" height="7.488" fill="#f5f6f8"/>
      </g>
      <g id="Group_413" data-name="Group 413" transform="translate(4.287 49.158)">
        <path id="Path_463" data-name="Path 463" d="M449.208,384.511,444.219,400.9H496.1l-4.989-16.386Z" transform="translate(-444.219 -384.511)" fill="#dadce0"/>
      </g>
      <g id="Group_414" data-name="Group 414" transform="translate(14.265 16.386)">
        <path id="Path_464" data-name="Path 464" d="M448.288,387.533h31.929l-4.989-16.386H453.277Z" transform="translate(-448.288 -371.147)" fill="#dadce0"/>
      </g>
    </g>
    <g id="Group_417" data-name="Group 417" transform="translate(972.074 673.355)">
      <g id="Group_416" data-name="Group 416" transform="translate(0 0)">
        <path id="Path_465" data-name="Path 465" d="M481.131,443.5h11.513V398.924h59.1V443.5h11.513V398.924H575.45V363.33h-9.726v-3.291H548.948v3.291H496.59v-3.291H479.815v3.291H469.14v35.594h11.991Zm90.6-76.456v.15l-7.1,28.01H551.972l7.134-28.159ZM538.7,395.207H526.039l7.134-28.159h12.663Zm-25.93,0H500.107l7.136-28.159h12.663ZM481.31,367.048h12.663l-7.134,28.159H474.177Z" transform="translate(-469.14 -360.039)" fill="#dadce0"/>
      </g>
    </g>
    <g id="Group_422" data-name="Group 422" transform="translate(366.419 266.219)">
      <g id="Group_419" data-name="Group 419">
        <g id="Group_418" data-name="Group 418">
          <path id="Path_466" data-name="Path 466" d="M273.525,248.826l3.45-3.45a1.785,1.785,0,0,0,0-2.531l-3.006-3a2.535,2.535,0,0,1-.4-2.832l2.447-5.944a2.542,2.542,0,0,1,2.3-1.726h4.252a1.789,1.789,0,0,0,1.79-1.78v-4.89a1.785,1.785,0,0,0-1.79-1.785h-4.252a2.544,2.544,0,0,1-2.3-1.721l-2.447-5.939a2.55,2.55,0,0,1,.4-2.842l3.006-3a1.776,1.776,0,0,0,0-2.523l-3.45-3.463a1.791,1.791,0,0,0-2.528,0l-3.009,3a2.539,2.539,0,0,1-2.83.412l-5.952-2.452a2.542,2.542,0,0,1-1.717-2.3v-4.252a1.8,1.8,0,0,0-1.788-1.8h-4.88a1.8,1.8,0,0,0-1.793,1.8v4.252a2.538,2.538,0,0,1-1.717,2.3l-5.952,2.452a2.537,2.537,0,0,1-2.83-.412l-3.011-3a1.77,1.77,0,0,0-2.518,0l-3.463,3.458a1.78,1.78,0,0,0,0,2.523l3,3a2.543,2.543,0,0,1,.407,2.842l-2.447,5.939a2.547,2.547,0,0,1-2.3,1.721h-4.257a1.788,1.788,0,0,0-1.788,1.785v4.89a1.791,1.791,0,0,0,1.788,1.78H228.2a2.545,2.545,0,0,1,2.3,1.726l2.447,5.944a2.527,2.527,0,0,1-.407,2.832l-3,3a1.789,1.789,0,0,0,0,2.531l3.463,3.45a1.762,1.762,0,0,0,2.518,0l3.011-3a2.529,2.529,0,0,1,2.835-.4l5.947,2.447a2.532,2.532,0,0,1,1.717,2.3v4.262a1.793,1.793,0,0,0,1.793,1.785h4.88a1.792,1.792,0,0,0,1.788-1.785v-4.262a2.536,2.536,0,0,1,1.717-2.3l5.952-2.447a2.524,2.524,0,0,1,2.83.4l3.009,3A1.773,1.773,0,0,0,273.525,248.826Zm-20.263-9.444a14.268,14.268,0,1,1,14.27-14.27A14.274,14.274,0,0,1,253.262,239.382Z" transform="translate(-222.16 -194.013)" fill="#f5f6f8"/>
        </g>
      </g>
      <g id="Group_421" data-name="Group 421" transform="translate(46.546 53.493)">
        <g id="Group_420" data-name="Group 420">
          <path id="Path_467" data-name="Path 467" d="M278.957,230.634l-.871-2.9a1.116,1.116,0,0,0-1.383-.743l-2.516.765a1.572,1.572,0,0,1-1.675-.616l-2.533-3.073a1.588,1.588,0,0,1-.26-1.758l1.241-2.32a1.116,1.116,0,0,0-.444-1.506l-2.67-1.427a1.107,1.107,0,0,0-1.5.454l-1.248,2.32a1.582,1.582,0,0,1-1.609.753l-3.968-.4a1.558,1.558,0,0,1-1.425-1.052l-.768-2.521a1.1,1.1,0,0,0-1.378-.736l-2.9.868a1.111,1.111,0,0,0-.741,1.388l.768,2.516a1.565,1.565,0,0,1-.62,1.67l-3.078,2.538a1.579,1.579,0,0,1-1.753.257l-2.325-1.246a1.1,1.1,0,0,0-1.5.456l-1.435,2.661a1.116,1.116,0,0,0,.454,1.5l2.322,1.253a1.557,1.557,0,0,1,.753,1.6l-.395,3.965a1.562,1.562,0,0,1-1.057,1.427l-2.521.77a1.1,1.1,0,0,0-.741,1.381l.875,2.894a1.1,1.1,0,0,0,1.385.738l2.521-.76a1.583,1.583,0,0,1,1.663.613l2.533,3.08a1.589,1.589,0,0,1,.265,1.758l-1.246,2.32a1.123,1.123,0,0,0,.456,1.506l2.663,1.422a1.109,1.109,0,0,0,1.5-.451l1.251-2.322a1.574,1.574,0,0,1,1.606-.758l3.96.4a1.577,1.577,0,0,1,1.435,1.057l.76,2.516a1.108,1.108,0,0,0,1.383.741l2.9-.875a1.119,1.119,0,0,0,.748-1.378l-.765-2.518a1.567,1.567,0,0,1,.6-1.67l3.08-2.533a1.59,1.59,0,0,1,1.761-.267l2.32,1.246a1.1,1.1,0,0,0,1.5-.451l1.43-2.668a1.11,1.11,0,0,0-.459-1.5L275,239.778a1.556,1.556,0,0,1-.748-1.6l.4-3.977a1.576,1.576,0,0,1,1.05-1.427l2.523-.76A1.108,1.108,0,0,0,278.957,230.634Zm-11.087,8.3a8.842,8.842,0,1,1-3.615-11.969A8.839,8.839,0,0,1,267.871,238.932Z" transform="translate(-241.141 -215.827)" fill="#f5f6f8"/>
        </g>
      </g>
    </g>
    <g id="Group_423" data-name="Group 423" transform="translate(512.702 385.292)">
      <path id="Path_468" data-name="Path 468" d="M364.3,247.658H284.356a2.544,2.544,0,0,1,0-5.088H364.3a2.544,2.544,0,0,1,0,5.088Z" transform="translate(-281.813 -242.57)" fill="#dadce0"/>
    </g>
    <g id="Group_424" data-name="Group 424" transform="translate(300.765 421.61)">
      <path id="Path_469" data-name="Path 469" d="M327.06,262.466H197.932a2.543,2.543,0,1,1,0-5.086H327.06a2.543,2.543,0,0,1,0,5.086Z" transform="translate(-195.387 -257.38)" fill="#dadce0"/>
    </g>
    <g id="Group_425" data-name="Group 425" transform="translate(919.902 490.368)">
      <path id="Path_470" data-name="Path 470" d="M579.536,290.5H450.408a2.543,2.543,0,1,1,0-5.086H579.536a2.543,2.543,0,1,1,0,5.086Z" transform="translate(-447.865 -285.419)" fill="#dadce0"/>
    </g>
    <g id="Group_426" data-name="Group 426" transform="translate(122.825 757.197)">
      <path id="Path_471" data-name="Path 471" d="M1102.337,399.315H125.368a2.543,2.543,0,1,1,0-5.086h976.969a2.543,2.543,0,0,1,0,5.086Z" transform="translate(-122.825 -394.229)" fill="#868686"/>
    </g>
    <g id="Group_431" data-name="Group 431" transform="translate(704.828 358.438)">
      <g id="Group_428" data-name="Group 428">
        <g id="Group_427" data-name="Group 427">
          <path id="Path_472" data-name="Path 472" d="M399.3,231.619a20.517,20.517,0,0,0-17.691,30.893l.336.569-20.766,20.766a3.63,3.63,0,0,0-1.023,2.362,4.508,4.508,0,0,0,1.567,3.154,4.974,4.974,0,0,0,3.472,1.68,4.2,4.2,0,0,0,2.442-.831l20.714-20.724.574.338A20.512,20.512,0,1,0,399.3,231.619Zm0,34.932a14.422,14.422,0,0,1,0-28.843h0a14.422,14.422,0,1,1,0,28.843Z" transform="translate(-360.16 -231.619)" fill="#f5f6f8"/>
        </g>
      </g>
      <g id="Group_430" data-name="Group 430" transform="translate(31.543 19.711)">
        <g id="Group_429" data-name="Group 429">
          <path id="Path_473" data-name="Path 473" d="M373.023,243.458h14.853v-3.8H373.023Z" transform="translate(-373.023 -239.657)" fill="#dadce0"/>
        </g>
      </g>
    </g>
    <g id="Group_442" data-name="Group 442" transform="translate(360.565 556.618)">
      <g id="Group_432" data-name="Group 432" transform="translate(0 0)">
        <path id="Path_474" data-name="Path 474" d="M222.316,513.389a2.542,2.542,0,0,1-2.543-2.543V314.978a2.543,2.543,0,0,1,5.086,0V510.846A2.544,2.544,0,0,1,222.316,513.389Z" transform="translate(-219.773 -312.435)" fill="#073d83"/>
      </g>
      <g id="Group_433" data-name="Group 433" transform="translate(45.516 0)">
        <path id="Path_475" data-name="Path 475" d="M240.877,513.389a2.542,2.542,0,0,1-2.543-2.543V314.978a2.543,2.543,0,0,1,5.086,0V510.846A2.542,2.542,0,0,1,240.877,513.389Z" transform="translate(-238.334 -312.435)" fill="#073d83"/>
      </g>
      <g id="Group_434" data-name="Group 434" transform="translate(0 13.384)">
        <path id="Path_476" data-name="Path 476" d="M267.832,322.979H222.316a2.543,2.543,0,1,1,0-5.086h45.516a2.543,2.543,0,1,1,0,5.086Z" transform="translate(-219.773 -317.893)" fill="#073d83"/>
      </g>
      <g id="Group_435" data-name="Group 435" transform="translate(0 35.761)">
        <path id="Path_477" data-name="Path 477" d="M267.832,332.106H222.316a2.544,2.544,0,0,1,0-5.088h45.516a2.544,2.544,0,0,1,0,5.088Z" transform="translate(-219.773 -327.018)" fill="#073d83"/>
      </g>
      <g id="Group_436" data-name="Group 436" transform="translate(0 58.138)">
        <path id="Path_478" data-name="Path 478" d="M267.832,341.231H222.316a2.544,2.544,0,0,1,0-5.088h45.516a2.544,2.544,0,0,1,0,5.088Z" transform="translate(-219.773 -336.143)" fill="#073d83"/>
      </g>
      <g id="Group_437" data-name="Group 437" transform="translate(0 80.517)">
        <path id="Path_479" data-name="Path 479" d="M267.832,350.355H222.316a2.543,2.543,0,1,1,0-5.086h45.516a2.543,2.543,0,1,1,0,5.086Z" transform="translate(-219.773 -345.269)" fill="#073d83"/>
      </g>
      <g id="Group_438" data-name="Group 438" transform="translate(0 102.894)">
        <path id="Path_480" data-name="Path 480" d="M267.832,359.48H222.316a2.543,2.543,0,1,1,0-5.086h45.516a2.543,2.543,0,1,1,0,5.086Z" transform="translate(-219.773 -354.394)" fill="#073d83"/>
      </g>
      <g id="Group_439" data-name="Group 439" transform="translate(0 125.27)">
        <path id="Path_481" data-name="Path 481" d="M267.832,368.6H222.316a2.543,2.543,0,1,1,0-5.086h45.516a2.543,2.543,0,1,1,0,5.086Z" transform="translate(-219.773 -363.519)" fill="#073d83"/>
      </g>
      <g id="Group_440" data-name="Group 440" transform="translate(0 147.647)">
        <path id="Path_482" data-name="Path 482" d="M267.832,377.73H222.316a2.543,2.543,0,1,1,0-5.086h45.516a2.543,2.543,0,1,1,0,5.086Z" transform="translate(-219.773 -372.644)" fill="#073d83"/>
      </g>
      <g id="Group_441" data-name="Group 441" transform="translate(0 170.021)">
        <path id="Path_483" data-name="Path 483" d="M267.832,386.854H222.316a2.543,2.543,0,1,1,0-5.086h45.516a2.543,2.543,0,1,1,0,5.086Z" transform="translate(-219.773 -381.768)" fill="#073d83"/>
      </g>
    </g>
    <g id="Group_445" data-name="Group 445" transform="translate(293.624 553.673)">
      <g id="Group_443" data-name="Group 443" transform="translate(4.949 0)">
        <path id="Path_484" data-name="Path 484" d="M197.036,326.222a2.544,2.544,0,0,1-2.543-2.543v-9.9a2.543,2.543,0,0,1,5.086,0v9.9A2.542,2.542,0,0,1,197.036,326.222Z" transform="translate(-194.493 -311.234)" fill="#dadce0"/>
      </g>
      <g id="Group_444" data-name="Group 444" transform="translate(0 4.951)">
        <path id="Path_485" data-name="Path 485" d="M204.918,318.339h-9.9a2.543,2.543,0,0,1,0-5.086h9.9a2.543,2.543,0,0,1,0,5.086Z" transform="translate(-192.475 -313.253)" fill="#dadce0"/>
      </g>
    </g>
    <g id="Group_448" data-name="Group 448" transform="translate(522.337 199.481)">
      <g id="Group_446" data-name="Group 446" transform="translate(4.949)">
        <path id="Path_486" data-name="Path 486" d="M290.3,181.786a2.542,2.542,0,0,1-2.543-2.543v-9.9a2.543,2.543,0,1,1,5.086,0v9.9A2.542,2.542,0,0,1,290.3,181.786Z" transform="translate(-287.76 -166.798)" fill="#dadce0"/>
      </g>
      <g id="Group_447" data-name="Group 447" transform="translate(0 4.951)">
        <path id="Path_487" data-name="Path 487" d="M298.185,173.9h-9.9a2.543,2.543,0,0,1,0-5.086h9.9a2.543,2.543,0,0,1,0,5.086Z" transform="translate(-285.742 -168.817)" fill="#dadce0"/>
      </g>
    </g>
    <g id="Group_451" data-name="Group 451" transform="translate(597.936 715.946)">
      <g id="Group_449" data-name="Group 449" transform="translate(0 3.404)">
        <path id="Path_488" data-name="Path 488" d="M328.637,386.593a2.65,2.65,0,0,1-.7-.1l-9.522-2.717a2.544,2.544,0,0,1,1.4-4.892l9.522,2.717a2.543,2.543,0,0,1-.7,4.988Z" transform="translate(-316.571 -378.795)" fill="#dadce0"/>
      </g>
      <g id="Group_450" data-name="Group 450" transform="translate(3.4)">
        <path id="Path_489" data-name="Path 489" d="M320.5,392.012a2.546,2.546,0,0,1-2.447-3.242l2.72-9.522a2.542,2.542,0,1,1,4.89,1.4l-2.72,9.522A2.543,2.543,0,0,1,320.5,392.012Z" transform="translate(-317.957 -377.407)" fill="#dadce0"/>
      </g>
    </g>
    <g id="Group_454" data-name="Group 454" transform="translate(547.912 416.848)">
      <g id="Group_452" data-name="Group 452" transform="translate(0 3.401)">
        <path id="Path_490" data-name="Path 490" d="M308.236,264.633a2.48,2.48,0,0,1-.7-.1l-9.52-2.719a2.543,2.543,0,1,1,1.4-4.89l9.522,2.72a2.544,2.544,0,0,1-.7,4.99Z" transform="translate(-296.171 -256.825)" fill="#dadce0"/>
      </g>
      <g id="Group_453" data-name="Group 453" transform="translate(3.401)">
        <path id="Path_491" data-name="Path 491" d="M300.1,270.046a2.545,2.545,0,0,1-2.447-3.242l2.72-9.52a2.542,2.542,0,1,1,4.89,1.4l-2.717,9.52A2.548,2.548,0,0,1,300.1,270.046Z" transform="translate(-297.558 -255.438)" fill="#dadce0"/>
      </g>
    </g>
    <g id="Group_492" data-name="Group 492" transform="translate(503.344 284.367)">
      <g id="Group_456" data-name="Group 456">
        <g id="Group_455" data-name="Group 455">
          <circle id="Ellipse_27" data-name="Ellipse 27" cx="35.329" cy="35.329" r="35.329" transform="translate(0 49.963) rotate(-45)" fill="#f5f6f8"/>
        </g>
      </g>
      <g id="Group_462" data-name="Group 462" transform="translate(22.473 22.473)">
        <g id="Group_458" data-name="Group 458" transform="translate(1.025 1.025)">
          <g id="Group_457" data-name="Group 457">
            <circle id="Ellipse_28" data-name="Ellipse 28" cx="26.466" cy="26.466" r="26.466" fill="#fff"/>
          </g>
        </g>
        <g id="Group_461" data-name="Group 461">
          <g id="Group_460" data-name="Group 460">
            <g id="Group_459" data-name="Group 459">
              <path id="Path_492" data-name="Path 492" d="M314.651,265.557a27.49,27.49,0,1,1,27.49-27.49A27.52,27.52,0,0,1,314.651,265.557Zm0-52.932a25.442,25.442,0,1,0,25.442,25.442A25.472,25.472,0,0,0,314.651,212.626Z" transform="translate(-287.161 -210.578)" fill="#073d83"/>
            </g>
          </g>
        </g>
      </g>
      <g id="Group_467" data-name="Group 467" transform="translate(48.94 35.465)">
        <g id="Group_464" data-name="Group 464">
          <g id="Group_463" data-name="Group 463">
            <path id="Path_493" data-name="Path 493" d="M298.977,231.4a1.024,1.024,0,0,1-1.023-1.025V216.9a1.024,1.024,0,1,1,2.048,0v13.473A1.025,1.025,0,0,1,298.977,231.4Z" transform="translate(-297.954 -215.876)" fill="#073d83"/>
          </g>
        </g>
        <g id="Group_466" data-name="Group 466" transform="translate(0 13.475)">
          <g id="Group_465" data-name="Group 465">
            <path id="Path_494" data-name="Path 494" d="M314.764,223.419H298.977a1.024,1.024,0,0,1,0-2.048h15.788a1.024,1.024,0,1,1,0,2.048Z" transform="translate(-297.954 -221.371)" fill="#073d83"/>
          </g>
        </g>
      </g>
      <g id="Group_484" data-name="Group 484" transform="translate(25.44 25.44)">
        <g id="Group_469" data-name="Group 469" transform="translate(23.477)">
          <g id="Group_468" data-name="Group 468">
            <path id="Path_495" data-name="Path 495" d="M300.034,212.835a1.045,1.045,0,1,1-1.045-1.047A1.044,1.044,0,0,1,300.034,212.835Z" transform="translate(-297.945 -211.788)" fill="#073d83"/>
          </g>
        </g>
        <g id="Group_471" data-name="Group 471" transform="translate(40.079 6.877)">
          <g id="Group_470" data-name="Group 470">
            <circle id="Ellipse_29" data-name="Ellipse 29" cx="1.045" cy="1.045" r="1.045" fill="#073d83"/>
          </g>
        </g>
        <g id="Group_473" data-name="Group 473" transform="translate(46.955 23.478)">
          <g id="Group_472" data-name="Group 472">
            <path id="Path_496" data-name="Path 496" d="M308.564,223.454a1.046,1.046,0,1,1,1.045-1.047A1.046,1.046,0,0,1,308.564,223.454Z" transform="translate(-307.519 -221.362)" fill="#073d83"/>
          </g>
        </g>
        <g id="Group_475" data-name="Group 475" transform="translate(40.079 40.08)">
          <g id="Group_474" data-name="Group 474">
            <circle id="Ellipse_30" data-name="Ellipse 30" cx="1.045" cy="1.045" r="1.045" fill="#073d83"/>
          </g>
        </g>
        <g id="Group_477" data-name="Group 477" transform="translate(23.477 46.956)">
          <g id="Group_476" data-name="Group 476">
            <path id="Path_497" data-name="Path 497" d="M297.945,231.981a1.045,1.045,0,1,1,1.045,1.047A1.045,1.045,0,0,1,297.945,231.981Z" transform="translate(-297.945 -230.936)" fill="#073d83"/>
          </g>
        </g>
        <g id="Group_479" data-name="Group 479" transform="translate(6.877 40.079)">
          <g id="Group_478" data-name="Group 478">
            <path id="Path_498" data-name="Path 498" d="M291.481,228.439a1.046,1.046,0,1,1,0,1.479A1.043,1.043,0,0,1,291.481,228.439Z" transform="translate(-291.175 -228.132)" fill="#073d83"/>
          </g>
        </g>
        <g id="Group_481" data-name="Group 481" transform="translate(0 23.478)">
          <g id="Group_480" data-name="Group 480">
            <circle id="Ellipse_31" data-name="Ellipse 31" cx="1.045" cy="1.045" r="1.045" fill="#073d83"/>
          </g>
        </g>
        <g id="Group_483" data-name="Group 483" transform="translate(6.877 6.877)">
          <g id="Group_482" data-name="Group 482">
            <path id="Path_499" data-name="Path 499" d="M292.96,214.9a1.046,1.046,0,1,1-1.479,0A1.048,1.048,0,0,1,292.96,214.9Z" transform="translate(-291.175 -214.592)" fill="#073d83"/>
          </g>
        </g>
      </g>
      <g id="Group_491" data-name="Group 491" transform="translate(85.787 34.425)">
        <g id="Group_486" data-name="Group 486">
          <g id="Group_485" data-name="Group 485">
            <path id="Path_500" data-name="Path 500" d="M328.836,217.5H314a1.024,1.024,0,0,1,0-2.048h14.834a1.024,1.024,0,1,1,0,2.048Z" transform="translate(-312.98 -215.452)" fill="#073d83"/>
          </g>
        </g>
        <g id="Group_488" data-name="Group 488" transform="translate(0 29.03)">
          <g id="Group_487" data-name="Group 487">
            <path id="Path_501" data-name="Path 501" d="M328.836,229.338H314a1.024,1.024,0,0,1,0-2.048h14.834a1.024,1.024,0,1,1,0,2.048Z" transform="translate(-312.98 -227.29)" fill="#073d83"/>
          </g>
        </g>
        <g id="Group_490" data-name="Group 490" transform="translate(5.564 14.52)">
          <g id="Group_489" data-name="Group 489">
            <path id="Path_502" data-name="Path 502" d="M343.982,223.421H316.274a1.024,1.024,0,1,1,0-2.048h27.708a1.024,1.024,0,1,1,0,2.048Z" transform="translate(-315.249 -221.373)" fill="#073d83"/>
          </g>
        </g>
      </g>
    </g>
    <g id="Group_501" data-name="Group 501" transform="translate(654.118 715.71)">
      <g id="Group_493" data-name="Group 493">
        <rect id="Rectangle_305" data-name="Rectangle 305" width="16.386" height="16.386" transform="translate(1.273 1.271)" fill="#dadce0"/>
        <path id="Path_503" data-name="Path 503" d="M358.41,396.24H339.481V377.311H358.41ZM342.024,393.7h13.843V379.854H342.024Z" transform="translate(-339.481 -377.311)" fill="#dadce0"/>
      </g>
      <g id="Group_500" data-name="Group 500" transform="translate(22.539 2.825)">
        <g id="Group_495" data-name="Group 495">
          <g id="Group_494" data-name="Group 494">
            <path id="Path_504" data-name="Path 504" d="M364.531,380.511H349.7a1.024,1.024,0,1,1,0-2.048h14.834a1.024,1.024,0,1,1,0,2.048Z" transform="translate(-348.672 -378.463)" fill="#dadce0"/>
          </g>
        </g>
        <g id="Group_497" data-name="Group 497" transform="translate(0 11.229)">
          <g id="Group_496" data-name="Group 496">
            <path id="Path_505" data-name="Path 505" d="M370.1,385.09H350.058c-.765,0-1.385-.456-1.385-1.023s.62-1.025,1.385-1.025H370.1c.765,0,1.383.459,1.383,1.025S370.87,385.09,370.1,385.09Z" transform="translate(-348.672 -383.042)" fill="#dadce0"/>
          </g>
        </g>
        <g id="Group_499" data-name="Group 499" transform="translate(0 5.299)">
          <g id="Group_498" data-name="Group 498">
            <path id="Path_506" data-name="Path 506" d="M377.4,382.672H349.7a1.024,1.024,0,1,1,0-2.048H377.4a1.024,1.024,0,1,1,0,2.048Z" transform="translate(-348.672 -380.624)" fill="#dadce0"/>
          </g>
        </g>
      </g>
    </g>
    <g id="Group_510" data-name="Group 510" transform="translate(260.95 475.255)">
      <g id="Group_502" data-name="Group 502" transform="translate(33.365)">
        <rect id="Rectangle_306" data-name="Rectangle 306" width="16.386" height="16.386" transform="translate(17.658 17.656) rotate(180)" fill="#dadce0"/>
        <path id="Path_507" data-name="Path 507" d="M211.686,298.182H192.757V279.256h18.929ZM195.3,295.639h13.843V281.8H195.3Z" transform="translate(-192.757 -279.256)" fill="#dadce0"/>
      </g>
      <g id="Group_509" data-name="Group 509" transform="translate(0 2.825)">
        <g id="Group_504" data-name="Group 504" transform="translate(12.874)">
          <g id="Group_503" data-name="Group 503">
            <path id="Path_508" data-name="Path 508" d="M185.426,282.456H200.26a1.024,1.024,0,0,0,0-2.048H185.426a1.024,1.024,0,1,0,0,2.048Z" transform="translate(-184.401 -280.408)" fill="#dadce0"/>
          </g>
        </g>
        <g id="Group_506" data-name="Group 506" transform="translate(6.942 11.229)">
          <g id="Group_505" data-name="Group 505">
            <path id="Path_509" data-name="Path 509" d="M183.365,287.035h20.047c.765,0,1.383-.459,1.383-1.025s-.618-1.023-1.383-1.023H183.365c-.765,0-1.383.459-1.383,1.023S182.6,287.035,183.365,287.035Z" transform="translate(-181.982 -284.987)" fill="#dadce0"/>
          </g>
        </g>
        <g id="Group_508" data-name="Group 508" transform="translate(0 5.299)">
          <g id="Group_507" data-name="Group 507">
            <path id="Path_510" data-name="Path 510" d="M180.176,284.617h27.708a1.024,1.024,0,0,0,0-2.048H180.176a1.024,1.024,0,1,0,0,2.048Z" transform="translate(-179.151 -282.569)" fill="#dadce0"/>
          </g>
        </g>
      </g>
    </g>
    <g id="Group_526" data-name="Group 526" transform="translate(767.429 514.175)">
      <g id="Group_511" data-name="Group 511" transform="translate(27.905 23.921)">
        <rect id="Rectangle_307" data-name="Rectangle 307" width="5.086" height="218.722" fill="#dadce0"/>
      </g>
      <g id="Group_512" data-name="Group 512" transform="translate(14.8 0)">
        <rect id="Rectangle_308" data-name="Rectangle 308" width="31.297" height="50.386" rx="6.153" fill="#f5f6f8"/>
      </g>
      <g id="Group_514" data-name="Group 514" transform="translate(50.24 33.9)">
        <g id="Group_513" data-name="Group 513">
          <path id="Path_511" data-name="Path 511" d="M406.866,310.8l5.368.861c1.2.194,1.717-1.643.505-1.839l-5.368-.861c-1.2-.194-1.716,1.643-.505,1.839Z" transform="translate(-406.175 -308.951)" fill="#dadce0"/>
        </g>
      </g>
      <g id="Group_516" data-name="Group 516" transform="translate(49.55 21.969)">
        <g id="Group_515" data-name="Group 515">
          <path id="Path_512" data-name="Path 512" d="M407.089,306.212a15.562,15.562,0,0,1,4.215-.145c1.221.115,1.214-1.793,0-1.908a17.407,17.407,0,0,0-4.721.213c-1.206.213-.7,2.053.505,1.839Z" transform="translate(-405.894 -304.086)" fill="#dadce0"/>
        </g>
      </g>
      <g id="Group_518" data-name="Group 518" transform="translate(49.018 9.936)">
        <g id="Group_517" data-name="Group 517">
          <path id="Path_513" data-name="Path 513" d="M406.822,302.723l4.115-1.633c1.128-.449.635-2.293-.508-1.839l-4.115,1.633c-1.128.446-.635,2.293.508,1.839Z" transform="translate(-405.677 -299.179)" fill="#dadce0"/>
        </g>
      </g>
      <g id="Group_520" data-name="Group 520" transform="translate(2.197 34.65)">
        <g id="Group_519" data-name="Group 519">
          <path id="Path_514" data-name="Path 514" d="M387.783,312.133a21.754,21.754,0,0,0,4.115-.981c1.155-.395.66-2.239-.508-1.839a21.756,21.756,0,0,1-4.115.981c-1.211.167-.7,2.006.508,1.839Z" transform="translate(-386.584 -309.257)" fill="#dadce0"/>
        </g>
      </g>
      <g id="Group_522" data-name="Group 522" transform="translate(0 22.062)">
        <g id="Group_521" data-name="Group 521">
          <path id="Path_515" data-name="Path 515" d="M386.608,306.032a21.013,21.013,0,0,1,5.177.79.954.954,0,0,0,.505-1.839,23.2,23.2,0,0,0-5.682-.858.955.955,0,0,0,0,1.908Z" transform="translate(-385.688 -304.124)" fill="#dadce0"/>
        </g>
      </g>
      <g id="Group_524" data-name="Group 524" transform="translate(1.922 6.389)">
        <g id="Group_523" data-name="Group 523">
          <path id="Path_516" data-name="Path 516" d="M387.135,299.621l4.12,1.314c1.172.373,1.675-1.469.508-1.839l-4.12-1.314c-1.172-.373-1.675,1.466-.508,1.839Z" transform="translate(-386.472 -297.733)" fill="#dadce0"/>
        </g>
      </g>
      <g id="Group_525" data-name="Group 525" transform="translate(18.58 216.374)">
        <path id="Path_517" data-name="Path 517" d="M393.265,412.6l3.391-29.234h16.531L417,412.174Z" transform="translate(-393.265 -383.363)" fill="#dadce0"/>
      </g>
    </g>
    <g id="Group_595" data-name="Group 595" transform="translate(249.16 602.45)">
      <g id="Group_540" data-name="Group 540" transform="translate(0 2.709)">
        <g id="Group_529" data-name="Group 529" transform="translate(6.19)">
          <g id="Group_527" data-name="Group 527" transform="translate(1.081 1.086)">
            <path id="Path_518" data-name="Path 518" d="M240.137,346.249c-.75-4.647-4.044-16.643-11.288-12.845-11.722,6.145,2.418,29.476-11.707,33.588-.755-9.3-2.754-15.707-6.952-15.324-8.659.785-6.359,20.93-6.5,25.462-.142,4.515-.368,9.144-.571,13.818-10.189,1.827-8.176-24.748-14.373-28.424-9.635-5.716-11.682,7.021-11.418,12.906.451,10.01,3.144,21.987,12.548,27.3,3.1,1.756,8.566,3.732,12.823,3.374a133.647,133.647,0,0,0,1.618,23.559.086.086,0,0,0,.164,0l0-.02,5.709.309,0,.105c-.054,2.511,3.867,2.514,3.9,0,.069-4.833,3.038-28.551,3.394-48.652,4.559.679,10.29-1.44,13.571-3.848C240.784,370.426,241.924,357.3,240.137,346.249Z" transform="translate(-177.308 -332.673)" fill="#f5f6f8"/>
          </g>
          <g id="Group_528" data-name="Group 528">
            <path id="Path_519" data-name="Path 519" d="M212.748,433.673a3.185,3.185,0,0,1-1.645-.446,2.751,2.751,0,0,1-1.234-1.6l-4.208-.226-1.533.052-.233-.964a130.331,130.331,0,0,1-1.641-22.612c-4.684,0-9.821-2.175-12.271-3.558-10.03-5.672-12.656-18.468-13.095-28.2-.174-3.914.65-12.013,5.032-14.642,2.224-1.332,4.924-1.079,8.019.76,3,1.775,4.137,7.232,5.461,13.549,1.79,8.553,3.4,14.714,7.32,14.809l.093-2.1c.164-3.632.326-7.229.434-10.755.022-.692-.015-1.756-.061-3.06-.272-7.93-.782-22.693,7.546-23.448a4.564,4.564,0,0,1,3.477,1.116c2.322,1.954,3.808,6.471,4.527,13.791,5.26-2.347,4.988-8.443,4.679-15.43-.314-7.06-.64-14.365,5.572-17.622a6,6,0,0,1,5.721-.248c5.177,2.59,6.952,12.73,7.139,13.88h0c1.371,8.472,1.957,23.946-9.51,32.357a22.554,22.554,0,0,1-13.151,4.166c-.3,13.124-1.641,27.58-2.54,37.24-.451,4.841-.807,8.664-.829,10.236a2.886,2.886,0,0,1-1.488,2.55A3.253,3.253,0,0,1,212.748,433.673Zm-6.869-4.424,6.069.326-.032,1.055c-.015.505.167.66.3.743a1.116,1.116,0,0,0,1.054,0,.718.718,0,0,0,.375-.689c.025-1.655.365-5.324.839-10.4.922-9.917,2.317-24.9,2.553-38.25l.022-1.234,1.221.181c4.208.625,9.721-1.415,12.771-3.651,10.537-7.729,9.944-22.281,8.654-30.266h0c-.566-3.5-2.543-10.574-5.971-12.291a3.911,3.911,0,0,0-3.747.23c-4.993,2.619-4.711,8.929-4.414,15.611.326,7.344.7,15.672-7.492,18.061l-1.275.37-.108-1.324c-.753-9.269-2.531-12.578-3.889-13.72a2.423,2.423,0,0,0-1.886-.613c-6.29.569-5.809,14.515-5.576,21.217.047,1.363.083,2.477.061,3.2-.11,3.536-.272,7.143-.436,10.787l-.174,3.911-.851.152c-6.974,1.246-8.936-8.139-10.67-16.428-1.116-5.329-2.271-10.841-4.446-12.134-2.362-1.4-4.314-1.658-5.8-.763-3.23,1.937-4.157,8.811-3.982,12.69.414,9.186,2.83,21.227,12,26.411,3.163,1.788,8.335,3.553,12.2,3.239l1.18-.1-.007,1.184A134.277,134.277,0,0,0,205.879,429.249Z" transform="translate(-176.867 -332.23)" fill="#dadce0"/>
          </g>
        </g>
        <g id="Group_532" data-name="Group 532" transform="translate(3.696 99.518)">
          <g id="Group_531" data-name="Group 531">
            <g id="Group_530" data-name="Group 530">
              <path id="Path_520" data-name="Path 520" d="M231.04,425.422h-41.4a4.358,4.358,0,0,1-4.39-3.593l-9.4-48.253,3.9-.765,9.4,48.255a.441.441,0,0,0,.488.38h41.4a.44.44,0,0,0,.488-.378l9.326-48.255,3.9.753-9.326,48.26A4.354,4.354,0,0,1,231.04,425.422Z" transform="translate(-175.85 -372.812)" fill="#dadce0"/>
            </g>
          </g>
        </g>
        <g id="Group_539" data-name="Group 539" transform="translate(0 82.767)">
          <g id="Group_535" data-name="Group 535" transform="translate(0.905 0.905)">
            <g id="Group_533" data-name="Group 533" transform="translate(1.081 1.081)">
              <path id="Path_521" data-name="Path 521" d="M177.282,366.791H246c1.17,0,2.129,1.295,2.129,2.881v10.447c0,1.587-.959,2.881-2.129,2.881H177.282c-1.17,0-2.129-1.295-2.129-2.881V369.672C175.153,368.086,176.112,366.791,177.282,366.791Z" transform="translate(-175.153 -366.791)" fill="#f5f6f8"/>
            </g>
            <g id="Group_534" data-name="Group 534">
              <path id="Path_522" data-name="Path 522" d="M246.644,384.722H177.922c-1.771,0-3.21-1.778-3.21-3.963V370.313c0-2.185,1.439-3.963,3.21-3.963h68.722c1.771,0,3.212,1.778,3.212,3.963v10.447C249.856,382.944,248.414,384.722,246.644,384.722Zm-68.722-16.207c-.493,0-1.047.77-1.047,1.8v10.447c0,1.027.554,1.8,1.047,1.8h68.722c.493,0,1.047-.77,1.047-1.8V370.313c0-1.028-.554-1.8-1.047-1.8Z" transform="translate(-174.712 -366.35)" fill="#405b91"/>
            </g>
          </g>
          <g id="Group_538" data-name="Group 538">
            <g id="Group_536" data-name="Group 536" transform="translate(1.081 1.081)">
              <path id="Path_523" data-name="Path 523" d="M246.537,384.439H177.817c-1.672,0-3.033-1.7-3.033-3.784V370.208c0-2.087,1.361-3.786,3.033-3.786h68.719c1.675,0,3.036,1.7,3.036,3.786v10.447C249.573,382.742,248.212,384.439,246.537,384.439Zm-68.719-16.207c-.579,0-1.224.812-1.224,1.977v10.447c0,1.162.645,1.974,1.224,1.974h68.719c.581,0,1.226-.812,1.226-1.974V370.208c0-1.165-.645-1.977-1.226-1.977Z" transform="translate(-174.784 -366.422)" fill="#b6d0fb"/>
            </g>
            <g id="Group_537" data-name="Group 537">
              <path id="Path_524" data-name="Path 524" d="M247.18,386.163H178.458c-2.268,0-4.115-2.185-4.115-4.868V370.849c0-2.683,1.847-4.868,4.115-4.868H247.18c2.268,0,4.117,2.185,4.117,4.868V381.3C251.3,383.978,249.448,386.163,247.18,386.163Zm-68.6-16.207a1.383,1.383,0,0,0-.267.893V381.3a1.254,1.254,0,0,0,.307.929l68.557-.037c-.083-.02.14-.338.14-.893V370.849a1.262,1.262,0,0,0-.3-.929Z" transform="translate(-174.343 -365.981)" fill="#dadce0"/>
            </g>
          </g>
        </g>
      </g>
      <g id="Group_542" data-name="Group 542" transform="translate(10.702 44.524)">
        <g id="Group_541" data-name="Group 541">
          <path id="Path_525" data-name="Path 525" d="M179.614,351.2l3.389.434c1.214.154,1.2-1.753,0-1.908q-1.7-.217-3.389-.432c-1.214-.157-1.2,1.753,0,1.905Z" transform="translate(-178.707 -349.281)" fill="#dadce0"/>
        </g>
      </g>
      <g id="Group_544" data-name="Group 544" transform="translate(16.597 30.518)">
        <g id="Group_543" data-name="Group 543">
          <path id="Path_526" data-name="Path 526" d="M181.111,344.492v1.694a.955.955,0,0,0,1.908,0v-1.694a.954.954,0,0,0-1.908,0Z" transform="translate(-181.111 -343.57)" fill="#dadce0"/>
        </g>
      </g>
      <g id="Group_546" data-name="Group 546" transform="translate(21.763 45.773)">
        <g id="Group_545" data-name="Group 545">
          <path id="Path_527" data-name="Path 527" d="M184.648,352.948l2.482-1.383c1.074-.6.113-2.244-.961-1.646l-2.482,1.381c-1.074.6-.113,2.246.961,1.648Z" transform="translate(-183.218 -349.79)" fill="#dadce0"/>
        </g>
      </g>
      <g id="Group_548" data-name="Group 548" transform="translate(12.012 66.967)">
        <g id="Group_547" data-name="Group 547">
          <path id="Path_528" data-name="Path 528" d="M180.626,362.341q1.5-1.045,2.989-2.089c1-.7.047-2.352-.964-1.648l-2.987,2.089c-1,.7-.047,2.354.961,1.648Z" transform="translate(-179.242 -358.433)" fill="#dadce0"/>
        </g>
      </g>
      <g id="Group_550" data-name="Group 550" transform="translate(5.608 52.565)">
        <g id="Group_549" data-name="Group 549">
          <path id="Path_529" data-name="Path 529" d="M177.271,354.47l2.124.831c1.143.449,1.641-1.4.508-1.839l-2.126-.831c-1.143-.449-1.638,1.4-.505,1.839Z" transform="translate(-176.63 -352.561)" fill="#dadce0"/>
        </g>
      </g>
      <g id="Group_552" data-name="Group 552" transform="translate(19.177 61.419)">
        <g id="Group_551" data-name="Group 551">
          <path id="Path_530" data-name="Path 530" d="M183.08,358.082a1.342,1.342,0,0,1,1,.586c.782.947,2.126-.41,1.349-1.349a3.177,3.177,0,0,0-2.352-1.145c-1.226-.086-1.219,1.82,0,1.908Z" transform="translate(-182.163 -356.171)" fill="#dadce0"/>
        </g>
      </g>
      <g id="Group_554" data-name="Group 554" transform="translate(24.188 71.614)">
        <g id="Group_553" data-name="Group 553">
          <path id="Path_531" data-name="Path 531" d="M184.3,361.019a6.482,6.482,0,0,0,.466,3.715c.476,1.128,2.121.157,1.648-.961a4.034,4.034,0,0,1-.275-2.246c.186-1.2-1.65-1.719-1.839-.508Z" transform="translate(-184.206 -360.328)" fill="#dadce0"/>
        </g>
      </g>
      <g id="Group_556" data-name="Group 556" transform="translate(33.567 70.779)">
        <g id="Group_555" data-name="Group 555">
          <path id="Path_532" data-name="Path 532" d="M188.707,361.864l1.69.451a.954.954,0,0,0,.505-1.839c-.562-.152-1.126-.3-1.687-.451a.955.955,0,0,0-.508,1.839Z" transform="translate(-188.031 -359.988)" fill="#dadce0"/>
        </g>
      </g>
      <g id="Group_558" data-name="Group 558" transform="translate(40.318 52.99)">
        <g id="Group_557" data-name="Group 557">
          <path id="Path_533" data-name="Path 533" d="M190.8,353.647a3.171,3.171,0,0,0,1.143,2.776c.932.787,2.288-.557,1.349-1.349a1.465,1.465,0,0,1-.584-1.427c.113-1.221-1.8-1.214-1.908,0Z" transform="translate(-190.784 -352.734)" fill="#dadce0"/>
        </g>
      </g>
      <g id="Group_560" data-name="Group 560" transform="translate(37.35 39.864)">
        <g id="Group_559" data-name="Group 559">
          <path id="Path_534" data-name="Path 534" d="M190.136,347.793a2.953,2.953,0,0,0-.493,2.433c.213,1.206,2.053.694,1.839-.508a1.044,1.044,0,0,1,.3-.961c.726-.991-.927-1.945-1.648-.964Z" transform="translate(-189.574 -347.381)" fill="#dadce0"/>
        </g>
      </g>
      <g id="Group_562" data-name="Group 562" transform="translate(48.385 44.929)">
        <g id="Group_561" data-name="Group 561">
          <path id="Path_535" data-name="Path 535" d="M194.074,350.367v1.7a.955.955,0,0,0,1.908,0v-1.7a.955.955,0,0,0-1.908,0Z" transform="translate(-194.074 -349.447)" fill="#dadce0"/>
        </g>
      </g>
      <g id="Group_564" data-name="Group 564" transform="translate(30.199 41.051)">
        <g id="Group_563" data-name="Group 563">
          <path id="Path_536" data-name="Path 536" d="M187.092,349.675q.633.423,1.27.846c1.025.684,1.981-.969.964-1.645q-.636-.427-1.273-.849c-1.023-.682-1.979.969-.961,1.648Z" transform="translate(-186.658 -347.865)" fill="#dadce0"/>
        </g>
      </g>
      <g id="Group_566" data-name="Group 566" transform="translate(33.581 25.371)">
        <g id="Group_565" data-name="Group 565">
          <path id="Path_537" data-name="Path 537" d="M188.28,343.134a2.373,2.373,0,0,1,.6,1.439c.093,1.214,2,1.226,1.905,0a4.587,4.587,0,0,0-1.153-2.788c-.8-.934-2.143.422-1.349,1.349Z" transform="translate(-188.037 -341.471)" fill="#dadce0"/>
        </g>
      </g>
      <g id="Group_568" data-name="Group 568" transform="translate(38.638 20.346)">
        <g id="Group_567" data-name="Group 567">
          <path id="Path_538" data-name="Path 538" d="M190.1,340.342v2.543a.954.954,0,0,0,1.908,0v-2.543a.955.955,0,0,0-1.908,0Z" transform="translate(-190.099 -339.422)" fill="#dadce0"/>
        </g>
      </g>
      <g id="Group_570" data-name="Group 570" transform="translate(50.162 30.831)">
        <g id="Group_569" data-name="Group 569">
          <path id="Path_539" data-name="Path 539" d="M195.067,345.339l.826.868c.849.89,2.195-.461,1.349-1.349l-.826-.868c-.848-.893-2.195.459-1.349,1.349Z" transform="translate(-194.798 -343.698)" fill="#dadce0"/>
        </g>
      </g>
      <g id="Group_572" data-name="Group 572" transform="translate(51.403 19.197)">
        <g id="Group_571" data-name="Group 571">
          <path id="Path_540" data-name="Path 540" d="M196.223,340.863l2.536.145c1.226.069,1.224-1.839,0-1.908l-2.536-.145c-1.226-.071-1.221,1.837,0,1.908Z" transform="translate(-195.305 -338.953)" fill="#dadce0"/>
        </g>
      </g>
      <g id="Group_574" data-name="Group 574" transform="translate(54.742 4.205)">
        <g id="Group_573" data-name="Group 573">
          <path id="Path_541" data-name="Path 541" d="M196.947,334.469q.846.85,1.694,1.7a.954.954,0,0,0,1.349-1.349q-.846-.85-1.695-1.7a.954.954,0,0,0-1.349,1.349Z" transform="translate(-196.666 -332.84)" fill="#dadce0"/>
        </g>
      </g>
      <g id="Group_576" data-name="Group 576" transform="translate(62.373 0)">
        <g id="Group_575" data-name="Group 575">
          <path id="Path_542" data-name="Path 542" d="M199.778,332.047v2.967a.955.955,0,0,0,1.908,0v-2.967a.954.954,0,0,0-1.908,0Z" transform="translate(-199.778 -331.125)" fill="#dadce0"/>
        </g>
      </g>
      <g id="Group_578" data-name="Group 578" transform="translate(64.023 16.095)">
        <g id="Group_577" data-name="Group 577">
          <path id="Path_543" data-name="Path 543" d="M202.259,340.363l.841-1.275c.677-1.028-.974-1.984-1.648-.964-.28.427-.559.851-.841,1.278-.677,1.028.974,1.984,1.648.961Z" transform="translate(-200.451 -337.688)" fill="#dadce0"/>
        </g>
      </g>
      <g id="Group_580" data-name="Group 580" transform="translate(58.217 34.768)">
        <g id="Group_579" data-name="Group 579">
          <path id="Path_544" data-name="Path 544" d="M199.23,348.038c.709-.277,1.42-.552,2.129-.826,1.13-.441.638-2.285-.508-1.839l-2.129.826c-1.13.439-.638,2.286.508,1.839Z" transform="translate(-198.083 -345.303)" fill="#dadce0"/>
        </g>
      </g>
      <g id="Group_582" data-name="Group 582" transform="translate(66.614 32.541)">
        <g id="Group_581" data-name="Group 581">
          <path id="Path_545" data-name="Path 545" d="M202.7,346.7l2.116-.439c1.2-.25.692-2.087-.508-1.839l-2.116.439c-1.2.248-.692,2.087.508,1.839Z" transform="translate(-201.507 -344.395)" fill="#dadce0"/>
        </g>
      </g>
      <g id="Group_584" data-name="Group 584" transform="translate(62.373 42.811)">
        <g id="Group_583" data-name="Group 583">
          <path id="Path_546" data-name="Path 546" d="M199.778,349.5v.424a.955.955,0,0,0,1.908,0V349.5a.955.955,0,0,0-1.908,0Z" transform="translate(-199.778 -348.583)" fill="#dadce0"/>
        </g>
      </g>
      <g id="Group_586" data-name="Group 586" transform="translate(44.598 70.279)">
        <g id="Group_585" data-name="Group 585">
          <path id="Path_547" data-name="Path 547" d="M193.926,362.44l1.273-.846c1.015-.677.061-2.33-.964-1.648l-1.27.848c-1.018.677-.064,2.33.961,1.645Z" transform="translate(-192.53 -359.784)" fill="#dadce0"/>
        </g>
      </g>
      <g id="Group_588" data-name="Group 588" transform="translate(43.243 76.707)">
        <g id="Group_587" data-name="Group 587">
          <path id="Path_548" data-name="Path 548" d="M193.617,365.664a5.307,5.307,0,0,1,2.594-1.39c1.194-.279.689-2.119-.508-1.839a7.249,7.249,0,0,0-3.436,1.881c-.89.851.461,2.2,1.349,1.349Z" transform="translate(-191.977 -362.405)" fill="#dadce0"/>
        </g>
      </g>
      <g id="Group_590" data-name="Group 590" transform="translate(36.913 79.668)">
        <g id="Group_589" data-name="Group 589">
          <path id="Path_549" data-name="Path 549" d="M189.509,365.058l.429.844c.557,1.094,2.2.13,1.648-.961-.145-.282-.287-.564-.432-.846-.557-1.094-2.2-.13-1.645.964Z" transform="translate(-189.396 -363.613)" fill="#dadce0"/>
        </g>
      </g>
      <g id="Group_592" data-name="Group 592" transform="translate(29.283 81.401)">
        <g id="Group_591" data-name="Group 591">
          <path id="Path_550" data-name="Path 550" d="M186.764,366.082a4.73,4.73,0,0,0,3.293.456c1.2-.243.694-2.082-.508-1.839a2.58,2.58,0,0,1-1.824-.262c-1.086-.567-2.052,1.079-.961,1.645Z" transform="translate(-186.285 -364.319)" fill="#dadce0"/>
        </g>
      </g>
      <g id="Group_594" data-name="Group 594" transform="translate(44.624 62.681)">
        <g id="Group_593" data-name="Group 593">
          <path id="Path_551" data-name="Path 551" d="M193.447,359.078l3.808-.478c1.2-.15,1.216-2.057,0-1.905l-3.808.476c-1.2.152-1.216,2.06,0,1.908Z" transform="translate(-192.54 -356.685)" fill="#dadce0"/>
        </g>
      </g>
    </g>
    <g id="Group_602" data-name="Group 602" transform="translate(454.036 502.094)">
      <g id="Group_597" data-name="Group 597" transform="translate(5.972 20.817)">
        <g id="Group_596" data-name="Group 596">
          <path id="Path_552" data-name="Path 552" d="M265.83,359.717l61.588-55.676c3.041-2.751-1.466-7.237-4.5-4.5q-30.792,27.838-61.586,55.678c-3.041,2.749,1.466,7.234,4.495,4.495Z" transform="translate(-260.325 -298.69)" fill="#fff"/>
        </g>
      </g>
      <g id="Group_599" data-name="Group 599" transform="translate(75.574 49.217)">
        <g id="Group_598" data-name="Group 598">
          <path id="Path_553" data-name="Path 553" d="M294.213,371.3q30.8-27.842,61.588-55.678c3.041-2.749-1.466-7.234-4.5-4.495q-30.792,27.838-61.586,55.676c-3.041,2.751,1.466,7.237,4.495,4.5Z" transform="translate(-288.708 -310.271)" fill="#fff"/>
        </g>
      </g>
      <g id="Group_601" data-name="Group 601">
        <g id="Group_600" data-name="Group 600">
          <path id="Path_554" data-name="Path 554" d="M263.34,421.48,392.421,295.611c2.933-2.862-1.565-7.354-4.5-4.495Q323.386,354.05,258.845,416.983c-2.935,2.862,1.565,7.357,4.495,4.5Z" transform="translate(-257.89 -290.201)" fill="#fff"/>
        </g>
      </g>
    </g>
    <g id="Group_772" data-name="Group 772" transform="translate(545.255 144.293)">
      <g id="Group_771" data-name="Group 771">
        <g id="Group_609" data-name="Group 609" transform="translate(98.861 97.685)">
          <g id="Group_604" data-name="Group 604" transform="translate(9.892)">
            <g id="Group_603" data-name="Group 603">
              <rect id="Rectangle_309" data-name="Rectangle 309" width="2.767" height="177.635" fill="#dadce0"/>
            </g>
          </g>
          <g id="Group_606" data-name="Group 606" transform="translate(0 166.36)">
            <g id="Group_605" data-name="Group 605">
              <path id="Path_555" data-name="Path 555" d="M357.953,263.243a11.275,11.275,0,1,1-11.275-11.275A11.277,11.277,0,0,1,357.953,263.243Z" transform="translate(-335.402 -251.968)" fill="#dadce0"/>
            </g>
          </g>
          <g id="Group_608" data-name="Group 608" transform="translate(2.178 185.948)">
            <g id="Group_607" data-name="Group 607">
              <path id="Path_556" data-name="Path 556" d="M345.545,289.474a9.31,9.31,0,0,1-9.255-10.106,1.491,1.491,0,1,1,2.982,0,7.167,7.167,0,0,0,1.827,5.275,7.082,7.082,0,0,0,4.446,1.847,7.63,7.63,0,1,0,0-15.26,1.49,1.49,0,0,1-1.491-1.491v-8.291a1.492,1.492,0,0,1,2.984,0v6.9a10.615,10.615,0,0,1-1.493,21.124Z" transform="translate(-336.29 -259.956)" fill="#073d83"/>
            </g>
          </g>
        </g>
        <g id="Group_619" data-name="Group 619" transform="translate(0 308.354)">
          <g id="Group_611" data-name="Group 611" transform="translate(49.933 0.001)">
            <g id="Group_610" data-name="Group 610">
              <path id="Path_557" data-name="Path 557" d="M316.6,281.776a1.384,1.384,0,0,1,.037-2.732l61.034-8.992a1.383,1.383,0,0,1,.4,2.737l-61.034,8.992A1.384,1.384,0,0,1,316.6,281.776Z" transform="translate(-315.45 -270.037)" fill="#073d83"/>
            </g>
          </g>
          <g id="Group_613" data-name="Group 613" transform="translate(110.967)">
            <g id="Group_612" data-name="Group 612">
              <path id="Path_558" data-name="Path 558" d="M397.609,302.089a1.371,1.371,0,0,1-.4-.137l-56.124-29.3a1.383,1.383,0,0,1,1.28-2.452l56.124,29.3a1.384,1.384,0,0,1-.878,2.59Z" transform="translate(-340.339 -270.037)" fill="#073d83"/>
            </g>
          </g>
          <g id="Group_614" data-name="Group 614" transform="translate(0 6.352)">
            <path id="Rectangle_310" data-name="Rectangle 310" d="M5.87,0H174.634A5.869,5.869,0,0,1,180.5,5.869v104.4a5.869,5.869,0,0,1-5.869,5.869H5.869A5.869,5.869,0,0,1,0,110.274V5.87A5.87,5.87,0,0,1,5.87,0Z" transform="translate(19.884 0) rotate(9.857)" fill="#fff"/>
            <path id="Path_559" data-name="Path 559" d="M460.533,417.28a16.859,16.859,0,0,1-2.891-.253L309.217,391.24a16.834,16.834,0,0,1-13.7-19.471l14.772-85.014a16.859,16.859,0,0,1,19.466-13.706l148.424,25.793a16.838,16.838,0,0,1,13.708,19.468l-14.772,85.014A16.87,16.87,0,0,1,460.533,417.28ZM326.863,276.615a13.041,13.041,0,0,0-12.82,10.792l-14.772,85.014a13.023,13.023,0,0,0,10.6,15.059L458.3,413.269a13.031,13.031,0,0,0,15.054-10.6l14.772-85.017a13.019,13.019,0,0,0-10.6-15.057L329.1,276.809A13.1,13.1,0,0,0,326.863,276.615Z" transform="translate(-294.836 -272.374)" fill="#073d83"/>
          </g>
          <g id="Group_615" data-name="Group 615" transform="translate(8.902 16.144)">
            <rect id="Rectangle_311" data-name="Rectangle 311" width="164.709" height="98.163" rx="3.75" transform="matrix(0.985, 0.171, -0.171, 0.985, 17.223, 0.417)" fill="#e8f0fe"/>
            <path id="Path_560" data-name="Path 560" d="M453.673,402.366a11.772,11.772,0,0,1-1.981-.169L308.206,377.263a11.443,11.443,0,0,1-9.316-13.235l13.539-77.92a11.448,11.448,0,0,1,13.235-9.316l143.486,24.932a11.454,11.454,0,0,1,9.316,13.232l-13.539,77.922a11.447,11.447,0,0,1-11.253,9.488Zm-1.332-3.931a7.623,7.623,0,0,0,8.823-6.209L474.706,314.3a7.64,7.64,0,0,0-6.209-8.823L325.011,280.548a7.651,7.651,0,0,0-8.826,6.212l-13.539,77.922a7.635,7.635,0,0,0,6.211,8.823Z" transform="translate(-298.718 -276.62)" fill="#073d83"/>
          </g>
          <g id="Group_616" data-name="Group 616" transform="translate(91.384 91.72)">
            <path id="Path_561" data-name="Path 561" d="M333.482,342.486l37.3-34.186,20.644,44.255Z" transform="translate(-330.714 -306.19)" fill="#e8f0fe"/>
            <path id="Path_562" data-name="Path 562" d="M395.248,355.471l-62.9-10.927,40.487-37.1Zm-57.36-12.546,52.993,9.208L372,311.657Z" transform="translate(-332.353 -307.439)" fill="#073d83"/>
          </g>
          <g id="Group_617" data-name="Group 617" transform="translate(17.628 52.482)">
            <path id="Path_563" data-name="Path 563" d="M303.4,352.907,369.535,292.3l36.6,78.46Z" transform="translate(-300.638 -290.189)" fill="#e8f0fe"/>
            <path id="Path_564" data-name="Path 564" d="M409.956,373.676l-107.68-18.711,69.315-63.528ZM307.806,353.347l97.783,16.989-34.837-74.681Z" transform="translate(-302.276 -291.438)" fill="#073d83"/>
          </g>
          <g id="Group_618" data-name="Group 618" transform="translate(145.527 53.976)">
            <path id="Path_565" data-name="Path 565" d="M373.311,303.4a9.248,9.248,0,1,1-7.528-10.694A9.249,9.249,0,0,1,373.311,303.4Z" transform="translate(-353.679 -291.293)" fill="#e8f0fe"/>
            <path id="Path_566" data-name="Path 566" d="M364.974,313.092a10.72,10.72,0,0,1-1.824-.157,10.489,10.489,0,1,1,1.824.157Zm-.037-18.5a7.978,7.978,0,1,0,7.874,9.345h0a8,8,0,0,0-7.874-9.345Z" transform="translate(-354.432 -292.047)" fill="#073d83"/>
          </g>
        </g>
        <g id="Group_621" data-name="Group 621" transform="translate(85.866 91.709)">
          <g id="Group_620" data-name="Group 620">
            <rect id="Rectangle_312" data-name="Rectangle 312" width="138.618" height="15.254" fill="#f5f6f8"/>
          </g>
        </g>
        <g id="Group_770" data-name="Group 770" transform="translate(138.09)">
          <g id="Group_748" data-name="Group 748">
            <g id="Group_733" data-name="Group 733">
              <g id="Group_694" data-name="Group 694" transform="translate(160.84)">
                <g id="Group_623" data-name="Group 623" transform="translate(0 0.201)">
                  <g id="Group_622" data-name="Group 622">
                    <path id="Path_567" data-name="Path 567" d="M463.007,551.251H416.988V144.375h46.019ZM421.539,546.7h36.916V148.926H421.539Z" transform="translate(-416.988 -144.375)" fill="#dadce0"/>
                  </g>
                </g>
                <g id="Group_630" data-name="Group 630" transform="translate(0.579)">
                  <g id="Group_625" data-name="Group 625">
                    <g id="Group_624" data-name="Group 624">
                      <path id="Path_568" data-name="Path 568" d="M462.088,189.154H417.224V144.293h44.864Zm-40.254-4.61h35.641V148.9H421.834Z" transform="translate(-417.224 -144.293)" fill="#dadce0"/>
                    </g>
                  </g>
                  <g id="Group_627" data-name="Group 627" transform="translate(0.674 0.674)">
                    <g id="Group_626" data-name="Group 626">
                      <rect id="Rectangle_313" data-name="Rectangle 313" width="4.612" height="56.925" transform="translate(0 3.261) rotate(-45)" fill="#dadce0"/>
                    </g>
                  </g>
                  <g id="Group_629" data-name="Group 629" transform="translate(0.674 0.674)">
                    <g id="Group_628" data-name="Group 628">
                      <rect id="Rectangle_314" data-name="Rectangle 314" width="56.925" height="4.612" transform="translate(0 40.252) rotate(-45)" fill="#dadce0"/>
                    </g>
                  </g>
                </g>
                <g id="Group_637" data-name="Group 637" transform="translate(0.579 40.251)">
                  <g id="Group_632" data-name="Group 632">
                    <g id="Group_631" data-name="Group 631">
                      <path id="Path_569" data-name="Path 569" d="M462.088,205.571H417.224V160.707h44.864Zm-40.254-4.613h35.641V165.317H421.834Z" transform="translate(-417.224 -160.707)" fill="#dadce0"/>
                    </g>
                  </g>
                  <g id="Group_634" data-name="Group 634" transform="translate(0.674 0.674)">
                    <g id="Group_633" data-name="Group 633">
                      <rect id="Rectangle_315" data-name="Rectangle 315" width="4.612" height="56.925" transform="translate(0 3.261) rotate(-45)" fill="#dadce0"/>
                    </g>
                  </g>
                  <g id="Group_636" data-name="Group 636" transform="translate(0.674 0.674)">
                    <g id="Group_635" data-name="Group 635">
                      <rect id="Rectangle_316" data-name="Rectangle 316" width="56.925" height="4.612" transform="translate(0 40.252) rotate(-45)" fill="#dadce0"/>
                    </g>
                  </g>
                </g>
                <g id="Group_644" data-name="Group 644" transform="translate(0.579 80.502)">
                  <g id="Group_639" data-name="Group 639">
                    <g id="Group_638" data-name="Group 638">
                      <path id="Path_570" data-name="Path 570" d="M462.088,221.985H417.224V177.121h44.864Zm-40.254-4.613h35.641V181.734H421.834Z" transform="translate(-417.224 -177.121)" fill="#dadce0"/>
                    </g>
                  </g>
                  <g id="Group_641" data-name="Group 641" transform="translate(0.674 0.675)">
                    <g id="Group_640" data-name="Group 640">
                      <rect id="Rectangle_317" data-name="Rectangle 317" width="4.612" height="56.925" transform="translate(0 3.261) rotate(-45)" fill="#dadce0"/>
                    </g>
                  </g>
                  <g id="Group_643" data-name="Group 643" transform="translate(0.675 0.674)">
                    <g id="Group_642" data-name="Group 642">
                      <rect id="Rectangle_318" data-name="Rectangle 318" width="56.925" height="4.612" transform="matrix(0.707, -0.707, 0.707, 0.707, 0, 40.254)" fill="#dadce0"/>
                    </g>
                  </g>
                </g>
                <g id="Group_651" data-name="Group 651" transform="translate(0.579 120.753)">
                  <g id="Group_646" data-name="Group 646">
                    <g id="Group_645" data-name="Group 645">
                      <path id="Path_571" data-name="Path 571" d="M462.088,238.4H417.224V193.535h44.864Zm-40.254-4.61h35.641V198.148H421.834Z" transform="translate(-417.224 -193.535)" fill="#dadce0"/>
                    </g>
                  </g>
                  <g id="Group_648" data-name="Group 648" transform="translate(0.674 0.676)">
                    <g id="Group_647" data-name="Group 647">
                      <rect id="Rectangle_319" data-name="Rectangle 319" width="4.612" height="56.925" transform="translate(0 3.261) rotate(-45)" fill="#dadce0"/>
                    </g>
                  </g>
                  <g id="Group_650" data-name="Group 650" transform="translate(0.674 0.676)">
                    <g id="Group_649" data-name="Group 649">
                      <rect id="Rectangle_320" data-name="Rectangle 320" width="56.925" height="4.612" transform="translate(0 40.252) rotate(-45)" fill="#dadce0"/>
                    </g>
                  </g>
                </g>
                <g id="Group_658" data-name="Group 658" transform="translate(0.579 161.007)">
                  <g id="Group_653" data-name="Group 653">
                    <g id="Group_652" data-name="Group 652">
                      <path id="Path_572" data-name="Path 572" d="M462.088,254.811H417.224V209.95h44.864Zm-40.254-4.61h35.641V214.56H421.834Z" transform="translate(-417.224 -209.95)" fill="#dadce0"/>
                    </g>
                  </g>
                  <g id="Group_655" data-name="Group 655" transform="translate(0.674 0.674)">
                    <g id="Group_654" data-name="Group 654">
                      <rect id="Rectangle_321" data-name="Rectangle 321" width="4.612" height="56.925" transform="translate(0 3.261) rotate(-45)" fill="#dadce0"/>
                    </g>
                  </g>
                  <g id="Group_657" data-name="Group 657" transform="translate(0.675 0.673)">
                    <g id="Group_656" data-name="Group 656">
                      <rect id="Rectangle_322" data-name="Rectangle 322" width="56.925" height="4.612" transform="matrix(0.707, -0.707, 0.707, 0.707, 0, 40.253)" fill="#dadce0"/>
                    </g>
                  </g>
                </g>
                <g id="Group_665" data-name="Group 665" transform="translate(0.579 201.258)">
                  <g id="Group_660" data-name="Group 660">
                    <g id="Group_659" data-name="Group 659">
                      <path id="Path_573" data-name="Path 573" d="M462.088,271.228H417.224V226.364h44.864Zm-40.254-4.613h35.641V230.974H421.834Z" transform="translate(-417.224 -226.364)" fill="#dadce0"/>
                    </g>
                  </g>
                  <g id="Group_662" data-name="Group 662" transform="translate(0.674 0.675)">
                    <g id="Group_661" data-name="Group 661">
                      <rect id="Rectangle_323" data-name="Rectangle 323" width="4.612" height="56.925" transform="translate(0 3.261) rotate(-45)" fill="#dadce0"/>
                    </g>
                  </g>
                  <g id="Group_664" data-name="Group 664" transform="translate(0.675 0.674)">
                    <g id="Group_663" data-name="Group 663">
                      <rect id="Rectangle_324" data-name="Rectangle 324" width="56.925" height="4.612" transform="matrix(0.707, -0.707, 0.707, 0.707, 0, 40.254)" fill="#dadce0"/>
                    </g>
                  </g>
                </g>
                <g id="Group_672" data-name="Group 672" transform="translate(0.579 241.509)">
                  <g id="Group_667" data-name="Group 667">
                    <g id="Group_666" data-name="Group 666">
                      <path id="Path_574" data-name="Path 574" d="M462.088,287.642H417.224V242.778h44.864Zm-40.254-4.61h35.641V247.391H421.834Z" transform="translate(-417.224 -242.778)" fill="#dadce0"/>
                    </g>
                  </g>
                  <g id="Group_669" data-name="Group 669" transform="translate(0.674 0.676)">
                    <g id="Group_668" data-name="Group 668">
                      <rect id="Rectangle_325" data-name="Rectangle 325" width="4.612" height="56.925" transform="translate(0 3.261) rotate(-45)" fill="#dadce0"/>
                    </g>
                  </g>
                  <g id="Group_671" data-name="Group 671" transform="translate(0.675 0.675)">
                    <g id="Group_670" data-name="Group 670">
                      <rect id="Rectangle_326" data-name="Rectangle 326" width="56.925" height="4.612" transform="matrix(0.707, -0.707, 0.707, 0.707, 0, 40.253)" fill="#dadce0"/>
                    </g>
                  </g>
                </g>
                <g id="Group_679" data-name="Group 679" transform="translate(0.579 281.763)">
                  <g id="Group_674" data-name="Group 674">
                    <g id="Group_673" data-name="Group 673">
                      <path id="Path_575" data-name="Path 575" d="M462.088,304.054H417.224V259.193h44.864Zm-40.254-4.61h35.641V263.8H421.834Z" transform="translate(-417.224 -259.193)" fill="#dadce0"/>
                    </g>
                  </g>
                  <g id="Group_676" data-name="Group 676" transform="translate(0.674 0.674)">
                    <g id="Group_675" data-name="Group 675">
                      <rect id="Rectangle_327" data-name="Rectangle 327" width="4.612" height="56.925" transform="translate(0 3.261) rotate(-45)" fill="#dadce0"/>
                    </g>
                  </g>
                  <g id="Group_678" data-name="Group 678" transform="translate(0.675 0.673)">
                    <g id="Group_677" data-name="Group 677">
                      <rect id="Rectangle_328" data-name="Rectangle 328" width="56.925" height="4.612" transform="matrix(0.707, -0.707, 0.707, 0.707, 0, 40.254)" fill="#dadce0"/>
                    </g>
                  </g>
                </g>
                <g id="Group_686" data-name="Group 686" transform="translate(0.579 322.014)">
                  <g id="Group_681" data-name="Group 681">
                    <g id="Group_680" data-name="Group 680">
                      <path id="Path_576" data-name="Path 576" d="M462.088,320.471H417.224V275.607h44.864Zm-40.254-4.613h35.641V280.217H421.834Z" transform="translate(-417.224 -275.607)" fill="#dadce0"/>
                    </g>
                  </g>
                  <g id="Group_683" data-name="Group 683" transform="translate(0.674 0.675)">
                    <g id="Group_682" data-name="Group 682">
                      <rect id="Rectangle_329" data-name="Rectangle 329" width="4.612" height="56.925" transform="translate(0 3.261) rotate(-45)" fill="#dadce0"/>
                    </g>
                  </g>
                  <g id="Group_685" data-name="Group 685" transform="translate(0.675 0.674)">
                    <g id="Group_684" data-name="Group 684">
                      <rect id="Rectangle_330" data-name="Rectangle 330" width="56.925" height="4.612" transform="matrix(0.707, -0.707, 0.707, 0.707, 0, 40.253)" fill="#dadce0"/>
                    </g>
                  </g>
                </g>
                <g id="Group_693" data-name="Group 693" transform="translate(0.579 362.265)">
                  <g id="Group_688" data-name="Group 688">
                    <g id="Group_687" data-name="Group 687">
                      <path id="Path_577" data-name="Path 577" d="M462.088,336.885H417.224V292.021h44.864Zm-40.254-4.613h35.641V296.634H421.834Z" transform="translate(-417.224 -292.021)" fill="#dadce0"/>
                    </g>
                  </g>
                  <g id="Group_690" data-name="Group 690" transform="translate(0.674 0.675)">
                    <g id="Group_689" data-name="Group 689">
                      <rect id="Rectangle_331" data-name="Rectangle 331" width="4.613" height="56.925" transform="translate(0 3.262) rotate(-44.999)" fill="#dadce0"/>
                    </g>
                  </g>
                  <g id="Group_692" data-name="Group 692" transform="translate(0.671 0.678)">
                    <g id="Group_691" data-name="Group 691">
                      <rect id="Rectangle_332" data-name="Rectangle 332" width="56.925" height="4.613" transform="translate(0 40.244) rotate(-44.989)" fill="#dadce0"/>
                    </g>
                  </g>
                </g>
              </g>
              <g id="Group_732" data-name="Group 732" transform="translate(0 39.643)">
                <g id="Group_701" data-name="Group 701" transform="translate(241.511)">
                  <g id="Group_696" data-name="Group 696">
                    <g id="Group_695" data-name="Group 695">
                      <path id="Path_578" data-name="Path 578" d="M494.749,205.323H449.885V160.459h44.864Zm-40.251-4.61h35.639V165.072H454.5Z" transform="translate(-449.885 -160.459)" fill="#dadce0"/>
                    </g>
                  </g>
                  <g id="Group_698" data-name="Group 698" transform="translate(0.678 0.672)">
                    <g id="Group_697" data-name="Group 697">
                      <rect id="Rectangle_333" data-name="Rectangle 333" width="56.925" height="4.612" transform="translate(0 40.26) rotate(-45.011)" fill="#dadce0"/>
                    </g>
                  </g>
                  <g id="Group_700" data-name="Group 700" transform="translate(0.675 0.676)">
                    <g id="Group_699" data-name="Group 699">
                      <rect id="Rectangle_334" data-name="Rectangle 334" width="4.612" height="56.925" transform="translate(0 3.261) rotate(-45)" fill="#dadce0"/>
                    </g>
                  </g>
                </g>
                <g id="Group_708" data-name="Group 708" transform="translate(201.26)">
                  <g id="Group_703" data-name="Group 703">
                    <g id="Group_702" data-name="Group 702">
                      <path id="Path_579" data-name="Path 579" d="M478.335,205.323H433.471V160.459h44.864Zm-40.254-4.61h35.641V165.072H438.081Z" transform="translate(-433.471 -160.459)" fill="#dadce0"/>
                    </g>
                  </g>
                  <g id="Group_705" data-name="Group 705" transform="translate(0.678 0.672)">
                    <g id="Group_704" data-name="Group 704">
                      <rect id="Rectangle_335" data-name="Rectangle 335" width="56.925" height="4.612" transform="translate(0 40.259) rotate(-45.011)" fill="#dadce0"/>
                    </g>
                  </g>
                  <g id="Group_707" data-name="Group 707" transform="translate(0.675 0.676)">
                    <g id="Group_706" data-name="Group 706">
                      <rect id="Rectangle_336" data-name="Rectangle 336" width="4.612" height="56.925" transform="translate(0 3.261) rotate(-45)" fill="#dadce0"/>
                    </g>
                  </g>
                </g>
                <g id="Group_710" data-name="Group 710" transform="translate(161.006)">
                  <g id="Group_709" data-name="Group 709">
                    <path id="Path_580" data-name="Path 580" d="M461.92,205.323H417.056V160.459H461.92Zm-40.251-4.61H457.31V165.072H421.669Z" transform="translate(-417.056 -160.459)" fill="#dadce0"/>
                  </g>
                </g>
                <g id="Group_717" data-name="Group 717" transform="translate(120.755)">
                  <g id="Group_712" data-name="Group 712">
                    <g id="Group_711" data-name="Group 711">
                      <path id="Path_581" data-name="Path 581" d="M445.506,205.323H400.642V160.459h44.864Zm-40.251-4.61h35.638V165.072H405.255Z" transform="translate(-400.642 -160.459)" fill="#dadce0"/>
                    </g>
                  </g>
                  <g id="Group_714" data-name="Group 714" transform="translate(0.676 0.676)">
                    <g id="Group_713" data-name="Group 713">
                      <rect id="Rectangle_337" data-name="Rectangle 337" width="56.925" height="4.611" transform="translate(0 40.252) rotate(-45)" fill="#dadce0"/>
                    </g>
                  </g>
                  <g id="Group_716" data-name="Group 716" transform="translate(0.676 0.676)">
                    <g id="Group_715" data-name="Group 715">
                      <rect id="Rectangle_338" data-name="Rectangle 338" width="4.611" height="56.925" transform="translate(0 3.261) rotate(-45)" fill="#dadce0"/>
                    </g>
                  </g>
                </g>
                <g id="Group_724" data-name="Group 724" transform="translate(80.504)">
                  <g id="Group_719" data-name="Group 719">
                    <g id="Group_718" data-name="Group 718">
                      <path id="Path_582" data-name="Path 582" d="M429.092,205.323H384.228V160.459h44.864Zm-40.254-4.61h35.641V165.072H388.838Z" transform="translate(-384.228 -160.459)" fill="#dadce0"/>
                    </g>
                  </g>
                  <g id="Group_721" data-name="Group 721" transform="translate(0.675 0.676)">
                    <g id="Group_720" data-name="Group 720">
                      <rect id="Rectangle_339" data-name="Rectangle 339" width="56.925" height="4.611" transform="translate(0 40.252) rotate(-45)" fill="#dadce0"/>
                    </g>
                  </g>
                  <g id="Group_723" data-name="Group 723" transform="translate(0.675 0.676)">
                    <g id="Group_722" data-name="Group 722">
                      <rect id="Rectangle_340" data-name="Rectangle 340" width="4.611" height="56.925" transform="translate(0 3.261) rotate(-45)" fill="#dadce0"/>
                    </g>
                  </g>
                </g>
                <g id="Group_731" data-name="Group 731">
                  <g id="Group_726" data-name="Group 726" transform="translate(40.251)">
                    <g id="Group_725" data-name="Group 725">
                      <path id="Path_583" data-name="Path 583" d="M412.677,205.323H367.813V160.459h44.864Zm-40.251-4.61h35.641V165.072H372.426Z" transform="translate(-367.813 -160.459)" fill="#dadce0"/>
                    </g>
                  </g>
                  <g id="Group_728" data-name="Group 728" transform="translate(0 0.677)">
                    <g id="Group_727" data-name="Group 727">
                      <path id="Path_584" data-name="Path 584" d="M393.957,204.922H353.7a2.305,2.305,0,0,1-1.628-3.936l40.251-40.251,3.262,3.259L359.27,200.312H393l39.577-39.577,3.262,3.259-40.251,40.254A2.314,2.314,0,0,1,393.957,204.922Z" transform="translate(-351.399 -160.735)" fill="#dadce0"/>
                    </g>
                  </g>
                  <g id="Group_730" data-name="Group 730" transform="translate(40.927 0.676)">
                    <g id="Group_729" data-name="Group 729">
                      <rect id="Rectangle_341" data-name="Rectangle 341" width="4.611" height="56.925" transform="translate(0 3.261) rotate(-45)" fill="#dadce0"/>
                    </g>
                  </g>
                </g>
              </g>
            </g>
            <g id="Group_740" data-name="Group 740" transform="translate(160.84 407.077)">
              <g id="Group_735" data-name="Group 735">
                <g id="Group_734" data-name="Group 734">
                  <path id="Path_585" data-name="Path 585" d="M463.1,355.159H416.988V310.3H463.1Zm-41.374-4.61h36.634V314.908H421.731Z" transform="translate(-416.988 -310.295)" fill="#dadce0"/>
                </g>
              </g>
              <g id="Group_737" data-name="Group 737" transform="translate(0.695 0.676)">
                <g id="Group_736" data-name="Group 736">
                  <path id="Path_586" data-name="Path 586" d="M458.647,354.084l-41.375-40.252,3.352-3.261L462,350.822Z" transform="translate(-417.272 -310.571)" fill="#dadce0"/>
                </g>
              </g>
              <g id="Group_739" data-name="Group 739" transform="translate(0.695 0.676)">
                <g id="Group_738" data-name="Group 738">
                  <path id="Path_587" data-name="Path 587" d="M420.624,354.084l-3.352-3.262,41.375-40.251L462,313.832Z" transform="translate(-417.272 -310.571)" fill="#dadce0"/>
                </g>
              </g>
            </g>
            <g id="Group_747" data-name="Group 747" transform="translate(160.84 568.084)">
              <g id="Group_742" data-name="Group 742">
                <g id="Group_741" data-name="Group 741">
                  <path id="Path_588" data-name="Path 588" d="M463.1,420.816H416.988V375.952H463.1ZM421.731,416.2h36.634V380.565H421.731Z" transform="translate(-416.988 -375.952)" fill="#dadce0"/>
                </g>
              </g>
              <g id="Group_744" data-name="Group 744" transform="translate(0.695 0.676)">
                <g id="Group_743" data-name="Group 743">
                  <path id="Path_589" data-name="Path 589" d="M458.647,419.74l-41.375-40.252,3.352-3.261L462,416.478Z" transform="translate(-417.272 -376.228)" fill="#dadce0"/>
                </g>
              </g>
              <g id="Group_746" data-name="Group 746" transform="translate(0.695 0.676)">
                <g id="Group_745" data-name="Group 745">
                  <path id="Path_590" data-name="Path 590" d="M420.624,419.74l-3.352-3.262,41.375-40.251L462,379.488Z" transform="translate(-417.272 -376.228)" fill="#dadce0"/>
                </g>
              </g>
            </g>
          </g>
          <g id="Group_755" data-name="Group 755" transform="translate(160.84 443.515)">
            <g id="Group_750" data-name="Group 750">
              <g id="Group_749" data-name="Group 749">
                <path id="Path_591" data-name="Path 591" d="M463.1,370.018H416.988V325.154H463.1Zm-41.374-4.613h36.634V329.767H421.731Z" transform="translate(-416.988 -325.154)" fill="#dadce0"/>
              </g>
            </g>
            <g id="Group_752" data-name="Group 752" transform="translate(0.695 0.675)">
              <g id="Group_751" data-name="Group 751">
                <path id="Path_592" data-name="Path 592" d="M458.647,368.942,417.272,328.69l3.352-3.261L462,365.68Z" transform="translate(-417.272 -325.429)" fill="#dadce0"/>
              </g>
            </g>
            <g id="Group_754" data-name="Group 754" transform="translate(0.695 0.675)">
              <g id="Group_753" data-name="Group 753">
                <path id="Path_593" data-name="Path 593" d="M420.624,368.942l-3.352-3.262,41.375-40.251L462,328.69Z" transform="translate(-417.272 -325.429)" fill="#dadce0"/>
              </g>
            </g>
          </g>
          <g id="Group_762" data-name="Group 762" transform="translate(160.84 483.766)">
            <g id="Group_757" data-name="Group 757">
              <g id="Group_756" data-name="Group 756">
                <path id="Path_594" data-name="Path 594" d="M463.1,386.432H416.988V341.568H463.1Zm-41.374-4.613h36.634V346.181H421.731Z" transform="translate(-416.988 -341.568)" fill="#dadce0"/>
              </g>
            </g>
            <g id="Group_759" data-name="Group 759" transform="translate(0.695 0.676)">
              <g id="Group_758" data-name="Group 758">
                <path id="Path_595" data-name="Path 595" d="M458.647,385.357,417.272,345.1l3.352-3.261L462,382.095Z" transform="translate(-417.272 -341.843)" fill="#dadce0"/>
              </g>
            </g>
            <g id="Group_761" data-name="Group 761" transform="translate(0.695 0.676)">
              <g id="Group_760" data-name="Group 760">
                <path id="Path_596" data-name="Path 596" d="M420.624,385.357l-3.352-3.262,41.375-40.251L462,345.1Z" transform="translate(-417.272 -341.843)" fill="#dadce0"/>
              </g>
            </g>
          </g>
          <g id="Group_769" data-name="Group 769" transform="translate(160.84 524.017)">
            <g id="Group_764" data-name="Group 764">
              <g id="Group_763" data-name="Group 763">
                <path id="Path_597" data-name="Path 597" d="M463.1,402.846H416.988V357.982H463.1Zm-41.374-4.61h36.634V362.595H421.731Z" transform="translate(-416.988 -357.982)" fill="#dadce0"/>
              </g>
            </g>
            <g id="Group_766" data-name="Group 766" transform="translate(0.695 0.676)">
              <g id="Group_765" data-name="Group 765">
                <path id="Path_598" data-name="Path 598" d="M458.647,401.771l-41.375-40.252,3.352-3.261L462,398.509Z" transform="translate(-417.272 -358.258)" fill="#dadce0"/>
              </g>
            </g>
            <g id="Group_768" data-name="Group 768" transform="translate(0.695 0.676)">
              <g id="Group_767" data-name="Group 767">
                <path id="Path_599" data-name="Path 599" d="M420.624,401.771l-3.352-3.262,41.375-40.251L462,361.519Z" transform="translate(-417.272 -358.258)" fill="#dadce0"/>
              </g>
            </g>
          </g>
        </g>
      </g>
    </g>
    <g id="Group_774" data-name="Group 774" transform="translate(371.957 380.795)">
      <path id="Path_600" data-name="Path 600" d="M225.921,242.291" transform="translate(-222.236 -238.478)" fill="#405b91"/>
      <g id="Group_773" data-name="Group 773">
        <path id="Path_601" data-name="Path 601" d="M228.1,248.365c4.909,0,4.919-7.629,0-7.629s-4.917,7.629,0,7.629Z" transform="translate(-224.418 -240.736)" fill="#dadce0"/>
      </g>
    </g>
    <g id="Group_776" data-name="Group 776" transform="translate(785.646 301.107)">
      <path id="Path_602" data-name="Path 602" d="M394.619,209.8" transform="translate(-390.935 -205.98)" fill="#dadce0"/>
      <g id="Group_775" data-name="Group 775">
        <path id="Path_603" data-name="Path 603" d="M396.8,215.871c4.909,0,4.919-7.631,0-7.631s-4.917,7.631,0,7.631Z" transform="translate(-393.117 -208.24)" fill="#dadce0"/>
      </g>
    </g>
    <g id="Group_778" data-name="Group 778" transform="translate(956.754 574.076)">
      <path id="Path_604" data-name="Path 604" d="M464.449,321.109h1.7" transform="translate(-460.633 -317.296)" fill="#405b91"/>
      <g id="Group_777" data-name="Group 777">
        <path id="Path_605" data-name="Path 605" d="M466.709,327.183h1.7a3.814,3.814,0,0,0,0-7.629h-1.7a3.814,3.814,0,0,0,0,7.629Z" transform="translate(-462.893 -319.554)" fill="#dadce0"/>
      </g>
    </g>
    <g id="Group_780" data-name="Group 780" transform="translate(221.063 630.024)">
      <path id="Path_606" data-name="Path 606" d="M164.388,343.925" transform="translate(-160.703 -340.109)" fill="#dadce0"/>
      <g id="Group_779" data-name="Group 779">
        <path id="Path_607" data-name="Path 607" d="M166.57,350c4.909,0,4.917-7.629,0-7.629s-4.917,7.629,0,7.629Z" transform="translate(-162.885 -342.369)" fill="#dadce0"/>
      </g>
    </g>
    <g id="Group_782" data-name="Group 782" transform="translate(585.584 263.808)">
      <path id="Path_608" data-name="Path 608" d="M313.036,194.586" transform="translate(-309.351 -190.77)" fill="#dadce0"/>
      <g id="Group_781" data-name="Group 781" transform="translate(0)">
        <path id="Path_609" data-name="Path 609" d="M315.218,200.659c4.909,0,4.917-7.629,0-7.629s-4.917,7.629,0,7.629Z" transform="translate(-311.533 -193.03)" fill="#dadce0"/>
      </g>
    </g>
  </g>
</svg>
