<svg xmlns="http://www.w3.org/2000/svg" xmlns:xlink="http://www.w3.org/1999/xlink" width="165.225" height="96" viewBox="0 0 165.225 96"><defs><style>.chromea,.chromej{fill:#fff;}.chromeb,.chromei{fill:#073d83;}.chromec{fill:url(#a);}.chromed{fill:url(#b);}.chromee{fill:url(#c);}.chromef{fill:url(#d);}.chromeg{fill:url(#e);}.chromeh{fill:url(#f);}.chromei,.chromej{fill-rule:evenodd;}</style><linearGradient id="a" x1="-5.062" y1="20.093" x2="-5.062" y2="20.105" gradientUnits="objectBoundingBox"><stop offset="0" stop-color="#f06b59"/><stop offset="1" stop-color="#df2227"/></linearGradient><linearGradient id="b" x1="-6.405" y1="14.479" x2="-6.401" y2="14.474" gradientUnits="objectBoundingBox"><stop offset="0" stop-color="#388b41"/><stop offset="1" stop-color="#4cb749"/></linearGradient><linearGradient id="c" x1="-8.745" y1="15.497" x2="-8.752" y2="15.488" gradientUnits="objectBoundingBox"><stop offset="0" stop-color="#e4b022"/><stop offset="0.3" stop-color="#fcd209"/></linearGradient><linearGradient id="d" x1="-20.104" y1="30.788" x2="-20.104" y2="30.763" gradientUnits="objectBoundingBox"><stop offset="0" stop-opacity="0.149"/><stop offset="0.3" stop-opacity="0.059"/><stop offset="1" stop-opacity="0.031"/></linearGradient><linearGradient id="e" x1="-21.331" y1="29.918" x2="-21.377" y2="29.935" xlink:href="#d"/><linearGradient id="f" x1="-10.314" y1="122.034" x2="-10.313" y2="121.593" xlink:href="#d"/></defs><g transform="translate(-12.088 -7.007)"><circle class="chromea" cx="47.17" cy="47.17" r="47.17" transform="translate(12.907 8.022)"/><circle class="chromeb" cx="17.589" cy="17.589" r="17.589" transform="translate(42.488 37.604)"/><path class="chromec" d="M103.05,33.706A48.132,48.132,0,0,0,38.591,12.02,47.639,47.639,0,0,0,20.2,28.11L39.49,61.588A21.365,21.365,0,0,1,53.361,34.746l.119-.038a21.649,21.649,0,0,1,6.1-1"/><path class="chromed" d="M20.2,28.11A48.089,48.089,0,0,0,56.28,102.763L76.467,68.384A21.42,21.42,0,0,1,39.59,61.49"/><path class="chromee" d="M56.18,102.862a48.005,48.005,0,0,0,46.77-69.056H59.678A21.493,21.493,0,0,1,76.467,68.584"/><path class="chromef" d="M20.2,28.11,39.49,61.588a21.565,21.565,0,0,1,.9-14.59L21,26.812"/><path class="chromeg" d="M56.18,102.862,76.367,68.484a21.4,21.4,0,0,1-12.493,7.3L55.28,102.862"/><path class="chromeh" d="M103.05,33.706H59.676A21.406,21.406,0,0,1,76.465,41.9l27.383-6.894"/><path class="chromei" d="M131.118,98.153V96.171a8.875,8.875,0,0,1,.944-3.823c.084-.169.17-.348.261-.537a16.671,16.671,0,0,1,1.053-1.953c1.33-2.292,1.606-4.148.822-5.515-1.032-1.8-4.014-2.962-7.6-2.962-3.876,0-7.309,1.358-8.35,3.3-.652,1.218-.356,2.776.88,4.63a20.6,20.6,0,0,1,1.808,3.127,6.59,6.59,0,0,1,.571,3.991l-.316,1.579H90.133a5.1,5.1,0,0,1-5.154-5.031v-19.2l.033-.179A9.116,9.116,0,0,1,87.259,68.7a5.458,5.458,0,0,1,3.967-1.626,9.8,9.8,0,0,1,4.306,1.2v-.194l3.053,2.036a6.677,6.677,0,0,0,3.819,1.266,6.541,6.541,0,0,0,4.883-2.748,10.6,10.6,0,0,0,2.234-6.333c0-4.33-3.193-7.853-7.117-7.853a10.034,10.034,0,0,0-4.939,2.169l0,0,0,0a10.113,10.113,0,0,1-5.982,2.427A5.6,5.6,0,0,1,87.2,57.134a9.439,9.439,0,0,1-2.07-4.657L85.1,52.3V39.846a5.1,5.1,0,0,1,5.154-5.031h18.287c3.475-.433,3.891-1.222,3.895-1.23a1.741,1.741,0,0,0-.215-1.008,21.151,21.151,0,0,0-1.577-2.811c-1.332-2.137-2.842-4.56-2.842-7.1a9.164,9.164,0,0,1,1.126-4.381,11.2,11.2,0,0,1,2.872-3.406,13.991,13.991,0,0,1,8.642-3.012,12.716,12.716,0,0,1,8.394,3.063,10.779,10.779,0,0,1,2.64,3.43,9.815,9.815,0,0,1,.992,4.306c0,2.669-1.469,5.127-2.765,7.3a20.212,20.212,0,0,0-1.458,2.712,1.644,1.644,0,0,0-.186.92c0,.007.422.781,3.915,1.221h14.483a5.1,5.1,0,0,1,5.153,5.031V51.968c.37,2.335,1.205,3.85,2.193,3.966l.044.005.043.007a3.217,3.217,0,0,0,.526.043,8.625,8.625,0,0,0,3.937-1.548,12.886,12.886,0,0,1,6.536-2.24,10.263,10.263,0,0,1,5.415,1.676h0a10.312,10.312,0,0,1,4.561,6,13,13,0,0,1-.051,7.17,13.334,13.334,0,0,1-3.63,6.092,9.728,9.728,0,0,1-6.7,2.722,11.667,11.667,0,0,1-6.033-1.82l-.018-.011-.018-.011-.2-.124c-1.747-1.1-3.726-2.355-4.81-2.355-.779,0-1.449,1.678-1.8,4.5V92.98a5.1,5.1,0,0,1-5.143,5.031l-13.368.123Z"/><path class="chromej" d="M133.082,96.171l13.376-.123a3.143,3.143,0,0,0,3.19-3.068V75.924c1.105-9.2,5.154-6.505,9.817-3.559,11.413,6.871,19.02-11.167,9.817-16.812-6.846-4.177-10.072,2.4-14.865,2.4a5.2,5.2,0,0,1-.842-.069c-2.086-.245-3.436-2.454-3.927-5.767V39.846a3.144,3.144,0,0,0-3.19-3.068h-14.6c-12.149-1.473-1.35-7.976-1.35-14.112,0-4.908-4.54-8.835-10.062-8.835s-10.676,3.927-10.676,8.835c0,5.767,11.166,12.639-1.1,14.112H90.255a3.144,3.144,0,0,0-3.19,3.068V52.117c.981,5.277,4.54,6.5,9.2,2.945,1.6-1.227,4.173-2.576,6.136-2.576,5.031,0,9.08,4.417,9.08,9.816s-4.049,11.044-9.08,11.044a8.673,8.673,0,0,1-4.909-1.6c0,.227-3.3-2.709-6.269-2.709-1.854,0-3.576,1.144-4.284,4.918V92.98a3.144,3.144,0,0,0,3.191,3.068h29.451c.367-1.841-.86-3.8-2.087-5.645-9.326-13.989,26.874-15.461,17.548.491a21.534,21.534,0,0,0-1.227,2.331,6.958,6.958,0,0,0-.736,2.946m-3.928,3.963V96.171a10.913,10.913,0,0,1,1.151-4.7c.078-.156.161-.328.248-.51a18.909,18.909,0,0,1,1.149-2.129c.457-.8,1.337-2.563.793-3.511-.564-.982-2.769-1.975-5.894-1.975a12.537,12.537,0,0,0-4.586.816,4.121,4.121,0,0,0-2.033,1.45c-.386.72.419,2.068.783,2.614a22.192,22.192,0,0,1,1.974,3.432,8.584,8.584,0,0,1,.7,5.16l-.63,3.158H90.133a7.065,7.065,0,0,1-7.118-6.995V73.6l.067-.359a10.983,10.983,0,0,1,2.782-5.914,7.384,7.384,0,0,1,5.362-2.207,9.525,9.525,0,0,1,2.342.308V64.412l6.106,4.072a4.755,4.755,0,0,0,2.73.935,4.55,4.55,0,0,0,3.34-2,8.576,8.576,0,0,0,1.813-5.119c0-3.247-2.312-5.889-5.153-5.889a8.6,8.6,0,0,0-3.741,1.762l-.012.009a11.985,11.985,0,0,1-7.173,2.83,7.62,7.62,0,0,1-5.735-2.568,11.343,11.343,0,0,1-2.539-5.61l-.067-.356V39.846a7.065,7.065,0,0,1,7.118-6.995h18.163a14.929,14.929,0,0,0,1.614-.288c-.324-.587-.748-1.268-1.054-1.759-1.471-2.36-3.139-5.036-3.139-8.138a11.1,11.1,0,0,1,1.361-5.311,13.14,13.14,0,0,1,3.369-4,15.426,15.426,0,0,1,4.568-2.533,15.888,15.888,0,0,1,5.306-.914,14.673,14.673,0,0,1,9.686,3.547,12.728,12.728,0,0,1,3.116,4.054,11.762,11.762,0,0,1,1.188,5.161c0,3.211-1.688,6.035-3.044,8.3-.279.468-.636,1.065-.92,1.591a15.394,15.394,0,0,0,1.632.291h14.357a7.065,7.065,0,0,1,7.117,6.995V51.808a5.527,5.527,0,0,0,.741,2.214c.033,0,.067,0,.1,0a7.929,7.929,0,0,0,2.959-1.288,14.687,14.687,0,0,1,7.514-2.5,12.33,12.33,0,0,1,6.438,1.964l.008.005a12.235,12.235,0,0,1,5.419,7.127,14.963,14.963,0,0,1-.046,8.253,15.336,15.336,0,0,1-4.182,7,11.661,11.661,0,0,1-8.042,3.248,13.594,13.594,0,0,1-7.046-2.1l-.071-.044-.2-.124c-.941-.594-1.829-1.156-2.6-1.558-.193-.1-.36-.181-.5-.245a13.249,13.249,0,0,0-.5,2.409V92.98a7.064,7.064,0,0,1-7.1,6.995Z"/><path class="chromej" d="M99.691,60l.652,2.575L107.869,66l1.337-9.908-7.528,2.119Z"/></g></svg>