<svg id="svg" version="1.1" xmlns="http://www.w3.org/2000/svg" xmlns:xlink="http://www.w3.org/1999/xlink" width="400" height="400" viewBox="0, 0, 400,400"><g id="svgg"><path id="path0" d="M121.597 121.597 C 113.459 129.736,106.800 136.490,106.800 136.606 C 106.800 136.723,120.930 150.940,138.200 168.201 C 155.470 185.462,169.600 199.801,169.600 200.066 C 169.600 200.331,155.875 214.267,139.100 231.035 C 122.325 247.803,108.175 261.978,107.656 262.534 L 106.713 263.545 121.694 278.524 L 136.676 293.503 167.838 262.319 C 184.977 245.169,199.317 230.963,199.705 230.751 C 200.298 230.427,205.403 235.365,231.918 261.913 L 263.426 293.460 278.467 278.417 L 293.508 263.375 262.154 232.035 C 244.909 214.798,230.800 200.395,230.800 200.028 C 230.800 199.661,244.908 185.256,262.151 168.018 L 293.502 136.676 278.524 121.694 L 263.545 106.713 262.534 107.656 C 261.978 108.175,247.798 122.330,231.024 139.111 C 208.581 161.564,200.353 169.557,199.876 169.374 C 199.518 169.237,185.213 155.101,168.085 137.962 C 150.957 120.823,136.820 106.800,136.669 106.800 C 136.518 106.800,129.736 113.459,121.597 121.597 " stroke="none" fill="#fcfcfc" fill-rule="evenodd"></path><path id="path1" d="M180.300 0.272 C 178.155 0.358,176.400 0.602,176.400 0.814 C 176.400 1.030,174.987 1.200,173.200 1.200 C 171.333 1.200,170.000 1.367,170.000 1.600 C 170.000 1.822,168.933 2.000,167.600 2.000 C 166.267 2.000,165.200 2.178,165.200 2.400 C 165.200 2.620,164.210 2.800,163.000 2.800 C 161.790 2.800,160.800 2.980,160.800 3.200 C 160.800 3.420,160.001 3.600,159.024 3.600 C 158.047 3.600,157.136 3.780,157.000 4.000 C 156.864 4.220,156.043 4.400,155.176 4.400 C 154.309 4.400,153.600 4.580,153.600 4.800 C 153.600 5.020,152.880 5.200,152.000 5.200 C 151.120 5.200,150.400 5.380,150.400 5.600 C 150.400 5.820,149.680 6.000,148.800 6.000 C 147.920 6.000,147.200 6.180,147.200 6.400 C 147.200 6.620,146.671 6.800,146.024 6.800 C 145.377 6.800,144.736 6.980,144.600 7.200 C 144.464 7.420,143.823 7.600,143.176 7.600 C 142.529 7.600,142.000 7.757,142.000 7.948 C 142.000 8.140,141.071 8.420,139.936 8.571 C 138.800 8.721,137.520 9.091,137.090 9.392 C 136.660 9.693,136.077 9.851,135.795 9.743 C 135.512 9.634,135.162 9.738,135.017 9.973 C 134.872 10.208,134.223 10.400,133.576 10.400 C 132.929 10.400,132.400 10.580,132.400 10.800 C 132.400 11.020,132.038 11.200,131.595 11.200 C 131.152 11.200,130.477 11.359,130.095 11.553 C 129.713 11.748,128.860 12.129,128.200 12.400 C 127.540 12.671,126.687 13.052,126.305 13.247 C 125.923 13.441,125.248 13.600,124.805 13.600 C 124.362 13.600,124.000 13.780,124.000 14.000 C 124.000 14.220,123.640 14.400,123.200 14.400 C 122.760 14.400,122.400 14.547,122.400 14.728 C 122.400 14.908,121.500 15.300,120.400 15.600 C 119.300 15.900,118.400 16.292,118.400 16.472 C 118.400 16.653,118.040 16.800,117.600 16.800 C 117.160 16.800,116.800 16.980,116.800 17.200 C 116.800 17.420,116.440 17.600,116.000 17.600 C 115.560 17.600,115.200 17.780,115.200 18.000 C 115.200 18.220,114.840 18.400,114.400 18.400 C 113.960 18.400,113.600 18.580,113.600 18.800 C 113.600 19.020,113.240 19.200,112.800 19.200 C 112.360 19.200,112.000 19.380,112.000 19.600 C 112.000 19.820,111.640 20.000,111.200 20.000 C 110.760 20.000,110.400 20.180,110.400 20.400 C 110.400 20.620,110.040 20.800,109.600 20.800 C 109.160 20.800,108.800 20.980,108.800 21.200 C 108.800 21.420,108.530 21.600,108.200 21.600 C 107.870 21.600,107.600 21.780,107.600 22.000 C 107.600 22.220,107.240 22.400,106.800 22.400 C 106.360 22.400,106.000 22.580,106.000 22.800 C 106.000 23.020,105.640 23.200,105.200 23.200 C 104.760 23.200,104.400 23.380,104.400 23.600 C 104.400 23.820,104.040 24.000,103.600 24.000 C 103.160 24.000,102.800 24.180,102.800 24.400 C 102.800 24.620,102.526 24.800,102.192 24.800 C 101.858 24.800,100.913 25.212,100.092 25.716 C 99.271 26.219,97.745 27.074,96.700 27.615 C 95.655 28.156,94.800 28.734,94.800 28.899 C 94.800 29.065,94.532 29.200,94.203 29.200 C 93.875 29.200,93.382 29.560,93.107 30.000 C 92.832 30.440,92.291 30.800,91.904 30.800 C 91.517 30.800,91.200 30.980,91.200 31.200 C 91.200 31.420,90.964 31.600,90.675 31.600 C 90.387 31.600,89.764 31.960,89.292 32.400 C 88.820 32.840,88.244 33.200,88.013 33.200 C 87.782 33.200,87.028 33.740,86.337 34.400 C 85.646 35.060,84.878 35.600,84.629 35.600 C 84.380 35.600,83.917 35.960,83.600 36.400 C 83.283 36.840,82.791 37.200,82.508 37.200 C 82.225 37.200,81.428 37.740,80.737 38.400 C 80.046 39.060,79.304 39.600,79.088 39.600 C 78.871 39.600,78.403 39.917,78.047 40.304 C 77.691 40.692,76.770 41.484,76.000 42.064 C 75.230 42.644,74.203 43.497,73.717 43.959 C 73.231 44.422,72.662 44.800,72.452 44.800 C 72.242 44.800,70.973 45.880,69.632 47.200 C 68.292 48.520,67.031 49.600,66.831 49.600 C 66.630 49.600,64.731 51.310,62.610 53.400 C 60.490 55.490,58.861 57.200,58.991 57.200 C 59.122 57.200,58.817 57.626,58.314 58.146 C 57.811 58.667,57.339 59.041,57.264 58.977 C 57.042 58.788,50.678 65.281,49.602 66.795 C 49.057 67.562,47.753 69.065,46.705 70.135 C 45.657 71.205,44.800 72.267,44.800 72.494 C 44.800 72.721,44.476 73.197,44.079 73.553 C 43.683 73.909,42.828 74.916,42.179 75.791 C 41.531 76.666,40.505 77.908,39.900 78.550 C 39.295 79.193,38.800 79.922,38.800 80.171 C 38.800 80.420,38.440 80.883,38.000 81.200 C 37.560 81.517,37.200 82.009,37.200 82.292 C 37.200 82.575,36.660 83.372,36.000 84.063 C 35.340 84.754,34.800 85.522,34.800 85.771 C 34.800 86.020,34.440 86.483,34.000 86.800 C 33.560 87.117,33.200 87.657,33.200 88.000 C 33.200 88.343,32.840 88.883,32.400 89.200 C 31.960 89.517,31.600 90.014,31.600 90.305 C 31.600 90.596,31.269 91.189,30.864 91.623 C 30.459 92.058,29.874 92.905,29.564 93.507 C 29.254 94.108,28.764 94.849,28.476 95.153 C 28.187 95.457,27.673 96.402,27.332 97.253 C 26.992 98.104,26.542 98.800,26.333 98.800 C 26.124 98.800,26.064 98.980,26.200 99.200 C 26.336 99.420,26.302 99.601,26.124 99.603 C 25.746 99.607,24.800 101.520,24.800 102.280 C 24.800 102.566,24.620 102.800,24.400 102.800 C 24.180 102.800,24.000 103.145,24.000 103.567 C 24.000 103.988,23.865 104.393,23.700 104.467 C 23.324 104.634,22.025 106.764,21.729 107.700 C 21.607 108.085,21.348 108.400,21.153 108.400 C 20.959 108.400,20.800 108.745,20.800 109.167 C 20.800 109.588,20.665 109.993,20.500 110.067 C 20.335 110.140,19.775 111.100,19.256 112.200 C 18.737 113.300,18.152 114.513,17.956 114.895 C 17.760 115.277,17.600 115.862,17.600 116.195 C 17.600 116.528,17.420 116.800,17.200 116.800 C 16.980 116.800,16.800 117.160,16.800 117.600 C 16.800 118.040,16.620 118.400,16.400 118.400 C 16.180 118.400,16.000 118.760,16.000 119.200 C 16.000 119.640,15.853 120.000,15.672 120.000 C 15.492 120.000,15.100 120.900,14.800 122.000 C 14.500 123.100,14.108 124.000,13.928 124.000 C 13.747 124.000,13.600 124.279,13.600 124.619 C 13.600 124.960,13.240 125.984,12.800 126.894 C 12.360 127.805,12.000 128.861,12.000 129.242 C 12.000 129.622,11.857 129.993,11.682 130.067 C 11.355 130.204,9.004 137.031,8.995 137.872 C 8.992 138.131,8.857 138.476,8.695 138.638 C 8.533 138.801,8.400 139.443,8.400 140.067 C 8.400 140.690,8.220 141.200,8.000 141.200 C 7.780 141.200,7.600 141.830,7.600 142.600 C 7.600 143.370,7.420 144.000,7.200 144.000 C 6.980 144.000,6.800 144.630,6.800 145.400 C 6.800 146.170,6.620 146.800,6.400 146.800 C 6.180 146.800,6.000 147.430,6.000 148.200 C 6.000 148.970,5.820 149.600,5.600 149.600 C 5.380 149.600,5.200 150.309,5.200 151.176 C 5.200 152.043,5.020 152.864,4.800 153.000 C 4.580 153.136,4.400 154.047,4.400 155.024 C 4.400 156.001,4.220 156.800,4.000 156.800 C 3.780 156.800,3.600 157.520,3.600 158.400 C 3.600 159.280,3.420 160.000,3.200 160.000 C 2.980 160.000,2.800 160.990,2.800 162.200 C 2.800 163.410,2.620 164.400,2.400 164.400 C 2.180 164.400,2.000 165.379,2.000 166.576 C 2.000 167.773,1.820 168.864,1.600 169.000 C 1.380 169.136,1.200 170.482,1.200 171.990 C 1.200 173.829,1.035 174.788,0.700 174.900 C -0.032 175.144,-0.032 224.856,0.700 225.100 C 1.035 225.212,1.200 226.171,1.200 228.010 C 1.200 229.518,1.380 230.864,1.600 231.000 C 1.820 231.136,2.000 232.227,2.000 233.424 C 2.000 234.621,2.180 235.600,2.400 235.600 C 2.620 235.600,2.800 236.590,2.800 237.800 C 2.800 239.010,2.980 240.000,3.200 240.000 C 3.420 240.000,3.600 240.720,3.600 241.600 C 3.600 242.480,3.780 243.200,4.000 243.200 C 4.220 243.200,4.400 243.999,4.400 244.976 C 4.400 245.953,4.580 246.864,4.800 247.000 C 5.020 247.136,5.200 247.957,5.200 248.824 C 5.200 249.691,5.380 250.400,5.600 250.400 C 5.820 250.400,6.000 251.030,6.000 251.800 C 6.000 252.570,6.180 253.200,6.400 253.200 C 6.620 253.200,6.800 253.830,6.800 254.600 C 6.800 255.370,6.980 256.000,7.200 256.000 C 7.420 256.000,7.600 256.630,7.600 257.400 C 7.600 258.170,7.780 258.800,8.000 258.800 C 8.220 258.800,8.400 259.310,8.400 259.933 C 8.400 260.557,8.533 261.199,8.695 261.362 C 8.857 261.524,8.992 261.869,8.995 262.128 C 9.004 262.969,11.355 269.796,11.682 269.933 C 11.857 270.007,12.000 270.378,12.000 270.758 C 12.000 271.139,12.360 272.195,12.800 273.106 C 13.240 274.016,13.600 275.040,13.600 275.381 C 13.600 275.721,13.747 276.000,13.928 276.000 C 14.108 276.000,14.500 276.900,14.800 278.000 C 15.100 279.100,15.492 280.000,15.672 280.000 C 15.853 280.000,16.000 280.360,16.000 280.800 C 16.000 281.240,16.180 281.600,16.400 281.600 C 16.620 281.600,16.800 281.960,16.800 282.400 C 16.800 282.840,16.980 283.200,17.200 283.200 C 17.420 283.200,17.600 283.472,17.600 283.805 C 17.600 284.138,17.760 284.723,17.956 285.105 C 18.152 285.487,18.737 286.700,19.256 287.800 C 19.775 288.900,20.335 289.860,20.500 289.933 C 20.665 290.007,20.800 290.397,20.800 290.800 C 20.800 291.203,20.935 291.593,21.100 291.667 C 21.476 291.834,22.775 293.964,23.071 294.900 C 23.193 295.285,23.452 295.600,23.647 295.600 C 23.841 295.600,24.000 295.960,24.000 296.400 C 24.000 296.840,24.180 297.200,24.400 297.200 C 24.620 297.200,24.800 297.434,24.800 297.720 C 24.800 298.480,25.746 300.393,26.124 300.397 C 26.302 300.399,26.336 300.580,26.200 300.800 C 26.064 301.020,26.124 301.200,26.333 301.200 C 26.542 301.200,26.992 301.896,27.332 302.747 C 27.673 303.598,28.187 304.543,28.476 304.847 C 28.764 305.151,29.254 305.892,29.564 306.493 C 29.874 307.095,30.459 307.942,30.864 308.377 C 31.269 308.811,31.600 309.404,31.600 309.695 C 31.600 309.986,31.960 310.483,32.400 310.800 C 32.840 311.117,33.200 311.657,33.200 312.000 C 33.200 312.343,33.560 312.883,34.000 313.200 C 34.440 313.517,34.800 313.980,34.800 314.229 C 34.800 314.478,35.340 315.246,36.000 315.937 C 36.660 316.628,37.200 317.425,37.200 317.708 C 37.200 317.991,37.560 318.483,38.000 318.800 C 38.440 319.117,38.800 319.580,38.800 319.829 C 38.800 320.078,39.295 320.807,39.900 321.450 C 40.505 322.092,41.531 323.334,42.179 324.209 C 42.828 325.084,43.683 326.091,44.079 326.447 C 44.476 326.803,44.800 327.279,44.800 327.506 C 44.800 327.733,45.657 328.795,46.705 329.865 C 47.753 330.935,49.055 332.438,49.598 333.205 C 50.605 334.627,56.773 340.831,58.442 342.100 C 58.949 342.485,59.226 342.800,59.059 342.800 C 58.891 342.800,60.490 344.510,62.610 346.600 C 64.731 348.690,66.630 350.400,66.831 350.400 C 67.031 350.400,68.292 351.480,69.632 352.800 C 70.973 354.120,72.258 355.200,72.488 355.200 C 72.718 355.200,73.197 355.524,73.553 355.921 C 73.909 356.317,74.920 357.170,75.800 357.816 C 76.680 358.462,77.691 359.308,78.047 359.696 C 78.403 360.083,78.871 360.400,79.088 360.400 C 79.304 360.400,80.046 360.940,80.737 361.600 C 81.428 362.260,82.225 362.800,82.508 362.800 C 82.791 362.800,83.283 363.160,83.600 363.600 C 83.917 364.040,84.380 364.400,84.629 364.400 C 84.878 364.400,85.646 364.940,86.337 365.600 C 87.028 366.260,87.782 366.800,88.013 366.800 C 88.244 366.800,88.820 367.160,89.292 367.600 C 89.764 368.040,90.387 368.400,90.675 368.400 C 90.964 368.400,91.200 368.580,91.200 368.800 C 91.200 369.020,91.517 369.200,91.904 369.200 C 92.291 369.200,92.832 369.560,93.107 370.000 C 93.382 370.440,93.875 370.800,94.203 370.800 C 94.532 370.800,94.800 370.935,94.800 371.101 C 94.800 371.266,95.655 371.843,96.700 372.384 C 97.745 372.924,99.227 373.778,99.993 374.283 C 100.759 374.787,101.704 375.200,102.093 375.200 C 102.482 375.200,102.800 375.380,102.800 375.600 C 102.800 375.820,103.160 376.000,103.600 376.000 C 104.040 376.000,104.400 376.180,104.400 376.400 C 104.400 376.620,104.760 376.800,105.200 376.800 C 105.640 376.800,106.000 376.980,106.000 377.200 C 106.000 377.420,106.360 377.600,106.800 377.600 C 107.240 377.600,107.600 377.780,107.600 378.000 C 107.600 378.220,107.870 378.400,108.200 378.400 C 108.530 378.400,108.800 378.580,108.800 378.800 C 108.800 379.020,109.160 379.200,109.600 379.200 C 110.040 379.200,110.400 379.380,110.400 379.600 C 110.400 379.820,110.760 380.000,111.200 380.000 C 111.640 380.000,112.000 380.180,112.000 380.400 C 112.000 380.620,112.360 380.800,112.800 380.800 C 113.240 380.800,113.600 380.980,113.600 381.200 C 113.600 381.420,113.960 381.600,114.400 381.600 C 114.840 381.600,115.200 381.780,115.200 382.000 C 115.200 382.220,115.560 382.400,116.000 382.400 C 116.440 382.400,116.800 382.580,116.800 382.800 C 116.800 383.020,117.160 383.200,117.600 383.200 C 118.040 383.200,118.400 383.347,118.400 383.528 C 118.400 383.708,119.300 384.100,120.400 384.400 C 121.500 384.700,122.400 385.092,122.400 385.272 C 122.400 385.453,122.760 385.600,123.200 385.600 C 123.640 385.600,124.000 385.780,124.000 386.000 C 124.000 386.220,124.362 386.400,124.805 386.400 C 125.248 386.400,125.923 386.559,126.305 386.753 C 126.687 386.948,127.540 387.329,128.200 387.600 C 128.860 387.871,129.713 388.252,130.095 388.447 C 130.477 388.641,131.152 388.800,131.595 388.800 C 132.038 388.800,132.400 388.980,132.400 389.200 C 132.400 389.420,132.929 389.600,133.576 389.600 C 134.223 389.600,134.864 389.780,135.000 390.000 C 135.136 390.220,135.676 390.400,136.200 390.400 C 136.724 390.400,137.256 390.567,137.383 390.772 C 137.509 390.977,138.600 391.267,139.806 391.418 C 141.013 391.569,142.000 391.851,142.000 392.046 C 142.000 392.241,142.529 392.400,143.176 392.400 C 143.823 392.400,144.464 392.580,144.600 392.800 C 144.736 393.020,145.377 393.200,146.024 393.200 C 146.671 393.200,147.200 393.380,147.200 393.600 C 147.200 393.820,147.920 394.000,148.800 394.000 C 149.680 394.000,150.400 394.180,150.400 394.400 C 150.400 394.620,151.120 394.800,152.000 394.800 C 152.880 394.800,153.600 394.980,153.600 395.200 C 153.600 395.420,154.309 395.600,155.176 395.600 C 156.043 395.600,156.864 395.780,157.000 396.000 C 157.136 396.220,158.047 396.400,159.024 396.400 C 160.001 396.400,160.800 396.580,160.800 396.800 C 160.800 397.020,161.790 397.200,163.000 397.200 C 164.210 397.200,165.200 397.380,165.200 397.600 C 165.200 397.822,166.267 398.000,167.600 398.000 C 168.933 398.000,170.000 398.178,170.000 398.400 C 170.000 398.633,171.322 398.800,173.167 398.800 C 175.344 398.800,176.385 398.956,176.500 399.300 C 176.631 399.692,181.672 399.800,199.913 399.800 C 217.977 399.800,223.271 399.689,223.660 399.300 C 223.969 398.991,225.277 398.800,227.080 398.800 C 228.760 398.800,230.000 398.630,230.000 398.400 C 230.000 398.178,231.067 398.000,232.400 398.000 C 233.733 398.000,234.800 397.822,234.800 397.600 C 234.800 397.380,235.790 397.200,237.000 397.200 C 238.210 397.200,239.200 397.020,239.200 396.800 C 239.200 396.580,239.999 396.400,240.976 396.400 C 241.953 396.400,242.864 396.220,243.000 396.000 C 243.136 395.780,243.957 395.600,244.824 395.600 C 245.691 395.600,246.400 395.420,246.400 395.200 C 246.400 394.980,247.120 394.800,248.000 394.800 C 248.880 394.800,249.600 394.620,249.600 394.400 C 249.600 394.180,250.320 394.000,251.200 394.000 C 252.080 394.000,252.800 393.820,252.800 393.600 C 252.800 393.380,253.329 393.200,253.976 393.200 C 254.623 393.200,255.264 393.020,255.400 392.800 C 255.536 392.580,256.166 392.400,256.800 392.400 C 257.434 392.400,258.056 392.233,258.183 392.028 C 258.309 391.823,259.400 391.533,260.606 391.382 C 261.813 391.231,262.800 390.949,262.800 390.754 C 262.800 390.559,263.239 390.400,263.776 390.400 C 264.313 390.400,264.864 390.220,265.000 390.000 C 265.136 389.780,265.777 389.600,266.424 389.600 C 267.071 389.600,267.600 389.420,267.600 389.200 C 267.600 388.980,267.962 388.800,268.405 388.800 C 268.848 388.800,269.523 388.641,269.905 388.447 C 270.287 388.252,271.140 387.871,271.800 387.600 C 272.460 387.329,273.313 386.948,273.695 386.753 C 274.077 386.559,274.752 386.400,275.195 386.400 C 275.638 386.400,276.000 386.220,276.000 386.000 C 276.000 385.780,276.360 385.600,276.800 385.600 C 277.240 385.600,277.600 385.453,277.600 385.272 C 277.600 385.092,278.500 384.700,279.600 384.400 C 280.700 384.100,281.600 383.708,281.600 383.528 C 281.600 383.347,281.960 383.200,282.400 383.200 C 282.840 383.200,283.200 383.020,283.200 382.800 C 283.200 382.580,283.560 382.400,284.000 382.400 C 284.440 382.400,284.800 382.220,284.800 382.000 C 284.800 381.780,285.160 381.600,285.600 381.600 C 286.040 381.600,286.400 381.420,286.400 381.200 C 286.400 380.980,286.760 380.800,287.200 380.800 C 287.640 380.800,288.000 380.620,288.000 380.400 C 288.000 380.180,288.360 380.000,288.800 380.000 C 289.240 380.000,289.600 379.820,289.600 379.600 C 289.600 379.380,289.960 379.200,290.400 379.200 C 290.840 379.200,291.200 379.020,291.200 378.800 C 291.200 378.580,291.470 378.400,291.800 378.400 C 292.130 378.400,292.400 378.220,292.400 378.000 C 292.400 377.780,292.760 377.600,293.200 377.600 C 293.640 377.600,294.000 377.420,294.000 377.200 C 294.000 376.980,294.360 376.800,294.800 376.800 C 295.240 376.800,295.600 376.620,295.600 376.400 C 295.600 376.180,295.960 376.000,296.400 376.000 C 296.840 376.000,297.200 375.820,297.200 375.600 C 297.200 375.380,297.520 375.200,297.911 375.200 C 298.302 375.200,298.995 374.939,299.451 374.620 C 299.906 374.300,301.341 373.461,302.640 372.754 C 303.938 372.047,305.090 371.363,305.200 371.234 C 305.310 371.104,305.895 370.744,306.500 370.432 C 307.105 370.120,307.600 369.715,307.600 369.532 C 307.600 369.350,307.870 369.200,308.200 369.200 C 308.530 369.200,308.800 369.020,308.800 368.800 C 308.800 368.580,309.036 368.400,309.325 368.400 C 309.613 368.400,310.236 368.040,310.708 367.600 C 311.180 367.160,311.756 366.800,311.987 366.800 C 312.218 366.800,312.972 366.260,313.663 365.600 C 314.354 364.940,315.122 364.400,315.371 364.400 C 315.620 364.400,316.083 364.040,316.400 363.600 C 316.717 363.160,317.209 362.800,317.492 362.800 C 317.775 362.800,318.572 362.260,319.263 361.600 C 319.954 360.940,320.696 360.400,320.912 360.400 C 321.129 360.400,321.597 360.083,321.953 359.696 C 322.309 359.308,323.320 358.462,324.200 357.816 C 325.080 357.170,326.091 356.317,326.447 355.921 C 326.803 355.524,327.282 355.200,327.512 355.200 C 327.742 355.200,329.027 354.120,330.368 352.800 C 331.708 351.480,332.974 350.400,333.180 350.400 C 333.483 350.400,336.183 347.779,341.800 342.034 C 342.020 341.809,343.823 340.044,345.807 338.112 C 347.791 336.180,349.859 333.972,350.402 333.205 C 350.945 332.438,352.247 330.935,353.295 329.865 C 354.343 328.795,355.200 327.757,355.200 327.560 C 355.200 327.362,355.920 326.459,356.800 325.552 C 357.680 324.645,358.400 323.768,358.400 323.602 C 358.400 323.436,359.030 322.613,359.800 321.772 C 360.570 320.931,361.200 320.049,361.200 319.810 C 361.200 319.572,361.560 319.117,362.000 318.800 C 362.440 318.483,362.800 317.991,362.800 317.708 C 362.800 317.425,363.340 316.628,364.000 315.937 C 364.660 315.246,365.200 314.478,365.200 314.229 C 365.200 313.980,365.560 313.517,366.000 313.200 C 366.440 312.883,366.800 312.343,366.800 312.000 C 366.800 311.657,367.160 311.117,367.600 310.800 C 368.040 310.483,368.400 309.986,368.400 309.695 C 368.400 309.404,368.760 308.780,369.200 308.308 C 369.640 307.836,370.224 306.944,370.497 306.325 C 370.771 305.706,371.103 305.200,371.235 305.200 C 371.366 305.200,371.905 304.345,372.432 303.300 C 372.958 302.255,373.502 301.310,373.639 301.200 C 374.099 300.832,375.200 298.447,375.200 297.820 C 375.200 297.479,375.380 297.200,375.600 297.200 C 375.820 297.200,376.000 296.855,376.000 296.433 C 376.000 296.012,376.135 295.607,376.300 295.533 C 376.676 295.366,377.975 293.236,378.271 292.300 C 378.393 291.915,378.652 291.600,378.847 291.600 C 379.041 291.600,379.200 291.255,379.200 290.833 C 379.200 290.412,379.335 290.007,379.500 289.933 C 379.665 289.860,380.225 288.900,380.744 287.800 C 381.263 286.700,381.848 285.487,382.044 285.105 C 382.240 284.723,382.400 284.138,382.400 283.805 C 382.400 283.472,382.580 283.200,382.800 283.200 C 383.020 283.200,383.200 282.840,383.200 282.400 C 383.200 281.960,383.380 281.600,383.600 281.600 C 383.820 281.600,384.000 281.240,384.000 280.800 C 384.000 280.360,384.147 280.000,384.328 280.000 C 384.508 280.000,384.900 279.100,385.200 278.000 C 385.500 276.900,385.892 276.000,386.072 276.000 C 386.253 276.000,386.400 275.728,386.400 275.395 C 386.400 275.062,386.580 274.432,386.800 273.995 C 387.020 273.558,387.380 272.842,387.600 272.405 C 387.820 271.968,388.000 271.263,388.000 270.839 C 388.000 270.414,388.140 270.007,388.312 269.933 C 388.755 269.744,391.600 260.960,391.600 259.780 C 391.600 259.241,391.780 258.800,392.000 258.800 C 392.220 258.800,392.400 258.170,392.400 257.400 C 392.400 256.630,392.580 256.000,392.800 256.000 C 393.020 256.000,393.200 255.370,393.200 254.600 C 393.200 253.830,393.380 253.200,393.600 253.200 C 393.820 253.200,394.000 252.570,394.000 251.800 C 394.000 251.030,394.180 250.400,394.400 250.400 C 394.620 250.400,394.800 249.691,394.800 248.824 C 394.800 247.957,394.980 247.136,395.200 247.000 C 395.420 246.864,395.600 245.953,395.600 244.976 C 395.600 243.999,395.780 243.200,396.000 243.200 C 396.220 243.200,396.400 242.480,396.400 241.600 C 396.400 240.720,396.580 240.000,396.800 240.000 C 397.020 240.000,397.200 239.010,397.200 237.800 C 397.200 236.590,397.380 235.600,397.600 235.600 C 397.820 235.600,398.000 234.621,398.000 233.424 C 398.000 232.227,398.180 231.136,398.400 231.000 C 398.620 230.864,398.800 229.518,398.800 228.010 C 398.800 226.171,398.965 225.212,399.300 225.100 C 399.693 224.969,399.800 219.591,399.800 200.000 C 399.800 180.409,399.693 175.031,399.300 174.900 C 398.965 174.788,398.800 173.829,398.800 171.990 C 398.800 170.482,398.620 169.136,398.400 169.000 C 398.180 168.864,398.000 167.773,398.000 166.576 C 398.000 165.379,397.820 164.400,397.600 164.400 C 397.380 164.400,397.200 163.410,397.200 162.200 C 397.200 160.990,397.020 160.000,396.800 160.000 C 396.580 160.000,396.400 159.280,396.400 158.400 C 396.400 157.520,396.220 156.800,396.000 156.800 C 395.780 156.800,395.600 156.001,395.600 155.024 C 395.600 154.047,395.420 153.136,395.200 153.000 C 394.980 152.864,394.800 152.043,394.800 151.176 C 394.800 150.309,394.620 149.600,394.400 149.600 C 394.180 149.600,394.000 148.970,394.000 148.200 C 394.000 147.430,393.820 146.800,393.600 146.800 C 393.380 146.800,393.200 146.170,393.200 145.400 C 393.200 144.630,393.020 144.000,392.800 144.000 C 392.580 144.000,392.400 143.370,392.400 142.600 C 392.400 141.830,392.220 141.200,392.000 141.200 C 391.780 141.200,391.600 140.759,391.600 140.220 C 391.600 139.040,388.755 130.256,388.312 130.067 C 388.140 129.993,388.000 129.622,388.000 129.242 C 388.000 128.861,387.640 127.805,387.200 126.894 C 386.760 125.984,386.400 124.960,386.400 124.619 C 386.400 124.279,386.253 124.000,386.072 124.000 C 385.892 124.000,385.500 123.100,385.200 122.000 C 384.900 120.900,384.508 120.000,384.328 120.000 C 384.147 120.000,384.000 119.640,384.000 119.200 C 384.000 118.760,383.820 118.400,383.600 118.400 C 383.380 118.400,383.200 118.040,383.200 117.600 C 383.200 117.160,383.020 116.800,382.800 116.800 C 382.580 116.800,382.400 116.528,382.400 116.195 C 382.400 115.862,382.240 115.277,382.044 114.895 C 381.848 114.513,381.263 113.300,380.744 112.200 C 380.225 111.100,379.665 110.140,379.500 110.067 C 379.335 109.993,379.200 109.603,379.200 109.200 C 379.200 108.797,379.065 108.407,378.900 108.333 C 378.524 108.166,377.225 106.036,376.929 105.100 C 376.807 104.715,376.548 104.400,376.353 104.400 C 376.159 104.400,376.000 104.040,376.000 103.600 C 376.000 103.160,375.820 102.800,375.600 102.800 C 375.380 102.800,375.200 102.521,375.200 102.180 C 375.200 101.553,374.099 99.168,373.639 98.800 C 373.502 98.690,372.958 97.745,372.432 96.700 C 371.905 95.655,371.366 94.800,371.235 94.800 C 371.103 94.800,370.771 94.294,370.497 93.675 C 370.224 93.056,369.640 92.164,369.200 91.692 C 368.760 91.220,368.400 90.596,368.400 90.305 C 368.400 90.014,368.040 89.517,367.600 89.200 C 367.160 88.883,366.800 88.343,366.800 88.000 C 366.800 87.657,366.440 87.117,366.000 86.800 C 365.560 86.483,365.200 86.020,365.200 85.771 C 365.200 85.522,364.660 84.754,364.000 84.063 C 363.340 83.372,362.800 82.575,362.800 82.292 C 362.800 82.009,362.440 81.517,362.000 81.200 C 361.560 80.883,361.200 80.431,361.200 80.196 C 361.200 79.960,360.480 78.972,359.600 78.000 C 358.720 77.028,358.000 76.096,358.000 75.929 C 358.000 75.763,357.370 74.997,356.600 74.227 C 355.830 73.457,355.200 72.659,355.200 72.454 C 355.200 72.249,354.343 71.205,353.295 70.135 C 352.247 69.065,350.943 67.562,350.398 66.795 C 349.274 65.213,342.800 58.636,342.800 59.076 C 342.800 59.234,342.485 58.944,342.100 58.432 C 340.929 56.876,333.581 49.600,333.180 49.600 C 332.974 49.600,331.708 48.520,330.368 47.200 C 329.027 45.880,327.758 44.800,327.548 44.800 C 327.338 44.800,326.769 44.422,326.283 43.959 C 325.797 43.497,324.770 42.644,324.000 42.064 C 323.230 41.484,322.309 40.692,321.953 40.304 C 321.597 39.917,321.129 39.600,320.912 39.600 C 320.696 39.600,319.954 39.060,319.263 38.400 C 318.572 37.740,317.775 37.200,317.492 37.200 C 317.209 37.200,316.717 36.840,316.400 36.400 C 316.083 35.960,315.620 35.600,315.371 35.600 C 315.122 35.600,314.354 35.060,313.663 34.400 C 312.972 33.740,312.218 33.200,311.987 33.200 C 311.756 33.200,311.180 32.840,310.708 32.400 C 310.236 31.960,309.613 31.600,309.325 31.600 C 309.036 31.600,308.800 31.420,308.800 31.200 C 308.800 30.980,308.558 30.800,308.262 30.800 C 307.966 30.800,307.398 30.440,307.000 30.000 C 306.602 29.560,306.034 29.200,305.738 29.200 C 305.442 29.200,305.200 29.065,305.200 28.899 C 305.200 28.734,304.345 28.156,303.300 27.615 C 302.255 27.074,300.729 26.219,299.908 25.716 C 299.087 25.212,298.142 24.800,297.808 24.800 C 297.474 24.800,297.200 24.620,297.200 24.400 C 297.200 24.180,296.840 24.000,296.400 24.000 C 295.960 24.000,295.600 23.820,295.600 23.600 C 295.600 23.380,295.240 23.200,294.800 23.200 C 294.360 23.200,294.000 23.020,294.000 22.800 C 294.000 22.580,293.640 22.400,293.200 22.400 C 292.760 22.400,292.400 22.220,292.400 22.000 C 292.400 21.780,292.130 21.600,291.800 21.600 C 291.470 21.600,291.200 21.420,291.200 21.200 C 291.200 20.980,290.840 20.800,290.400 20.800 C 289.960 20.800,289.600 20.620,289.600 20.400 C 289.600 20.180,289.240 20.000,288.800 20.000 C 288.360 20.000,288.000 19.820,288.000 19.600 C 288.000 19.380,287.640 19.200,287.200 19.200 C 286.760 19.200,286.400 19.020,286.400 18.800 C 286.400 18.580,286.040 18.400,285.600 18.400 C 285.160 18.400,284.800 18.220,284.800 18.000 C 284.800 17.780,284.440 17.600,284.000 17.600 C 283.560 17.600,283.200 17.420,283.200 17.200 C 283.200 16.980,282.840 16.800,282.400 16.800 C 281.960 16.800,281.600 16.653,281.600 16.472 C 281.600 16.292,280.700 15.900,279.600 15.600 C 278.500 15.300,277.600 14.908,277.600 14.728 C 277.600 14.547,277.240 14.400,276.800 14.400 C 276.360 14.400,276.000 14.220,276.000 14.000 C 276.000 13.780,275.638 13.600,275.195 13.600 C 274.752 13.600,274.077 13.441,273.695 13.247 C 273.313 13.052,272.460 12.671,271.800 12.400 C 271.140 12.129,270.287 11.748,269.905 11.553 C 269.523 11.359,268.848 11.200,268.405 11.200 C 267.962 11.200,267.600 11.020,267.600 10.800 C 267.600 10.580,267.071 10.400,266.424 10.400 C 265.777 10.400,265.128 10.208,264.983 9.973 C 264.838 9.738,264.488 9.634,264.205 9.743 C 263.923 9.851,263.350 9.700,262.932 9.407 C 262.514 9.114,261.321 8.747,260.281 8.591 C 259.241 8.435,258.292 8.148,258.171 7.954 C 258.051 7.759,257.434 7.600,256.800 7.600 C 256.166 7.600,255.536 7.420,255.400 7.200 C 255.264 6.980,254.623 6.800,253.976 6.800 C 253.329 6.800,252.800 6.620,252.800 6.400 C 252.800 6.180,252.080 6.000,251.200 6.000 C 250.320 6.000,249.600 5.820,249.600 5.600 C 249.600 5.380,248.880 5.200,248.000 5.200 C 247.120 5.200,246.400 5.020,246.400 4.800 C 246.400 4.580,245.691 4.400,244.824 4.400 C 243.957 4.400,243.136 4.220,243.000 4.000 C 242.864 3.780,241.953 3.600,240.976 3.600 C 239.999 3.600,239.200 3.420,239.200 3.200 C 239.200 2.980,238.210 2.800,237.000 2.800 C 235.790 2.800,234.800 2.620,234.800 2.400 C 234.800 2.178,233.733 2.000,232.400 2.000 C 231.067 2.000,230.000 1.822,230.000 1.600 C 230.000 1.367,228.678 1.200,226.833 1.200 C 224.758 1.200,223.613 1.038,223.509 0.728 C 223.352 0.257,189.564 -0.100,180.300 0.272 M168.397 136.600 C 185.673 153.870,199.949 168.000,200.123 168.000 C 200.297 168.000,214.177 154.275,230.967 137.500 C 247.757 120.725,261.975 106.557,262.562 106.017 L 263.629 105.033 279.215 120.615 C 287.787 129.184,294.800 136.377,294.800 136.597 C 294.800 136.818,280.625 151.174,263.301 168.499 L 231.802 200.000 263.301 231.501 C 280.625 248.826,294.800 263.182,294.800 263.403 C 294.800 264.651,263.637 294.930,262.927 294.371 C 262.528 294.057,248.275 279.895,231.255 262.900 C 214.235 245.905,200.195 232.000,200.054 232.000 C 199.913 232.000,185.669 246.130,168.400 263.400 C 151.131 280.670,136.821 294.800,136.599 294.800 C 136.377 294.800,129.184 287.787,120.615 279.215 L 105.033 263.629 106.017 262.562 C 106.557 261.975,120.725 247.757,137.500 230.967 C 154.275 214.177,168.000 200.270,168.000 200.063 C 168.000 199.856,153.870 185.548,136.600 168.267 C 119.330 150.987,105.200 136.704,105.200 136.526 C 105.200 136.057,136.122 105.200,136.592 105.200 C 136.810 105.200,151.122 119.330,168.397 136.600 " stroke="none" fill="#e44c5c" fill-rule="evenodd"></path><path id="path2" d="M121.298 121.302 C 113.104 129.498,106.400 136.383,106.400 136.603 C 106.400 136.822,120.440 151.041,137.600 168.200 C 154.760 185.359,168.800 199.669,168.800 200.000 C 168.800 200.331,154.760 214.641,137.600 231.800 C 120.440 248.959,106.400 263.179,106.400 263.401 C 106.400 263.623,113.150 270.552,121.400 278.800 C 129.650 287.048,136.400 293.666,136.400 293.506 C 136.400 293.347,129.720 286.541,121.555 278.382 L 106.710 263.547 107.655 262.535 C 108.175 261.978,122.325 247.803,139.100 231.035 C 155.875 214.267,169.600 200.331,169.600 200.066 C 169.600 199.801,155.470 185.462,138.200 168.201 C 120.930 150.940,106.800 136.723,106.800 136.606 C 106.800 136.289,136.351 106.800,136.669 106.800 C 136.820 106.800,150.957 120.823,168.085 137.962 C 185.213 155.101,199.518 169.237,199.876 169.374 C 200.353 169.557,208.581 161.564,231.024 139.111 C 247.798 122.330,261.978 108.175,262.535 107.655 L 263.547 106.710 278.382 121.555 C 286.541 129.720,293.347 136.400,293.506 136.400 C 293.666 136.400,287.048 129.650,278.800 121.400 C 270.552 113.150,263.623 106.400,263.401 106.400 C 263.179 106.400,248.959 120.440,231.800 137.600 C 214.641 154.760,200.331 168.800,200.000 168.800 C 199.669 168.800,185.359 154.760,168.200 137.600 C 151.041 120.440,136.821 106.400,136.599 106.400 C 136.377 106.400,129.492 113.106,121.298 121.302 M262.187 167.977 C 245.034 185.124,230.947 199.487,230.883 199.895 C 230.781 200.541,273.841 244.124,289.867 259.597 C 292.030 261.685,279.715 249.264,262.500 231.996 C 245.285 214.727,231.201 200.329,231.202 199.999 C 231.203 199.670,243.308 187.300,258.102 172.511 C 293.312 137.312,293.821 136.800,293.581 136.800 C 293.467 136.800,279.340 150.830,262.187 167.977 M199.606 230.788 C 198.996 231.173,150.582 279.496,141.600 288.685 L 136.600 293.799 141.111 289.400 C 143.592 286.980,157.722 272.896,172.511 258.102 C 187.300 243.308,199.670 231.203,199.999 231.202 C 200.329 231.201,214.721 245.285,231.982 262.500 C 249.243 279.715,262.114 292.454,260.583 290.809 C 257.754 287.769,200.500 230.395,200.306 230.406 C 200.248 230.409,199.933 230.581,199.606 230.788 M278.944 277.936 C 271.055 285.821,264.342 292.616,264.028 293.036 C 263.713 293.456,270.238 287.051,278.528 278.802 C 286.817 270.553,293.600 263.758,293.600 263.702 C 293.600 263.337,291.845 265.041,278.944 277.936 " stroke="none" fill="#fcf0f4" fill-rule="evenodd"></path><path id="path3" d="M120.698 120.702 C 112.174 129.228,105.200 136.334,105.200 136.493 C 105.200 136.926,124.191 156.000,124.622 156.000 C 124.827 156.000,120.700 151.704,115.453 146.453 C 107.975 138.970,105.964 136.743,106.153 136.149 C 106.512 135.018,135.717 106.000,136.497 106.000 C 136.867 106.000,151.203 120.040,168.357 137.200 C 185.510 154.360,199.780 168.400,200.069 168.400 C 200.357 168.400,214.771 154.227,232.099 136.904 L 263.604 105.408 279.002 120.802 C 287.471 129.269,294.400 136.336,294.400 136.506 C 294.400 136.676,280.270 150.954,263.000 168.234 C 245.730 185.514,231.600 199.836,231.600 200.061 C 231.600 200.285,245.614 214.474,262.741 231.592 C 279.869 248.710,293.982 262.977,294.105 263.296 C 294.252 263.680,289.123 269.079,278.968 279.232 L 263.608 294.588 244.498 275.494 C 233.988 264.992,225.243 256.400,225.064 256.400 C 224.749 256.400,261.470 293.226,262.927 294.371 C 263.637 294.930,294.800 264.651,294.800 263.403 C 294.800 263.182,280.625 248.826,263.301 231.501 L 231.802 200.000 263.301 168.499 C 280.625 151.174,294.800 136.818,294.800 136.597 C 294.800 136.377,287.787 129.184,279.215 120.615 L 263.629 105.033 262.562 106.017 C 261.975 106.557,247.757 120.725,230.967 137.500 C 214.177 154.275,200.297 168.000,200.123 168.000 C 199.949 168.000,185.673 153.870,168.397 136.600 C 151.122 119.330,136.810 105.200,136.592 105.200 C 136.374 105.200,129.222 112.176,120.698 120.702 M146.372 178.042 C 158.267 189.945,168.000 199.854,168.000 200.062 C 168.000 200.270,154.275 214.177,137.500 230.967 C 120.725 247.757,106.557 261.975,106.017 262.562 L 105.033 263.629 120.615 279.215 C 129.184 287.787,136.377 294.800,136.599 294.800 C 136.821 294.800,151.131 280.670,168.400 263.400 C 185.669 246.130,199.912 232.000,200.051 232.000 C 200.191 232.000,205.706 237.400,212.307 244.000 C 218.909 250.600,224.464 256.000,224.653 256.000 C 224.841 256.000,219.507 250.510,212.800 243.800 C 206.093 237.090,200.391 231.600,200.129 231.600 C 199.867 231.600,185.514 245.730,168.234 263.000 C 150.954 280.270,136.676 294.400,136.506 294.400 C 136.336 294.400,129.269 287.471,120.802 279.002 L 105.408 263.604 136.904 232.099 C 154.227 214.771,168.400 200.324,168.400 199.995 C 168.400 199.389,125.673 156.400,125.070 156.400 C 124.890 156.400,134.476 166.139,146.372 178.042 " stroke="none" fill="#e4747c" fill-rule="evenodd"></path><path id="path4" d="M232.099 136.904 C 214.771 154.227,200.357 168.400,200.069 168.400 C 199.780 168.400,185.496 154.346,168.325 137.168 C 142.408 111.242,136.961 105.974,136.253 106.155 C 135.178 106.429,106.000 135.615,106.000 136.416 C 106.000 136.741,120.040 151.045,137.200 168.203 C 154.360 185.360,168.400 199.667,168.400 199.995 C 168.400 200.324,154.227 214.771,136.904 232.099 L 105.408 263.604 120.802 279.002 C 129.269 287.471,136.318 294.400,136.468 294.400 C 136.618 294.400,139.756 291.430,143.442 287.800 C 147.128 284.170,149.977 281.201,149.772 281.203 C 149.567 281.205,146.612 283.995,143.203 287.403 C 139.795 290.811,136.826 293.600,136.605 293.600 C 136.080 293.600,106.400 263.927,106.400 263.401 C 106.400 263.179,120.440 248.959,137.600 231.800 C 154.760 214.641,168.800 200.331,168.800 200.000 C 168.800 199.669,154.760 185.359,137.600 168.200 C 120.440 151.041,106.400 136.821,106.400 136.599 C 106.400 136.075,136.079 106.400,136.603 106.400 C 136.822 106.400,151.041 120.440,168.200 137.600 C 185.359 154.760,199.669 168.800,200.000 168.800 C 200.331 168.800,214.641 154.760,231.800 137.600 C 248.959 120.440,263.179 106.400,263.401 106.400 C 263.927 106.400,293.600 136.080,293.600 136.605 C 293.600 136.826,290.811 139.795,287.403 143.203 C 283.995 146.612,281.205 149.567,281.203 149.772 C 281.201 149.977,284.170 147.128,287.800 143.442 C 291.430 139.756,294.400 136.618,294.400 136.468 C 294.400 136.318,287.471 129.269,279.002 120.802 L 263.604 105.408 232.099 136.904 M274.586 156.014 C 271.299 159.306,268.744 162.000,268.908 162.000 C 269.305 162.000,280.914 150.381,280.716 150.183 C 280.631 150.098,277.873 152.722,274.586 156.014 M265.212 165.388 C 263.579 167.032,262.324 168.454,262.422 168.549 C 262.520 168.644,264.015 167.299,265.745 165.561 C 267.475 163.822,268.731 162.400,268.535 162.400 C 268.340 162.400,266.844 163.745,265.212 165.388 M255.786 174.814 C 252.499 178.106,249.944 180.800,250.108 180.800 C 250.505 180.800,262.114 169.181,261.916 168.983 C 261.831 168.898,259.073 171.522,255.786 174.814 M240.300 190.314 C 235.295 195.324,231.200 199.688,231.200 200.013 C 231.200 200.337,245.240 214.641,262.400 231.800 C 279.560 248.959,293.600 263.179,293.600 263.401 C 293.600 263.925,263.921 293.600,263.397 293.600 C 263.178 293.600,248.959 279.560,231.800 262.400 C 214.641 245.240,200.331 231.201,200.001 231.202 C 199.393 231.204,181.200 249.149,181.200 249.746 C 181.200 249.924,185.352 245.914,190.426 240.835 C 195.500 235.756,199.869 231.600,200.134 231.600 C 200.400 231.600,206.144 237.135,212.898 243.900 C 219.653 250.665,233.826 264.837,244.394 275.394 L 263.608 294.588 278.968 279.232 C 289.123 269.079,294.252 263.680,294.105 263.296 C 293.982 262.977,279.869 248.710,262.741 231.592 C 245.614 214.474,231.600 200.284,231.600 200.060 C 231.600 199.835,235.756 195.500,240.835 190.426 C 245.914 185.352,249.919 181.201,249.735 181.202 C 249.551 181.203,245.305 185.303,240.300 190.314 M174.586 256.014 C 171.299 259.306,168.744 262.000,168.908 262.000 C 169.305 262.000,180.914 250.381,180.716 250.183 C 180.631 250.098,177.873 252.722,174.586 256.014 M165.212 265.388 C 163.579 267.032,162.324 268.454,162.422 268.549 C 162.520 268.644,164.015 267.299,165.745 265.561 C 167.475 263.822,168.731 262.400,168.535 262.400 C 168.340 262.400,166.844 263.745,165.212 265.388 M155.786 274.814 C 152.499 278.106,149.944 280.800,150.108 280.800 C 150.505 280.800,162.114 269.181,161.916 268.983 C 161.831 268.898,159.073 271.522,155.786 274.814 " stroke="none" fill="#f3a4ac" fill-rule="evenodd"></path></g></svg>