<svg xmlns="http://www.w3.org/2000/svg" width="124.57" height="40" viewBox="0 0 124.57 40"><defs><style>.abc{fill:#ffffff;}</style></defs><g transform="translate(-11.6 -20.6)"><g transform="translate(11.6 20.6)"><g transform="translate(0)"><g transform="translate(103.581 8.863)"><path class="abc" d="M551.026,66.785A10.291,10.291,0,0,1,554.8,70.6a10.607,10.607,0,0,1,1.385,5.4V84.51a1.834,1.834,0,0,1-.554,1.385,1.864,1.864,0,0,1-1.385.554,1.833,1.833,0,0,1-1.385-.554,1.864,1.864,0,0,1-.554-1.385v-1.4a9.492,9.492,0,0,1-3.244,2.552,9.733,9.733,0,0,1-9.08-.455,9.558,9.558,0,0,1-3.5-3.8A11.4,11.4,0,0,1,535.2,76a10.848,10.848,0,0,1,1.365-5.4,9.92,9.92,0,0,1,3.8-3.818,10.565,10.565,0,0,1,5.361-1.385A10.349,10.349,0,0,1,551.026,66.785Zm-1.879,15.391a6.384,6.384,0,0,0,2.413-2.552,7.446,7.446,0,0,0,.87-3.64,7.749,7.749,0,0,0-.87-3.66,6.64,6.64,0,0,0-11.731,0,7.535,7.535,0,0,0-.89,3.66,7.458,7.458,0,0,0,.89,3.64,6.583,6.583,0,0,0,5.875,3.482A6.251,6.251,0,0,0,549.147,82.175Z" transform="translate(-535.2 -65.4)"/></g><g transform="translate(0 1.405)"><path class="abc" d="M30.255,81.578a1.656,1.656,0,0,1-1.227.455H15.022a6.582,6.582,0,0,0,2.334,4.174A7.275,7.275,0,0,0,22.1,87.79a6.961,6.961,0,0,0,2.295-.415,7.1,7.1,0,0,0,1.978-.989,1.865,1.865,0,0,1,1.227-.4,1.537,1.537,0,0,1,1.108.376,1.661,1.661,0,0,1,.673,1.246,1.347,1.347,0,0,1-.593,1.108,9.9,9.9,0,0,1-3.126,1.622,11.286,11.286,0,0,1-3.561.633,11.151,11.151,0,0,1-5.42-1.306,9.327,9.327,0,0,1-3.739-3.64A10.382,10.382,0,0,1,11.6,80.747a10.807,10.807,0,0,1,1.266-5.282,9.4,9.4,0,0,1,3.541-3.66A10.094,10.094,0,0,1,21.551,70.5a9.323,9.323,0,0,1,4.906,1.246,8.114,8.114,0,0,1,3.165,3.5,11.653,11.653,0,0,1,1.108,5.163A1.536,1.536,0,0,1,30.255,81.578ZM17.179,75.149a6.587,6.587,0,0,0-2.117,3.937H27.347a6.458,6.458,0,0,0-1.84-3.937,5.373,5.373,0,0,0-3.937-1.484A6.543,6.543,0,0,0,17.179,75.149Z" transform="translate(-11.6 -62.033)"/><path class="abc" d="M143.4,28.214a1.85,1.85,0,0,1,.514,1.365V46.394a10.371,10.371,0,0,1-1.345,5.223,9.755,9.755,0,0,1-3.66,3.68,10.079,10.079,0,0,1-5.143,1.345,10.277,10.277,0,0,1-5.183-1.345,9.482,9.482,0,0,1-3.66-3.68,10.357,10.357,0,0,1-1.325-5.223,11.172,11.172,0,0,1,1.227-5.223,9.308,9.308,0,0,1,3.383-3.66,9.356,9.356,0,0,1,8.783-.435,8.857,8.857,0,0,1,3.126,2.473v-9.97a1.788,1.788,0,0,1,.534-1.365A1.9,1.9,0,0,1,142,27.7,1.867,1.867,0,0,1,143.4,28.214Zm-6.291,24.194a6.173,6.173,0,0,0,2.334-2.493,7.267,7.267,0,0,0,.851-3.541,7.19,7.19,0,0,0-.851-3.521,6.528,6.528,0,0,0-2.334-2.473,6.42,6.42,0,0,0-3.343-.91,6.288,6.288,0,0,0-3.343.91,6.437,6.437,0,0,0-2.354,2.473,7.2,7.2,0,0,0-.87,3.521,7.278,7.278,0,0,0,.87,3.541,6.634,6.634,0,0,0,2.354,2.493,6.42,6.42,0,0,0,3.343.91A6.24,6.24,0,0,0,137.111,52.408Z" transform="translate(-101.444 -27.7)"/><path class="abc" d="M273.415,81.578a1.656,1.656,0,0,1-1.227.455H258.2a6.581,6.581,0,0,0,2.334,4.174,7.275,7.275,0,0,0,4.748,1.583,8,8,0,0,0,4.293-1.4,1.865,1.865,0,0,1,1.227-.4,1.537,1.537,0,0,1,1.108.376,1.661,1.661,0,0,1,.673,1.246,1.347,1.347,0,0,1-.593,1.108,9.9,9.9,0,0,1-3.126,1.622,11.286,11.286,0,0,1-3.561.633,11.151,11.151,0,0,1-5.42-1.306,9.327,9.327,0,0,1-3.739-3.64,10.382,10.382,0,0,1-1.345-5.282,10.807,10.807,0,0,1,1.266-5.282,9.4,9.4,0,0,1,3.541-3.66,10.094,10.094,0,0,1,5.143-1.306,9.323,9.323,0,0,1,4.906,1.246,8.114,8.114,0,0,1,3.165,3.5,11.654,11.654,0,0,1,1.108,5.163A1.643,1.643,0,0,1,273.415,81.578Zm-13.056-6.429a6.587,6.587,0,0,0-2.117,3.937h12.285a6.458,6.458,0,0,0-1.84-3.937,5.373,5.373,0,0,0-3.937-1.484A6.543,6.543,0,0,0,260.359,75.149Z" transform="translate(-206.689 -62.033)"/></g><g transform="translate(71.672)"><path class="abc" d="M446.414,20.6h-8.051L427.7,35.457l10.6,14.817h8.051L435.771,35.457Z" transform="translate(-417.057 -20.6)"/><path class="abc" d="M385.117,24.992,381.951,20.6H373.9l7.24,10.069Z" transform="translate(-373.9 -20.6)"/><path class="abc" d="M374.3,128.245h8.051l3.561-4.965-4.135-5.48Z" transform="translate(-374.221 -98.572)"/></g></g></g><g transform="translate(37.001 53.696)"><path class="abc" d="M142.71,196.516a.3.3,0,0,1,.059.2.242.242,0,0,1-.059.178.251.251,0,0,1-.178.079h-.178a1.532,1.532,0,0,1-.791-.218,1.3,1.3,0,0,1-.534-.593,1.993,1.993,0,0,1-.2-.851v-2.433h-.613a.225.225,0,0,1-.158-.059.242.242,0,0,1-.059-.178.276.276,0,0,1,.059-.178.164.164,0,0,1,.158-.059h.613v-1.424a.334.334,0,0,1,.059-.2.251.251,0,0,1,.178-.079.193.193,0,0,1,.178.079.3.3,0,0,1,.059.2V192.4h1.048a.225.225,0,0,1,.158.059.242.242,0,0,1,.059.178.276.276,0,0,1-.059.178.225.225,0,0,1-.158.059h-1.048v2.433a1.106,1.106,0,0,0,.3.811.932.932,0,0,0,.732.316h.178A.351.351,0,0,1,142.71,196.516Z" transform="translate(-140 -190.146)"/><path class="abc" d="M162.046,190.175a1.862,1.862,0,0,1,.712.752,2.5,2.5,0,0,1,.257,1.187v2.334a.242.242,0,0,1-.059.178.251.251,0,0,1-.178.079.242.242,0,0,1-.178-.079.276.276,0,0,1-.059-.178v-2.334a1.7,1.7,0,0,0-.435-1.266,1.446,1.446,0,0,0-1.108-.435,1.7,1.7,0,0,0-.771.178,1.342,1.342,0,0,0-.554.495,1.227,1.227,0,0,0-.2.692v2.651a.242.242,0,0,1-.059.178.251.251,0,0,1-.178.079.242.242,0,0,1-.178-.079.276.276,0,0,1-.059-.178v-6.251a.334.334,0,0,1,.059-.2.251.251,0,0,1,.178-.079.193.193,0,0,1,.178.079.3.3,0,0,1,.059.2v2.512a2.013,2.013,0,0,1,.653-.574,1.794,1.794,0,0,1,.851-.2A2.085,2.085,0,0,1,162.046,190.175Z" transform="translate(-155.241 -187.9)"/><path class="abc" d="M187.845,198.336a2.1,2.1,0,0,1,.712.831,2.639,2.639,0,0,1,.257,1.207.242.242,0,0,1-.059.178.225.225,0,0,1-.158.059h-3.343a2.209,2.209,0,0,0,.237.91,1.831,1.831,0,0,0,.593.633,1.538,1.538,0,0,0,.831.218,1.876,1.876,0,0,0,.633-.119,1.127,1.127,0,0,0,.495-.317.389.389,0,0,1,.158-.079.18.18,0,0,1,.138.059.242.242,0,0,1,.079.178.18.18,0,0,1-.079.158,2.047,2.047,0,0,1-.673.415,1.947,1.947,0,0,1-.791.158,2.023,2.023,0,0,1-1.128-.317,2.13,2.13,0,0,1-.772-.851,2.879,2.879,0,0,1-.277-1.246,2.753,2.753,0,0,1,.257-1.246,1.938,1.938,0,0,1,.732-.851,1.99,1.99,0,0,1,1.068-.317A2.352,2.352,0,0,1,187.845,198.336Zm-2.1.633a2.05,2.05,0,0,0-.514,1.187h3.106a1.9,1.9,0,0,0-.475-1.187,1.4,1.4,0,0,0-1.068-.455A1.423,1.423,0,0,0,185.748,198.969Z" transform="translate(-175.857 -196.002)"/><path class="abc" d="M225.883,190.315a2.294,2.294,0,0,1,.811.87,2.556,2.556,0,0,1,.3,1.227,2.634,2.634,0,0,1-.3,1.246,2.151,2.151,0,0,1-.811.87,2.044,2.044,0,0,1-1.147.316,2.023,2.023,0,0,1-1.128-.316,2.389,2.389,0,0,1-.811-.851,2.479,2.479,0,0,1-.3-1.207v-4.194a.334.334,0,0,1,.059-.2.251.251,0,0,1,.178-.079.193.193,0,0,1,.178.079.3.3,0,0,1,.059.2v2.71a2.1,2.1,0,0,1,.712-.732,1.988,1.988,0,0,1,1.029-.257A2.342,2.342,0,0,1,225.883,190.315Zm-.257,3.8a1.945,1.945,0,0,0,.633-.692,2.18,2.18,0,0,0,0-1.978,1.654,1.654,0,0,0-.633-.692,1.676,1.676,0,0,0-.89-.257,1.518,1.518,0,0,0-.89.257,1.792,1.792,0,0,0-.633.692,2.074,2.074,0,0,0-.218.989,2.337,2.337,0,0,0,.218.989,1.654,1.654,0,0,0,.633.692,1.669,1.669,0,0,0,1.78,0Z" transform="translate(-206.18 -187.98)"/><path class="abc" d="M254.737,198.556a.3.3,0,0,1,.059.2v4.233a.242.242,0,0,1-.059.178.251.251,0,0,1-.178.079.242.242,0,0,1-.178-.079.276.276,0,0,1-.059-.178v-.455a2.013,2.013,0,0,1-.653.574,1.794,1.794,0,0,1-.851.2,2.061,2.061,0,0,1-1.048-.257,1.863,1.863,0,0,1-.712-.752,2.5,2.5,0,0,1-.257-1.187v-2.334a.242.242,0,0,1,.059-.178.251.251,0,0,1,.178-.079.242.242,0,0,1,.178.079.276.276,0,0,1,.059.178v2.334a1.7,1.7,0,0,0,.435,1.266,1.446,1.446,0,0,0,1.108.435,1.7,1.7,0,0,0,.772-.178,1.342,1.342,0,0,0,.554-.495,1.227,1.227,0,0,0,.2-.692v-2.651a.334.334,0,0,1,.059-.2.251.251,0,0,1,.178-.079A.107.107,0,0,1,254.737,198.556Z" transform="translate(-228.881 -196.4)"/><path class="abc" d="M277.991,202.949a1.8,1.8,0,0,1-.732-.534.225.225,0,0,1-.059-.158.275.275,0,0,1,.1-.2.286.286,0,0,1,.138-.04.208.208,0,0,1,.178.1,1.862,1.862,0,0,0,2.216.3.778.778,0,0,0,.3-.633c0-.455-.415-.752-1.227-.87a2.364,2.364,0,0,1-1.167-.455,1.04,1.04,0,0,1-.4-.811,1.2,1.2,0,0,1,.435-.989,1.656,1.656,0,0,1,1.108-.356,1.7,1.7,0,0,1,1.523.771.188.188,0,0,1,.04.138.241.241,0,0,1-.119.2.777.777,0,0,1-.119.04.241.241,0,0,1-.2-.119,1.346,1.346,0,0,0-1.147-.574,1.2,1.2,0,0,0-.771.237.7.7,0,0,0-.3.574.666.666,0,0,0,.277.554,2.272,2.272,0,0,0,.93.317,2.141,2.141,0,0,1,1.207.495,1.214,1.214,0,0,1,.376.87,1.185,1.185,0,0,1-.237.712,1.574,1.574,0,0,1-.633.475,2.036,2.036,0,0,1-.851.158A2.9,2.9,0,0,1,277.991,202.949Z" transform="translate(-250.059 -196.243)"/><path class="abc" d="M300.1,189.992a.486.486,0,0,1-.1-.3.4.4,0,0,1,.119-.3.328.328,0,0,1,.257-.1.417.417,0,0,1,.257.1.34.34,0,0,1,.1.3.486.486,0,0,1-.1.3.359.359,0,0,1-.277.119A.348.348,0,0,1,300.1,189.992Zm.1,5.776a.276.276,0,0,1-.059-.178v-4.233a.334.334,0,0,1,.059-.2.251.251,0,0,1,.178-.079.193.193,0,0,1,.178.079.3.3,0,0,1,.059.2v4.233a.242.242,0,0,1-.059.178.251.251,0,0,1-.178.079A.215.215,0,0,1,300.2,195.769Z" transform="translate(-268.348 -189.023)"/><path class="abc" d="M314.146,198.2a1.862,1.862,0,0,1,.712.752,2.5,2.5,0,0,1,.257,1.187v2.334a.242.242,0,0,1-.059.178.251.251,0,0,1-.178.079.242.242,0,0,1-.178-.079.276.276,0,0,1-.059-.178v-2.334a1.7,1.7,0,0,0-.435-1.266,1.446,1.446,0,0,0-1.108-.435,1.7,1.7,0,0,0-.772.178,1.342,1.342,0,0,0-.554.495,1.227,1.227,0,0,0-.2.692v2.651a.242.242,0,0,1-.059.178.251.251,0,0,1-.178.079.242.242,0,0,1-.178-.079.276.276,0,0,1-.059-.178v-4.233a.334.334,0,0,1,.059-.2.251.251,0,0,1,.178-.079.193.193,0,0,1,.178.079.3.3,0,0,1,.059.2v.455a2.013,2.013,0,0,1,.653-.574,1.794,1.794,0,0,1,.851-.2A2.5,2.5,0,0,1,314.146,198.2Z" transform="translate(-277.252 -195.922)"/><path class="abc" d="M339.945,198.336a2.1,2.1,0,0,1,.712.831,2.639,2.639,0,0,1,.257,1.207.242.242,0,0,1-.059.178.225.225,0,0,1-.158.059h-3.343a2.209,2.209,0,0,0,.237.91,1.832,1.832,0,0,0,.593.633,1.538,1.538,0,0,0,.831.218,1.876,1.876,0,0,0,.633-.119,1.127,1.127,0,0,0,.495-.317.389.389,0,0,1,.158-.079.18.18,0,0,1,.138.059.242.242,0,0,1,.079.178.18.18,0,0,1-.079.158,2.047,2.047,0,0,1-.673.415,1.947,1.947,0,0,1-.791.158,2.023,2.023,0,0,1-1.128-.317,2.13,2.13,0,0,1-.772-.851,2.879,2.879,0,0,1-.277-1.246,2.753,2.753,0,0,1,.257-1.246,1.939,1.939,0,0,1,.732-.851,1.99,1.99,0,0,1,1.068-.317A2.28,2.28,0,0,1,339.945,198.336Zm-2.077.633a2.05,2.05,0,0,0-.514,1.187h3.106a1.9,1.9,0,0,0-.475-1.187,1.458,1.458,0,0,0-2.117,0Z" transform="translate(-297.868 -196.002)"/><path class="abc" d="M362.591,202.949a1.8,1.8,0,0,1-.732-.534.225.225,0,0,1-.059-.158.275.275,0,0,1,.1-.2.286.286,0,0,1,.138-.04.208.208,0,0,1,.178.1,1.862,1.862,0,0,0,2.216.3.778.778,0,0,0,.3-.633c0-.455-.415-.752-1.227-.87a2.364,2.364,0,0,1-1.167-.455,1.04,1.04,0,0,1-.4-.811,1.2,1.2,0,0,1,.435-.989,1.656,1.656,0,0,1,1.108-.356,1.7,1.7,0,0,1,1.523.771.188.188,0,0,1,.04.138.241.241,0,0,1-.119.2.775.775,0,0,1-.119.04.241.241,0,0,1-.2-.119,1.346,1.346,0,0,0-1.147-.574,1.2,1.2,0,0,0-.772.237.7.7,0,0,0-.3.574.666.666,0,0,0,.277.554,2.272,2.272,0,0,0,.93.317,2.141,2.141,0,0,1,1.207.495,1.213,1.213,0,0,1,.376.87,1.185,1.185,0,0,1-.237.712,1.573,1.573,0,0,1-.633.475,2.036,2.036,0,0,1-.851.158A2.9,2.9,0,0,1,362.591,202.949Z" transform="translate(-317.923 -196.243)"/><path class="abc" d="M384.191,202.949a1.8,1.8,0,0,1-.732-.534.225.225,0,0,1-.059-.158.275.275,0,0,1,.1-.2.286.286,0,0,1,.138-.04.208.208,0,0,1,.178.1,1.862,1.862,0,0,0,2.216.3.778.778,0,0,0,.3-.633c0-.455-.415-.752-1.227-.87a2.364,2.364,0,0,1-1.167-.455,1.04,1.04,0,0,1-.4-.811,1.2,1.2,0,0,1,.435-.989,1.656,1.656,0,0,1,1.108-.356,1.7,1.7,0,0,1,1.523.771.188.188,0,0,1,.04.138.241.241,0,0,1-.119.2.777.777,0,0,1-.119.04.241.241,0,0,1-.2-.119,1.346,1.346,0,0,0-1.147-.574,1.2,1.2,0,0,0-.772.237.7.7,0,0,0-.3.574.666.666,0,0,0,.277.554,2.273,2.273,0,0,0,.93.317,2.141,2.141,0,0,1,1.207.495,1.214,1.214,0,0,1,.376.87,1.185,1.185,0,0,1-.237.712,1.574,1.574,0,0,1-.633.475,2.036,2.036,0,0,1-.851.158A2.9,2.9,0,0,1,384.191,202.949Z" transform="translate(-335.25 -196.243)"/><path class="abc" d="M421.183,190.315a2.294,2.294,0,0,1,.811.87,2.556,2.556,0,0,1,.3,1.227,2.634,2.634,0,0,1-.3,1.246,2.151,2.151,0,0,1-.811.87,2.089,2.089,0,0,1-1.147.316,2.023,2.023,0,0,1-1.128-.316,2.238,2.238,0,0,1-.811-.851,2.478,2.478,0,0,1-.3-1.207v-4.194a.334.334,0,0,1,.059-.2.251.251,0,0,1,.178-.079.193.193,0,0,1,.178.079.3.3,0,0,1,.059.2v2.71a2.1,2.1,0,0,1,.712-.732,1.988,1.988,0,0,1,1.029-.257A2.234,2.234,0,0,1,421.183,190.315Zm-.237,3.8a1.945,1.945,0,0,0,.633-.692,2.179,2.179,0,0,0,0-1.978,1.654,1.654,0,0,0-.633-.692,1.676,1.676,0,0,0-.89-.257,1.518,1.518,0,0,0-.89.257,1.792,1.792,0,0,0-.633.692,2.074,2.074,0,0,0-.218.989,2.338,2.338,0,0,0,.218.989,1.654,1.654,0,0,0,.633.692,1.518,1.518,0,0,0,.89.257A1.606,1.606,0,0,0,420.945,194.113Z" transform="translate(-362.845 -187.98)"/><path class="abc" d="M446,194.49a1.67,1.67,0,0,1-.3-1.029v-5.084a.334.334,0,0,1,.059-.2.251.251,0,0,1,.178-.079.193.193,0,0,1,.178.079.3.3,0,0,1,.059.2v5.084a1.328,1.328,0,0,0,.158.653.441.441,0,0,0,.4.257h.2a.149.149,0,0,1,.138.079.3.3,0,0,1,.059.2.242.242,0,0,1-.059.178.251.251,0,0,1-.178.079h-.158A.94.94,0,0,1,446,194.49Z" transform="translate(-385.225 -188.06)"/><path class="abc" d="M456.808,202.73a2.294,2.294,0,0,1-.811-.87,2.555,2.555,0,0,1-.3-1.227,2.634,2.634,0,0,1,.3-1.246,2.151,2.151,0,0,1,.811-.87,2.2,2.2,0,0,1,2.275,0,2.294,2.294,0,0,1,.811.87,2.635,2.635,0,0,1,.3,1.246,2.5,2.5,0,0,1-.3,1.227,2.152,2.152,0,0,1-.811.87,2.023,2.023,0,0,1-1.128.317A2.215,2.215,0,0,1,456.808,202.73Zm2.038-.435a1.792,1.792,0,0,0,.633-.692,2.074,2.074,0,0,0,.218-.989,2.337,2.337,0,0,0-.218-.989,1.654,1.654,0,0,0-.633-.692,1.669,1.669,0,0,0-1.78,0,1.944,1.944,0,0,0-.633.692,2.18,2.18,0,0,0,0,1.978,1.654,1.654,0,0,0,.633.692,1.676,1.676,0,0,0,.89.257A1.561,1.561,0,0,0,458.845,202.295Z" transform="translate(-393.247 -196.162)"/><path class="abc" d="M484.248,202.73a2.06,2.06,0,0,1-.772-.87,2.543,2.543,0,0,1-.277-1.227,2.869,2.869,0,0,1,.257-1.246,2.112,2.112,0,0,1,.732-.87,1.816,1.816,0,0,1,1.048-.317,2.076,2.076,0,0,1,.93.218,2.023,2.023,0,0,1,.732.633.263.263,0,0,1,.059.138.241.241,0,0,1-.119.2.171.171,0,0,1-.119.059.208.208,0,0,1-.178-.1,1.576,1.576,0,0,0-1.306-.653,1.509,1.509,0,0,0-.831.237,1.629,1.629,0,0,0-.554.692,2.459,2.459,0,0,0,.02,1.978,1.571,1.571,0,0,0,.594.692,1.66,1.66,0,0,0,.87.257,1.524,1.524,0,0,0,1.128-.415.195.195,0,0,1,.3-.02.254.254,0,0,1,.079.2.225.225,0,0,1-.059.158,1.889,1.889,0,0,1-.653.435,2.17,2.17,0,0,1-.791.158A2.339,2.339,0,0,1,484.248,202.73Z" transform="translate(-415.307 -196.162)"/><path class="abc" d="M511.643,194.748a.242.242,0,0,1-.079.178c-.059.04-.1.079-.138.079a.2.2,0,0,1-.158-.1l-1.741-2.295-.752.732v1.385a.242.242,0,0,1-.059.178.251.251,0,0,1-.178.079.242.242,0,0,1-.178-.079.276.276,0,0,1-.059-.178v-6.251a.334.334,0,0,1,.059-.2.251.251,0,0,1,.178-.079.193.193,0,0,1,.178.079.3.3,0,0,1,.059.2v4.253l2.473-2.453c.059-.04.1-.079.158-.079a.2.2,0,0,1,.158.079c.04.059.079.1.079.158a.18.18,0,0,1-.079.158l-1.681,1.681,1.741,2.315C511.623,194.629,511.643,194.689,511.643,194.748Z" transform="translate(-435.441 -188.141)"/><path class="abc" d="M530.548,202.73a2.06,2.06,0,0,1-.771-.87,2.543,2.543,0,0,1-.277-1.227,2.869,2.869,0,0,1,.257-1.246,2.112,2.112,0,0,1,.732-.87,1.815,1.815,0,0,1,1.048-.317,2.076,2.076,0,0,1,.93.218,2.023,2.023,0,0,1,.732.633.263.263,0,0,1,.059.138.241.241,0,0,1-.119.2.171.171,0,0,1-.119.059.208.208,0,0,1-.178-.1,1.576,1.576,0,0,0-1.306-.653,1.509,1.509,0,0,0-.831.237,1.629,1.629,0,0,0-.554.692,2.459,2.459,0,0,0,.02,1.978,1.571,1.571,0,0,0,.593.692,1.66,1.66,0,0,0,.87.257,1.524,1.524,0,0,0,1.128-.415.195.195,0,0,1,.3-.02.254.254,0,0,1,.079.2.225.225,0,0,1-.059.158,1.89,1.89,0,0,1-.653.435,2.17,2.17,0,0,1-.791.158A2.271,2.271,0,0,1,530.548,202.73Z" transform="translate(-452.448 -196.162)"/><path class="abc" d="M557.547,190.175a1.862,1.862,0,0,1,.712.752,2.5,2.5,0,0,1,.257,1.187v2.334a.242.242,0,0,1-.059.178.251.251,0,0,1-.178.079.242.242,0,0,1-.178-.079.276.276,0,0,1-.059-.178v-2.334a1.7,1.7,0,0,0-.435-1.266,1.475,1.475,0,0,0-1.108-.435,1.7,1.7,0,0,0-.771.178,1.342,1.342,0,0,0-.554.495,1.227,1.227,0,0,0-.2.692v2.651a.242.242,0,0,1-.059.178.251.251,0,0,1-.178.079.242.242,0,0,1-.178-.079.276.276,0,0,1-.059-.178v-6.251a.334.334,0,0,1,.059-.2.251.251,0,0,1,.178-.079.193.193,0,0,1,.178.079.3.3,0,0,1,.059.2v2.512a2.013,2.013,0,0,1,.653-.574,1.794,1.794,0,0,1,.851-.2A2.085,2.085,0,0,1,557.547,190.175Z" transform="translate(-472.502 -187.9)"/><path class="abc" d="M583.863,198.488a2.294,2.294,0,0,1,.811.87,2.634,2.634,0,0,1,.3,1.246v2.117a.242.242,0,0,1-.059.178.251.251,0,0,1-.178.079.242.242,0,0,1-.178-.079.276.276,0,0,1-.059-.178v-.673a1.948,1.948,0,0,1-.712.732,1.987,1.987,0,0,1-1.029.257,2.136,2.136,0,0,1-1.147-.317,2.294,2.294,0,0,1-.811-.87,2.556,2.556,0,0,1-.3-1.227,2.634,2.634,0,0,1,.3-1.246,2.151,2.151,0,0,1,.811-.87,2.044,2.044,0,0,1,1.147-.317A2.075,2.075,0,0,1,583.863,198.488Zm-.257,3.8a1.793,1.793,0,0,0,.633-.692,2.074,2.074,0,0,0,.218-.989,2.338,2.338,0,0,0-.218-.989,1.654,1.654,0,0,0-.633-.692,1.669,1.669,0,0,0-1.78,0,1.944,1.944,0,0,0-.633.692,2.179,2.179,0,0,0,0,1.978,1.654,1.654,0,0,0,.633.692,1.676,1.676,0,0,0,.89.257A1.519,1.519,0,0,0,583.606,202.286Z" transform="translate(-493.359 -196.154)"/><path class="abc" d="M609.3,189.992a.486.486,0,0,1-.1-.3.4.4,0,0,1,.119-.3.328.328,0,0,1,.257-.1.417.417,0,0,1,.257.1.363.363,0,0,1,.1.3.486.486,0,0,1-.1.3.359.359,0,0,1-.277.119A.294.294,0,0,1,609.3,189.992Zm.1,5.776a.276.276,0,0,1-.059-.178v-4.233a.334.334,0,0,1,.059-.2.251.251,0,0,1,.178-.079.193.193,0,0,1,.178.079.3.3,0,0,1,.059.2v4.233a.242.242,0,0,1-.059.178.251.251,0,0,1-.178.079A.193.193,0,0,1,609.4,195.769Z" transform="translate(-516.381 -189.023)"/><path class="abc" d="M623.346,198.2a1.862,1.862,0,0,1,.712.752,2.5,2.5,0,0,1,.257,1.187v2.334a.242.242,0,0,1-.059.178.251.251,0,0,1-.178.079.242.242,0,0,1-.178-.079.276.276,0,0,1-.059-.178v-2.334a1.7,1.7,0,0,0-.435-1.266,1.476,1.476,0,0,0-1.108-.435,1.7,1.7,0,0,0-.771.178,1.342,1.342,0,0,0-.554.495,1.227,1.227,0,0,0-.2.692v2.651a.242.242,0,0,1-.059.178.251.251,0,0,1-.178.079.242.242,0,0,1-.178-.079.276.276,0,0,1-.059-.178v-4.233a.334.334,0,0,1,.059-.2.251.251,0,0,1,.178-.079.193.193,0,0,1,.178.079.3.3,0,0,1,.059.2v.455a2.014,2.014,0,0,1,.653-.574,1.794,1.794,0,0,1,.851-.2A2.588,2.588,0,0,1,623.346,198.2Z" transform="translate(-525.285 -195.922)"/></g></g></svg>