<svg xmlns="http://www.w3.org/2000/svg" width="186.861" height="60.002" viewBox="0 0 186.861 60.002"><defs><style>.edexalogo{fill:#171717;}.b{fill:#005397;}</style></defs><g transform="translate(-11.6 -20.6)"><g transform="translate(11.6 20.6)"><g transform="translate(155.376 13.294)"><path class="edexalogo" d="M558.94,67.477a15.437,15.437,0,0,1,5.668,5.727,15.911,15.911,0,0,1,2.077,8.1v12.76a2.75,2.75,0,0,1-.831,2.077,2.8,2.8,0,0,1-2.077.831,2.75,2.75,0,0,1-2.077-.831,2.8,2.8,0,0,1-.831-2.077V91.959A14.238,14.238,0,0,1,556,95.787a14.6,14.6,0,0,1-13.621-.683,14.338,14.338,0,0,1-5.252-5.7,17.1,17.1,0,0,1-1.929-8.1,16.272,16.272,0,0,1,2.048-8.1,14.881,14.881,0,0,1,5.7-5.727,15.848,15.848,0,0,1,8.042-2.077A15.523,15.523,0,0,1,558.94,67.477Zm-2.819,23.087a9.576,9.576,0,0,0,3.62-3.828,11.168,11.168,0,0,0,1.306-5.46,11.624,11.624,0,0,0-1.306-5.49,9.961,9.961,0,0,0-17.6,0,11.3,11.3,0,0,0-1.335,5.49,11.187,11.187,0,0,0,1.335,5.46,9.874,9.874,0,0,0,8.813,5.223A9.377,9.377,0,0,0,556.121,90.564Z" transform="translate(-535.2 -65.4)"/></g><g transform="translate(0 2.107)"><path class="edexalogo" d="M39.583,87.118a2.484,2.484,0,0,1-1.84.683H16.734a9.873,9.873,0,0,0,3.5,6.261,10.913,10.913,0,0,0,7.122,2.374,10.442,10.442,0,0,0,3.442-.623,10.653,10.653,0,0,0,2.967-1.484,2.8,2.8,0,0,1,1.84-.593,2.305,2.305,0,0,1,1.662.564,2.491,2.491,0,0,1,1.009,1.869,2.021,2.021,0,0,1-.89,1.662,14.854,14.854,0,0,1-4.689,2.433,16.93,16.93,0,0,1-5.341.95,16.728,16.728,0,0,1-8.131-1.959,13.991,13.991,0,0,1-5.608-5.46A15.574,15.574,0,0,1,11.6,85.871a16.211,16.211,0,0,1,1.9-7.923,14.1,14.1,0,0,1,5.312-5.49A15.142,15.142,0,0,1,26.526,70.5a13.985,13.985,0,0,1,7.359,1.869,12.172,12.172,0,0,1,4.748,5.252A17.481,17.481,0,0,1,40.3,85.367,2.3,2.3,0,0,1,39.583,87.118ZM19.968,77.474a9.881,9.881,0,0,0-3.175,5.905H35.221a9.688,9.688,0,0,0-2.76-5.905,8.06,8.06,0,0,0-5.905-2.226A9.814,9.814,0,0,0,19.968,77.474Z" transform="translate(-11.6 -57.799)"/><path class="edexalogo" d="M153.3,28.472a2.776,2.776,0,0,1,.772,2.048V55.743a15.557,15.557,0,0,1-2.018,7.834,14.633,14.633,0,0,1-5.49,5.519,15.119,15.119,0,0,1-7.715,2.018,15.416,15.416,0,0,1-7.775-2.018,14.223,14.223,0,0,1-5.49-5.519,15.536,15.536,0,0,1-1.988-7.834,16.758,16.758,0,0,1,1.84-7.834,13.962,13.962,0,0,1,5.074-5.49,14.034,14.034,0,0,1,13.176-.653,13.286,13.286,0,0,1,4.689,3.709V30.519a2.682,2.682,0,0,1,.8-2.048A2.851,2.851,0,0,1,151.2,27.7,2.8,2.8,0,0,1,153.3,28.472Zm-9.437,36.292a9.26,9.26,0,0,0,3.5-3.739,10.9,10.9,0,0,0,1.276-5.312,10.785,10.785,0,0,0-1.276-5.282,9.792,9.792,0,0,0-3.5-3.709,9.63,9.63,0,0,0-5.015-1.365,9.433,9.433,0,0,0-5.015,1.365,9.655,9.655,0,0,0-3.531,3.709A10.8,10.8,0,0,0,129,55.713a10.918,10.918,0,0,0,1.306,5.312,9.951,9.951,0,0,0,3.531,3.739,9.63,9.63,0,0,0,5.015,1.365A9.36,9.36,0,0,0,143.868,64.764Z" transform="translate(-90.364 -27.7)"/><path class="edexalogo" d="M282.724,87.118a2.484,2.484,0,0,1-1.84.683H259.9a9.873,9.873,0,0,0,3.5,6.261,10.913,10.913,0,0,0,7.122,2.374,12.006,12.006,0,0,0,6.439-2.107,2.8,2.8,0,0,1,1.84-.593,2.305,2.305,0,0,1,1.662.564,2.491,2.491,0,0,1,1.009,1.869,2.021,2.021,0,0,1-.89,1.662,14.853,14.853,0,0,1-4.689,2.433,16.93,16.93,0,0,1-5.341.95,16.728,16.728,0,0,1-8.131-1.959,13.991,13.991,0,0,1-5.608-5.46,15.574,15.574,0,0,1-2.018-7.923,16.211,16.211,0,0,1,1.9-7.923,14.1,14.1,0,0,1,5.312-5.49,15.142,15.142,0,0,1,7.715-1.959,13.985,13.985,0,0,1,7.359,1.869,12.172,12.172,0,0,1,4.748,5.252,17.48,17.48,0,0,1,1.662,7.745A2.464,2.464,0,0,1,282.724,87.118Zm-19.585-9.644a9.881,9.881,0,0,0-3.175,5.905h18.428a9.688,9.688,0,0,0-2.76-5.905,8.06,8.06,0,0,0-5.905-2.226A9.814,9.814,0,0,0,263.139,77.474Z" transform="translate(-182.631 -57.799)"/></g><g transform="translate(107.511)"><path class="b" d="M455.772,20.6H443.695L427.7,42.886l15.906,22.226h12.078L439.807,42.886Z" transform="translate(-411.735 -20.6)"/><path class="b" d="M390.725,27.188,385.978,20.6H373.9l10.861,15.1Z" transform="translate(-373.9 -20.6)"/><path class="b" d="M374.3,133.468h12.078l5.341-7.448-6.2-8.22Z" transform="translate(-374.181 -88.956)"/></g></g><g transform="translate(49.702 70.246)"><path class="edexalogo" d="M144.065,199.424a.443.443,0,0,1,.089.3.363.363,0,0,1-.089.267.376.376,0,0,1-.267.119h-.267a2.3,2.3,0,0,1-1.187-.326,1.949,1.949,0,0,1-.8-.89,2.99,2.99,0,0,1-.3-1.276v-3.65h-.92a.337.337,0,0,1-.237-.089.363.363,0,0,1-.089-.267.414.414,0,0,1,.089-.267.246.246,0,0,1,.237-.089h.92v-2.137a.5.5,0,0,1,.089-.3.376.376,0,0,1,.267-.119.289.289,0,0,1,.267.119.443.443,0,0,1,.089.3v2.137h1.573a.337.337,0,0,1,.237.089.363.363,0,0,1,.089.267.414.414,0,0,1-.089.267.337.337,0,0,1-.237.089h-1.573v3.65a1.66,1.66,0,0,0,.445,1.217,1.4,1.4,0,0,0,1.1.475h.267A.527.527,0,0,1,144.065,199.424Z" transform="translate(-140 -189.869)"/><path class="edexalogo" d="M163.57,191.313a2.794,2.794,0,0,1,1.068,1.128,3.751,3.751,0,0,1,.386,1.78v3.5a.363.363,0,0,1-.089.267.376.376,0,0,1-.267.119.363.363,0,0,1-.267-.119.414.414,0,0,1-.089-.267v-3.5a2.548,2.548,0,0,0-.653-1.9,2.169,2.169,0,0,0-1.662-.653,2.552,2.552,0,0,0-1.157.267,2.014,2.014,0,0,0-.831.742,1.841,1.841,0,0,0-.3,1.039v3.976a.363.363,0,0,1-.089.267.376.376,0,0,1-.267.119.362.362,0,0,1-.267-.119.414.414,0,0,1-.089-.267v-9.377a.5.5,0,0,1,.089-.3.376.376,0,0,1,.267-.119.289.289,0,0,1,.267.119.443.443,0,0,1,.089.3v3.769a3.02,3.02,0,0,1,.979-.861,2.692,2.692,0,0,1,1.276-.3A3.127,3.127,0,0,1,163.57,191.313Z" transform="translate(-153.362 -187.9)"/><path class="edexalogo" d="M189.418,198.5a3.152,3.152,0,0,1,1.068,1.246,3.959,3.959,0,0,1,.386,1.81.363.363,0,0,1-.089.267.337.337,0,0,1-.237.089h-5.015a3.313,3.313,0,0,0,.356,1.365,2.747,2.747,0,0,0,.89.95,2.307,2.307,0,0,0,1.246.326,2.815,2.815,0,0,0,.95-.178,1.691,1.691,0,0,0,.742-.475.584.584,0,0,1,.237-.119.269.269,0,0,1,.208.089.362.362,0,0,1,.119.267.27.27,0,0,1-.119.237,3.071,3.071,0,0,1-1.009.623,2.921,2.921,0,0,1-1.187.237,3.035,3.035,0,0,1-1.691-.475,3.2,3.2,0,0,1-1.157-1.276,4.319,4.319,0,0,1-.415-1.87,4.129,4.129,0,0,1,.386-1.87,2.908,2.908,0,0,1,1.1-1.276,2.985,2.985,0,0,1,1.6-.475A3.528,3.528,0,0,1,189.418,198.5Zm-3.146.95a3.076,3.076,0,0,0-.772,1.78h4.659a2.855,2.855,0,0,0-.712-1.78,2.106,2.106,0,0,0-1.6-.683A2.134,2.134,0,0,0,186.273,199.454Z" transform="translate(-171.435 -195.003)"/><path class="edexalogo" d="M227.574,191.472a3.441,3.441,0,0,1,1.217,1.306,3.834,3.834,0,0,1,.445,1.84,3.952,3.952,0,0,1-.445,1.87,3.227,3.227,0,0,1-1.217,1.306,3.3,3.3,0,0,1-3.413,0,3.583,3.583,0,0,1-1.217-1.276,3.718,3.718,0,0,1-.445-1.81v-6.291a.5.5,0,0,1,.089-.3.376.376,0,0,1,.267-.119.289.289,0,0,1,.267.119.443.443,0,0,1,.089.3v4.065a3.154,3.154,0,0,1,1.068-1.1,2.982,2.982,0,0,1,1.543-.386A3.514,3.514,0,0,1,227.574,191.472Zm-.386,5.7a2.917,2.917,0,0,0,.95-1.039,3.269,3.269,0,0,0,0-2.967,2.481,2.481,0,0,0-.95-1.039,2.515,2.515,0,0,0-1.335-.386,2.278,2.278,0,0,0-1.335.386,2.689,2.689,0,0,0-.95,1.039,3.111,3.111,0,0,0-.326,1.484,3.506,3.506,0,0,0,.326,1.484,2.481,2.481,0,0,0,.95,1.039,2.5,2.5,0,0,0,2.671,0Z" transform="translate(-198.018 -187.97)"/><path class="edexalogo" d="M256.705,198.586a.443.443,0,0,1,.089.3v6.35a.363.363,0,0,1-.089.267.376.376,0,0,1-.267.119.362.362,0,0,1-.267-.119.414.414,0,0,1-.089-.267v-.682a3.02,3.02,0,0,1-.979.861,2.692,2.692,0,0,1-1.276.3,3.091,3.091,0,0,1-1.573-.386,2.794,2.794,0,0,1-1.068-1.128,3.751,3.751,0,0,1-.386-1.78v-3.5a.363.363,0,0,1,.089-.267.376.376,0,0,1,.267-.119.362.362,0,0,1,.267.119.414.414,0,0,1,.089.267v3.5a2.548,2.548,0,0,0,.653,1.9,2.169,2.169,0,0,0,1.662.653,2.552,2.552,0,0,0,1.157-.267,2.013,2.013,0,0,0,.831-.742,1.841,1.841,0,0,0,.3-1.039v-3.976a.5.5,0,0,1,.089-.3.376.376,0,0,1,.267-.119A.16.16,0,0,1,256.705,198.586Z" transform="translate(-217.921 -195.352)"/><path class="edexalogo" d="M278.387,205.274a2.706,2.706,0,0,1-1.1-.8.337.337,0,0,1-.089-.237.412.412,0,0,1,.148-.3.429.429,0,0,1,.208-.059.312.312,0,0,1,.267.148,2.794,2.794,0,0,0,3.324.445,1.168,1.168,0,0,0,.445-.95c0-.683-.623-1.128-1.84-1.306a3.547,3.547,0,0,1-1.751-.683,1.56,1.56,0,0,1-.593-1.217,1.8,1.8,0,0,1,.653-1.484,2.484,2.484,0,0,1,1.662-.534,2.557,2.557,0,0,1,2.285,1.157.283.283,0,0,1,.059.208.361.361,0,0,1-.178.3,1.166,1.166,0,0,1-.178.059.361.361,0,0,1-.3-.178,2.02,2.02,0,0,0-1.721-.861,1.8,1.8,0,0,0-1.157.356,1.043,1.043,0,0,0-.445.861,1,1,0,0,0,.415.831,3.408,3.408,0,0,0,1.395.475,3.212,3.212,0,0,1,1.81.742,1.82,1.82,0,0,1,.564,1.306,1.778,1.778,0,0,1-.356,1.068,2.36,2.36,0,0,1-.95.712,3.055,3.055,0,0,1-1.276.237A4.348,4.348,0,0,1,278.387,205.274Z" transform="translate(-236.486 -195.214)"/><path class="edexalogo" d="M300.148,190.339a.729.729,0,0,1-.148-.445.6.6,0,0,1,.178-.445.491.491,0,0,1,.386-.148.625.625,0,0,1,.386.148.511.511,0,0,1,.148.445.729.729,0,0,1-.148.445.539.539,0,0,1-.415.178A.522.522,0,0,1,300.148,190.339ZM300.3,199a.414.414,0,0,1-.089-.267v-6.35a.5.5,0,0,1,.089-.3.376.376,0,0,1,.267-.119.289.289,0,0,1,.267.119.443.443,0,0,1,.089.3v6.35a.363.363,0,0,1-.089.267.376.376,0,0,1-.267.119A.322.322,0,0,1,300.3,199Z" transform="translate(-252.521 -188.885)"/><path class="edexalogo" d="M315.67,198.345a2.794,2.794,0,0,1,1.068,1.128,3.751,3.751,0,0,1,.386,1.78v3.5a.363.363,0,0,1-.089.267.376.376,0,0,1-.267.119.363.363,0,0,1-.267-.119.414.414,0,0,1-.089-.267v-3.5a2.548,2.548,0,0,0-.653-1.9,2.169,2.169,0,0,0-1.662-.653,2.552,2.552,0,0,0-1.157.267,2.013,2.013,0,0,0-.831.742,1.841,1.841,0,0,0-.3,1.039v3.976a.363.363,0,0,1-.089.267.376.376,0,0,1-.267.119.362.362,0,0,1-.267-.119.414.414,0,0,1-.089-.267v-6.35a.5.5,0,0,1,.089-.3.376.376,0,0,1,.267-.119.289.289,0,0,1,.267.119.443.443,0,0,1,.089.3v.683a3.02,3.02,0,0,1,.979-.861,2.692,2.692,0,0,1,1.276-.3A3.757,3.757,0,0,1,315.67,198.345Z" transform="translate(-260.327 -194.933)"/><path class="edexalogo" d="M341.518,198.5a3.152,3.152,0,0,1,1.068,1.246,3.959,3.959,0,0,1,.386,1.81.363.363,0,0,1-.089.267.337.337,0,0,1-.237.089h-5.015a3.314,3.314,0,0,0,.356,1.365,2.747,2.747,0,0,0,.89.95,2.307,2.307,0,0,0,1.246.326,2.815,2.815,0,0,0,.95-.178,1.691,1.691,0,0,0,.742-.475.584.584,0,0,1,.237-.119.269.269,0,0,1,.208.089.362.362,0,0,1,.119.267.27.27,0,0,1-.119.237,3.071,3.071,0,0,1-1.009.623,2.922,2.922,0,0,1-1.187.237,3.035,3.035,0,0,1-1.691-.475,3.2,3.2,0,0,1-1.157-1.276,4.32,4.32,0,0,1-.415-1.87,4.129,4.129,0,0,1,.386-1.87,2.908,2.908,0,0,1,1.1-1.276,2.985,2.985,0,0,1,1.6-.475A3.42,3.42,0,0,1,341.518,198.5Zm-3.116.95a3.076,3.076,0,0,0-.772,1.78h4.659a2.855,2.855,0,0,0-.712-1.78,2.188,2.188,0,0,0-3.175,0Z" transform="translate(-278.4 -195.003)"/><path class="edexalogo" d="M362.987,205.274a2.706,2.706,0,0,1-1.1-.8.337.337,0,0,1-.089-.237.412.412,0,0,1,.148-.3.429.429,0,0,1,.208-.059.312.312,0,0,1,.267.148,2.794,2.794,0,0,0,3.324.445,1.168,1.168,0,0,0,.445-.95c0-.683-.623-1.128-1.84-1.306a3.547,3.547,0,0,1-1.751-.683,1.56,1.56,0,0,1-.593-1.217,1.8,1.8,0,0,1,.653-1.484,2.484,2.484,0,0,1,1.662-.534,2.557,2.557,0,0,1,2.285,1.157.283.283,0,0,1,.059.208.361.361,0,0,1-.178.3,1.166,1.166,0,0,1-.178.059.361.361,0,0,1-.3-.178,2.02,2.02,0,0,0-1.721-.861,1.8,1.8,0,0,0-1.157.356,1.043,1.043,0,0,0-.445.861,1,1,0,0,0,.415.831,3.408,3.408,0,0,0,1.395.475,3.212,3.212,0,0,1,1.81.742,1.82,1.82,0,0,1,.564,1.306,1.778,1.778,0,0,1-.356,1.068,2.36,2.36,0,0,1-.95.712,3.055,3.055,0,0,1-1.276.237A4.348,4.348,0,0,1,362.987,205.274Z" transform="translate(-295.982 -195.214)"/><path class="edexalogo" d="M384.587,205.274a2.706,2.706,0,0,1-1.1-.8.337.337,0,0,1-.089-.237.412.412,0,0,1,.148-.3.429.429,0,0,1,.208-.059.312.312,0,0,1,.267.148,2.794,2.794,0,0,0,3.324.445,1.168,1.168,0,0,0,.445-.95c0-.683-.623-1.128-1.84-1.306a3.547,3.547,0,0,1-1.751-.683,1.56,1.56,0,0,1-.593-1.217,1.8,1.8,0,0,1,.653-1.484,2.484,2.484,0,0,1,1.662-.534,2.557,2.557,0,0,1,2.285,1.157.282.282,0,0,1,.059.208.361.361,0,0,1-.178.3,1.166,1.166,0,0,1-.178.059.361.361,0,0,1-.3-.178,2.02,2.02,0,0,0-1.721-.861,1.8,1.8,0,0,0-1.157.356,1.043,1.043,0,0,0-.445.861,1,1,0,0,0,.415.831,3.409,3.409,0,0,0,1.395.475,3.212,3.212,0,0,1,1.81.742,1.82,1.82,0,0,1,.564,1.306,1.778,1.778,0,0,1-.356,1.068,2.361,2.361,0,0,1-.95.712,3.055,3.055,0,0,1-1.276.237A4.349,4.349,0,0,1,384.587,205.274Z" transform="translate(-311.172 -195.214)"/><path class="edexalogo" d="M422.874,191.472a3.441,3.441,0,0,1,1.217,1.306,3.834,3.834,0,0,1,.445,1.84,3.952,3.952,0,0,1-.445,1.87,3.227,3.227,0,0,1-1.217,1.306,3.133,3.133,0,0,1-1.721.475,3.035,3.035,0,0,1-1.691-.475,3.356,3.356,0,0,1-1.217-1.276,3.718,3.718,0,0,1-.445-1.81v-6.291a.5.5,0,0,1,.089-.3.376.376,0,0,1,.267-.119.289.289,0,0,1,.267.119.443.443,0,0,1,.089.3v4.065a3.154,3.154,0,0,1,1.068-1.1,2.982,2.982,0,0,1,1.543-.386A3.352,3.352,0,0,1,422.874,191.472Zm-.356,5.7a2.917,2.917,0,0,0,.95-1.039,3.269,3.269,0,0,0,0-2.967,2.481,2.481,0,0,0-.95-1.039,2.515,2.515,0,0,0-1.335-.386,2.278,2.278,0,0,0-1.335.386,2.689,2.689,0,0,0-.95,1.039,3.111,3.111,0,0,0-.326,1.484,3.506,3.506,0,0,0,.326,1.484,2.481,2.481,0,0,0,.95,1.039,2.278,2.278,0,0,0,1.335.386A2.409,2.409,0,0,0,422.518,197.169Z" transform="translate(-335.364 -187.97)"/><path class="edexalogo" d="M446.145,197.685a2.505,2.505,0,0,1-.445-1.543v-7.626a.5.5,0,0,1,.089-.3.376.376,0,0,1,.267-.119.289.289,0,0,1,.267.119.443.443,0,0,1,.089.3v7.626a1.991,1.991,0,0,0,.237.979.661.661,0,0,0,.594.386h.3a.224.224,0,0,1,.208.119.443.443,0,0,1,.089.3.363.363,0,0,1-.089.267.376.376,0,0,1-.267.119h-.237A1.411,1.411,0,0,1,446.145,197.685Z" transform="translate(-354.985 -188.041)"/><path class="edexalogo" d="M457.362,205a3.442,3.442,0,0,1-1.217-1.306,3.834,3.834,0,0,1-.445-1.84,3.952,3.952,0,0,1,.445-1.869,3.227,3.227,0,0,1,1.217-1.306,3.3,3.3,0,0,1,3.413,0,3.442,3.442,0,0,1,1.217,1.306,3.952,3.952,0,0,1,.445,1.869,3.752,3.752,0,0,1-.445,1.84A3.227,3.227,0,0,1,460.774,205a3.035,3.035,0,0,1-1.691.475A3.323,3.323,0,0,1,457.362,205Zm3.056-.653a2.689,2.689,0,0,0,.95-1.039,3.112,3.112,0,0,0,.326-1.484,3.506,3.506,0,0,0-.326-1.484,2.481,2.481,0,0,0-.95-1.039,2.5,2.5,0,0,0-2.671,0,2.917,2.917,0,0,0-.95,1.039,3.269,3.269,0,0,0,0,2.967,2.481,2.481,0,0,0,.95,1.039,2.515,2.515,0,0,0,1.335.386A2.342,2.342,0,0,0,460.418,204.343Z" transform="translate(-362.017 -195.144)"/><path class="edexalogo" d="M484.773,205a3.091,3.091,0,0,1-1.157-1.306,3.815,3.815,0,0,1-.415-1.84,4.305,4.305,0,0,1,.386-1.869,3.169,3.169,0,0,1,1.1-1.306,2.723,2.723,0,0,1,1.573-.475,3.113,3.113,0,0,1,1.395.326,3.034,3.034,0,0,1,1.1.95.394.394,0,0,1,.089.208.361.361,0,0,1-.178.3.257.257,0,0,1-.178.089.312.312,0,0,1-.267-.148,2.365,2.365,0,0,0-1.959-.979,2.263,2.263,0,0,0-1.246.356,2.443,2.443,0,0,0-.831,1.039,3.689,3.689,0,0,0,.03,2.967,2.357,2.357,0,0,0,.89,1.039,2.49,2.49,0,0,0,1.306.386,2.285,2.285,0,0,0,1.691-.623.292.292,0,0,1,.445-.03.381.381,0,0,1,.119.3.337.337,0,0,1-.089.237,2.835,2.835,0,0,1-.979.653,3.256,3.256,0,0,1-1.187.237A3.509,3.509,0,0,1,484.773,205Z" transform="translate(-381.357 -195.144)"/><path class="edexalogo" d="M513.315,198.022a.362.362,0,0,1-.119.267c-.089.059-.148.119-.208.119a.3.3,0,0,1-.237-.148l-2.611-3.442-1.128,1.1v2.077a.363.363,0,0,1-.089.267.376.376,0,0,1-.267.119.363.363,0,0,1-.267-.119.414.414,0,0,1-.089-.267v-9.377a.5.5,0,0,1,.089-.3.376.376,0,0,1,.267-.119.289.289,0,0,1,.267.119.443.443,0,0,1,.089.3V195l3.709-3.68c.089-.059.148-.119.237-.119a.307.307,0,0,1,.237.119c.059.089.119.148.119.237a.27.27,0,0,1-.119.237l-2.522,2.522,2.611,3.472C513.285,197.844,513.315,197.933,513.315,198.022Z" transform="translate(-399.008 -188.111)"/><path class="edexalogo" d="M531.073,205a3.091,3.091,0,0,1-1.157-1.306,3.815,3.815,0,0,1-.415-1.84,4.305,4.305,0,0,1,.386-1.869,3.169,3.169,0,0,1,1.1-1.306,2.723,2.723,0,0,1,1.573-.475,3.113,3.113,0,0,1,1.395.326,3.034,3.034,0,0,1,1.1.95.394.394,0,0,1,.089.208.361.361,0,0,1-.178.3.256.256,0,0,1-.178.089.312.312,0,0,1-.267-.148,2.364,2.364,0,0,0-1.958-.979,2.263,2.263,0,0,0-1.246.356,2.443,2.443,0,0,0-.831,1.039,3.689,3.689,0,0,0,.03,2.967,2.356,2.356,0,0,0,.89,1.039,2.491,2.491,0,0,0,1.306.386,2.285,2.285,0,0,0,1.691-.623.292.292,0,0,1,.445-.03.381.381,0,0,1,.119.3.337.337,0,0,1-.089.237,2.835,2.835,0,0,1-.979.653,3.256,3.256,0,0,1-1.187.237A3.406,3.406,0,0,1,531.073,205Z" transform="translate(-413.917 -195.144)"/><path class="edexalogo" d="M559.07,191.313a2.793,2.793,0,0,1,1.068,1.128,3.751,3.751,0,0,1,.386,1.78v3.5a.363.363,0,0,1-.089.267.376.376,0,0,1-.267.119.362.362,0,0,1-.267-.119.414.414,0,0,1-.089-.267v-3.5a2.548,2.548,0,0,0-.653-1.9,2.213,2.213,0,0,0-1.662-.653,2.552,2.552,0,0,0-1.157.267,2.013,2.013,0,0,0-.831.742,1.84,1.84,0,0,0-.3,1.039v3.976a.363.363,0,0,1-.089.267.376.376,0,0,1-.267.119.362.362,0,0,1-.267-.119.414.414,0,0,1-.089-.267v-9.377a.5.5,0,0,1,.089-.3.376.376,0,0,1,.267-.119.289.289,0,0,1,.267.119.443.443,0,0,1,.089.3v3.769a3.021,3.021,0,0,1,.979-.861,2.692,2.692,0,0,1,1.276-.3A3.127,3.127,0,0,1,559.07,191.313Z" transform="translate(-431.499 -187.9)"/><path class="edexalogo" d="M585.545,198.638a3.442,3.442,0,0,1,1.217,1.306,3.952,3.952,0,0,1,.445,1.87v3.175a.363.363,0,0,1-.089.267.376.376,0,0,1-.267.119.363.363,0,0,1-.267-.119.414.414,0,0,1-.089-.267v-1.009a2.922,2.922,0,0,1-1.068,1.1,2.982,2.982,0,0,1-1.543.386,3.2,3.2,0,0,1-1.721-.475,3.442,3.442,0,0,1-1.217-1.306,3.834,3.834,0,0,1-.445-1.84,3.952,3.952,0,0,1,.445-1.869,3.227,3.227,0,0,1,1.217-1.306,3.066,3.066,0,0,1,1.721-.475A3.113,3.113,0,0,1,585.545,198.638Zm-.386,5.7a2.689,2.689,0,0,0,.95-1.039,3.112,3.112,0,0,0,.326-1.484,3.506,3.506,0,0,0-.326-1.484,2.481,2.481,0,0,0-.95-1.039,2.5,2.5,0,0,0-2.671,0,2.916,2.916,0,0,0-.95,1.039,3.269,3.269,0,0,0,0,2.967,2.481,2.481,0,0,0,.95,1.039,2.514,2.514,0,0,0,1.335.386A2.278,2.278,0,0,0,585.159,204.335Z" transform="translate(-449.783 -195.136)"/><path class="edexalogo" d="M609.348,190.339a.729.729,0,0,1-.148-.445.6.6,0,0,1,.178-.445.491.491,0,0,1,.386-.148.625.625,0,0,1,.386.148.545.545,0,0,1,.148.445.729.729,0,0,1-.148.445.539.539,0,0,1-.415.178A.441.441,0,0,1,609.348,190.339ZM609.5,199a.414.414,0,0,1-.089-.267v-6.35a.5.5,0,0,1,.089-.3.376.376,0,0,1,.267-.119.289.289,0,0,1,.267.119.443.443,0,0,1,.089.3v6.35a.363.363,0,0,1-.089.267.376.376,0,0,1-.267.119A.289.289,0,0,1,609.5,199Z" transform="translate(-469.967 -188.885)"/><path class="edexalogo" d="M624.87,198.345a2.794,2.794,0,0,1,1.068,1.128,3.751,3.751,0,0,1,.386,1.78v3.5a.363.363,0,0,1-.089.267.376.376,0,0,1-.267.119.363.363,0,0,1-.267-.119.414.414,0,0,1-.089-.267v-3.5a2.548,2.548,0,0,0-.653-1.9,2.213,2.213,0,0,0-1.662-.653,2.552,2.552,0,0,0-1.157.267,2.013,2.013,0,0,0-.831.742,1.841,1.841,0,0,0-.3,1.039v3.976a.363.363,0,0,1-.089.267.376.376,0,0,1-.267.119.363.363,0,0,1-.267-.119.414.414,0,0,1-.089-.267v-6.35a.5.5,0,0,1,.089-.3.376.376,0,0,1,.267-.119.289.289,0,0,1,.267.119.443.443,0,0,1,.089.3v.683a3.021,3.021,0,0,1,.979-.861,2.692,2.692,0,0,1,1.276-.3A3.883,3.883,0,0,1,624.87,198.345Z" transform="translate(-477.773 -194.933)"/></g></g></svg>