<svg xmlns="http://www.w3.org/2000/svg" width="84.032" height="96" viewBox="0 0 84.032 96"><defs><style>.filehash{fill:#007de4;}.filehashb{fill:#073d83;}</style></defs><g transform="translate(10.066 11.5)"><path class="filehash" d="M54.5,59.119h3.551L57.4,63.59H53.977Z"/><path class="filehashb" d="M55.95-11.5h-40.5a2.123,2.123,0,0,0-.921.526L-9.54,13.092a2.116,2.116,0,0,0-.526.92V74.5a2.022,2.022,0,0,0,1.972,1.973H31.884a2.248,2.248,0,0,0,1.71-.92l.526-.921a1.692,1.692,0,0,0,.131-1.578,9.713,9.713,0,0,1-.394-2.5V46.495a5.9,5.9,0,0,1,4.6-5.787L54.5,36.763a5.418,5.418,0,0,1,1.447-.131,2.023,2.023,0,0,0,1.973-1.973V-9.527A2.023,2.023,0,0,0,55.95-11.5ZM14-4.662V12.566H-3.228Z"/><path class="filehash" d="M72.388,44.522,56.345,40.577a1.121,1.121,0,0,0-.921,0L39.38,44.522A2.1,2.1,0,0,0,37.8,46.495V70.56c0,6.181,13.151,12.1,17.227,13.808a2.562,2.562,0,0,0,.921.132,1.662,1.662,0,0,0,.789-.132c4.077-1.709,17.227-7.627,17.227-13.808V46.495A2.094,2.094,0,0,0,72.388,44.522Zm-7.233,14.6H61.473l-.526,4.471h3.288v3.551H60.421l-.92,6.97H55.95l.921-6.97H53.32l-.921,6.97h-3.55l1.052-6.97H46.745V63.59h3.682l.657-4.339H47.8V55.568H51.61l.921-6.838H55.95l-.921,6.838H58.58l1.052-6.838h3.419l-.92,6.838h3.156v3.551Z"/></g></svg>