<svg xmlns="http://www.w3.org/2000/svg" width="84.032" height="97" viewBox="0 0 84.032 97"><defs><style>.hashblockchaina{fill:#073d83;}.hashblockchainb{fill:#007de4;}</style></defs><g transform="translate(10.066 11.5)"><path class="hashblockchaina" d="M14.864,36.986h28.92a6.91,6.91,0,0,1,5.805,3.11l2.8,4.146h5.535V-9.527A2.023,2.023,0,0,0,55.95-11.5h-40.5a2.123,2.123,0,0,0-.921.526L-9.54,13.092a2.116,2.116,0,0,0-.526.92V74.5a2.022,2.022,0,0,0,1.972,1.973H14.864ZM14,12.566H-3.228L14-4.662Z"/><path class="hashblockchainb" d="M69.582,47.736H51.6l-2.417-3.579a5.968,5.968,0,0,0-5.011-2.685H19.2V81.115A4.392,4.392,0,0,0,23.585,85.5h46a4.392,4.392,0,0,0,4.384-4.385V52.121A4.392,4.392,0,0,0,69.582,47.736ZM58.306,69.124a18.775,18.775,0,0,1-3.758,7.427,15.4,15.4,0,0,1-7.965,5.1h0c-.089,0-.179-.089-.268-.089C39.156,79.5,36.113,73.6,34.86,69.034A31.9,31.9,0,0,1,33.7,59.459V59.37h.09c6.532,0,11.722-5.549,12.707-6.712l.089-.089.09.089c.984,1.163,6.264,6.712,12.707,6.712h.089v.089A32.345,32.345,0,0,1,58.306,69.124Z"/><path class="hashblockchainb" d="M55.8,68.676a14.287,14.287,0,0,1-2.953,5.817,11.293,11.293,0,0,1-6.264,3.937h0c-.089,0-.089,0-.179-.089-5.548-1.611-7.964-6.175-8.948-9.754a26.122,26.122,0,0,1-.9-7.428V61.07h.089c5.1,0,9.217-4.385,9.933-5.28h.09c.805.9,4.832,5.28,9.933,5.28h.089v.089A31.467,31.467,0,0,1,55.8,68.676Z"/></g></svg>