<svg xmlns="http://www.w3.org/2000/svg" width="34.002" height="34" viewBox="0 0 34.002 34">
  <g id="Group_123" data-name="Group 123" transform="translate(-1.854 -1.854)">
    <path id="Path_113" data-name="Path 113" d="M15.3,28.74A13.443,13.443,0,1,1,28.74,15.3,13.458,13.458,0,0,1,15.3,28.74Zm0-24.2A10.754,10.754,0,1,0,26.051,15.3,10.767,10.767,0,0,0,15.3,4.543Z" transform="translate(0 0)" fill="#4c4f53"/>
    <path id="Path_114" data-name="Path 114" d="M29.139,30.484a1.34,1.34,0,0,1-.95-.394L17.846,19.747a1.344,1.344,0,0,1,1.9-1.9L30.09,28.189a1.343,1.343,0,0,1-.95,2.295Z" transform="translate(5.37 5.37)" fill="#4c4f53"/>
  </g>
</svg>
