<svg xmlns="http://www.w3.org/2000/svg" width="60" height="60" viewBox="0 0 60 60">
  <path id="Path_129" data-name="Path 129" d="M36,6A30,30,0,1,0,66,36,30.034,30.034,0,0,0,36,6ZM47.482,44.986a1.411,1.411,0,0,1,0,2l-.5.5a1.411,1.411,0,0,1-2,0L36,38.5l-8.987,8.986a1.411,1.411,0,0,1-2,0l-.5-.5a1.411,1.411,0,0,1,0-2L33.5,36l-8.986-8.987a1.411,1.411,0,0,1,0-2l.5-.5a1.411,1.411,0,0,1,2,0L36,33.5l8.986-8.986a1.453,1.453,0,0,1,2,0l.5.5a1.411,1.411,0,0,1,0,2L38.5,36Z" transform="translate(-6 -6)" fill="red"/>
</svg>
