<svg xmlns="http://www.w3.org/2000/svg" width="96" height="96" viewBox="0 0 96 96"><defs><style>.uploadfilea{fill:#073d83;}.uploadfileb{fill:#007de4;}</style></defs><g transform="translate(11.5 11.5)"><path class="uploadfilea" d="M58.462-11.5H14.538a2.754,2.754,0,0,0-1.446.526L-10.974,13.092a2.754,2.754,0,0,0-.526,1.446V74.5a2.023,2.023,0,0,0,1.973,1.973H37.158a2.246,2.246,0,0,0,1.709-.92A2.082,2.082,0,0,0,39,73.585a25.25,25.25,0,0,1-2.5-11.178A25.927,25.927,0,0,1,58.725,36.763a1.992,1.992,0,0,0,1.709-1.973V-9.527A1.861,1.861,0,0,0,58.462-11.5Zm-48,23.934H-4.662l17.1-17.1V10.462A1.863,1.863,0,0,1,10.462,12.434Z"/><path class="uploadfileb" d="M62.538,40.445A22.028,22.028,0,1,0,84.5,62.538,22,22,0,0,0,62.538,40.445Zm9.337,19.463a2.252,2.252,0,0,1-2.893,0l-4.6-4.6V74.5a1.972,1.972,0,1,1-3.945,0v-19.2l-4.6,4.6a2.046,2.046,0,1,1-2.894-2.893l8.022-8.022a1.123,1.123,0,0,1,.658-.394,1.677,1.677,0,0,1,1.578,0,2.859,2.859,0,0,1,.657.394l8.022,8.022A2.064,2.064,0,0,1,71.875,59.908Z"/></g></svg>