<svg xmlns="http://www.w3.org/2000/svg" width="96.003" height="96" viewBox="0 0 96.003 96"><defs><style>.window{fill:#073d83;}</style></defs><path class="window" d="M56.234,28.6,21.947,33.743A2.287,2.287,0,0,0,20,36V63.433a2.285,2.285,0,0,0,2.286,2.286H56.572a2.285,2.285,0,0,0,2.286-2.286V30.86a2.289,2.289,0,0,0-.8-1.733A2.316,2.316,0,0,0,56.234,28.6Zm58.973-8.044a2.317,2.317,0,0,0-1.831-.528l-48,7.2a2.287,2.287,0,0,0-1.945,2.261V63.433a2.285,2.285,0,0,0,2.286,2.286h48A2.285,2.285,0,0,0,116,63.433V22.289A2.289,2.289,0,0,0,115.207,20.556ZM56.572,70.29H22.286A2.285,2.285,0,0,0,20,72.576v27.429a2.287,2.287,0,0,0,1.947,2.261l34.287,5.143a2.433,2.433,0,0,0,.338.025,2.287,2.287,0,0,0,2.286-2.286V72.576A2.285,2.285,0,0,0,56.572,70.29Zm57.144,0h-48a2.285,2.285,0,0,0-2.286,2.286V106.52a2.287,2.287,0,0,0,1.947,2.261l48,7.2a2.408,2.408,0,0,0,.338.025A2.287,2.287,0,0,0,116,113.72V72.576A2.285,2.285,0,0,0,113.717,70.29Z" transform="translate(-20 -20.005)"/></svg>